<svg width="931" height="639" viewBox="0 0 931 639" fill="none" xmlns="http://www.w3.org/2000/svg">
<path d="M1.21582 407.433V444.858L337.523 638.025L339.599 603.356L1.21582 407.433Z" fill="#E2E2ED"/>
<path d="M930.64 296.307L337.522 638.025L339.599 603.356L930.149 259.582L930.64 296.307Z" fill="#CACAE0"/>
<path d="M916.662 251.163L743.537 150.789L732.281 144.262L692.654 121.287L681.381 114.748L593.33 63.6978L468.153 136.9L467.902 136.755L0.490723 407.204L339.459 603.13L340.416 603.685L340.491 603.726L432.743 550.25L432.92 550.352L432.994 550.393L669.633 412.013L680.997 405.365L717.451 384.047L728.797 377.416L930.152 259.667L930.737 259.323L916.662 251.163Z" fill="#EEEEFF"/>
<path d="M450.152 481.402L449.372 497.891L851.135 288.265L851.915 271.775L450.152 481.402Z" fill="#5D567A"/>
<path d="M187.589 313.832L186.808 330.322L449.372 497.891L450.152 481.402L187.589 313.832Z" fill="#9999B1"/>
<path d="M450.152 481.402L851.915 271.775L589.351 104.206L187.589 313.832L450.152 481.402Z" fill="#75728C"/>
<path d="M575.719 134.302L243.692 307.558L467.557 450.431L799.585 277.174L575.719 134.302Z" fill="white"/>
<path d="M473.92 398.714L345.148 319.265C342.006 317.326 337.135 316.936 334.324 318.397C331.512 319.858 331.783 322.639 334.924 324.577L463.696 404.026C466.838 405.965 471.709 406.355 474.52 404.894C477.332 403.433 477.061 400.652 473.92 398.714Z" fill="#DDDCDB"/>
<path d="M498.705 385.836L343.603 290.142C340.461 288.204 335.59 287.813 332.779 289.274C329.967 290.735 330.237 293.516 333.379 295.454L488.481 391.148C491.623 393.087 496.494 393.477 499.305 392.017C502.117 390.556 501.847 387.775 498.705 385.836Z" fill="#DDDCDB"/>
<path d="M523.49 372.959L368.388 277.265C365.246 275.326 360.375 274.936 357.564 276.397C354.753 277.858 355.022 280.639 358.164 282.577L513.266 378.271C516.408 380.21 521.279 380.6 524.09 379.139C526.902 377.679 526.632 374.898 523.49 372.959Z" fill="#DDDCDB"/>
<path d="M548.277 360.082L393.175 264.387C390.033 262.449 385.162 262.058 382.351 263.519C379.539 264.98 379.809 267.761 382.951 269.699L538.053 365.393C541.195 367.331 546.066 367.722 548.878 366.261C551.689 364.801 551.418 362.02 548.277 360.082Z" fill="#DDDCDB"/>
<path d="M543.169 328.761L417.96 251.51C414.818 249.572 409.947 249.181 407.136 250.642C404.324 252.103 404.595 254.884 407.736 256.822L532.944 334.073C536.086 336.011 540.957 336.402 543.768 334.941C546.58 333.48 546.31 330.699 543.169 328.761Z" fill="#DDDCDB"/>
<path d="M618.885 323.399L490.113 243.95C486.971 242.011 482.1 241.621 479.289 243.082C476.477 244.543 476.747 247.324 479.889 249.262L608.661 328.711C611.803 330.65 616.674 331.04 619.485 329.579C622.296 328.118 622.026 325.337 618.885 323.399Z" fill="#DDDCDB"/>
<path d="M643.671 310.522L488.569 214.828C485.427 212.889 480.556 212.499 477.745 213.96C474.934 215.421 475.203 218.202 478.345 220.14L633.447 315.834C636.589 317.772 641.46 318.163 644.271 316.702C647.083 315.241 646.813 312.46 643.671 310.522Z" fill="#DDDCDB"/>
<path d="M668.457 297.645L513.355 201.951C510.213 200.013 505.342 199.622 502.531 201.083C499.719 202.544 499.989 205.325 503.131 207.263L658.233 302.957C661.375 304.896 666.246 305.286 669.057 303.825C671.869 302.364 671.599 299.583 668.457 297.645Z" fill="#DDDCDB"/>
<path d="M602.725 249.358L705.743 272.979L642.12 189.776L602.725 249.358Z" fill="#BABAD6"/>
<path d="M644.167 201.525C644.468 195.187 643.019 190.233 640.303 186.847C639.38 185.718 638.336 184.799 637.18 184.039L430.599 53.9409C435.233 56.9839 437.931 63.0289 437.588 71.4269C437.542 72.4019 437.44 73.3749 437.285 74.3439C437.27 74.6689 437.201 74.9909 437.186 75.3159C437.047 75.9609 436.964 76.5539 436.825 77.1989C436.737 77.9009 436.541 78.5969 436.4 79.2959C436.268 79.7789 436.137 80.2609 436.005 80.7429C435.873 81.2249 435.746 81.6539 435.614 82.1359C435.423 82.7239 435.229 83.3669 435.036 84.0089C434.912 84.3289 434.786 84.7029 434.659 85.0769C434.355 85.7679 434.104 86.4619 433.801 87.1529C433.677 87.4729 433.61 87.7409 433.486 88.0609C433.06 89.0179 432.636 89.9749 432.156 90.9289C432.097 91.0349 432.037 91.1399 431.978 91.2459C431.557 92.0949 431.082 92.9409 430.609 93.7869C430.488 94.0529 430.312 94.3159 430.193 94.5269C429.721 95.3189 429.25 96.1109 428.777 96.9029C428.661 97.0609 428.599 97.2199 428.485 97.3239C427.901 98.2189 427.314 99.1139 426.675 100.007C426.501 100.27 426.328 100.479 426.152 100.742C425.687 101.371 425.223 102.001 424.708 102.574C424.476 102.889 424.187 103.255 423.954 103.57C423.498 104.037 423.093 104.561 422.636 105.028C422.292 105.446 421.946 105.864 421.546 106.279C421.203 106.643 420.861 107.007 420.463 107.368C419.89 107.992 419.267 108.56 418.585 109.179C418.242 109.543 417.845 109.904 417.448 110.265C417.11 110.52 416.826 110.778 416.489 111.034C415.978 111.498 415.469 111.909 414.911 112.262C414.627 112.52 414.289 112.775 413.953 112.977C413.389 113.439 412.829 113.792 412.213 114.197C411.934 114.346 411.653 114.55 411.371 114.754C410.533 115.257 409.64 115.758 408.751 116.204C407.916 116.653 407.082 117.048 406.252 117.388C406.03 117.486 405.865 117.533 405.643 117.631C405.146 117.824 404.705 117.966 404.263 118.108C403.658 118.297 402.997 118.482 402.391 118.671C401.952 118.759 401.568 118.849 401.184 118.939C400.799 119.029 400.417 119.066 400.089 119.104C399.597 119.189 399.107 119.22 398.672 119.254C398.398 119.295 398.127 119.282 397.854 119.324C397.255 119.35 396.66 119.321 396.12 119.242C396.011 119.237 395.848 119.283 395.742 119.224C395.037 119.191 394.393 119.051 393.802 118.915C393.642 118.853 393.482 118.791 393.319 118.784C392.837 118.653 392.357 118.467 391.877 118.281C391.718 118.219 391.558 118.157 391.452 118.098C390.812 117.851 390.284 117.554 389.703 117.201L596.337 247.301C596.337 247.301 596.389 247.358 596.443 247.36C596.864 247.651 597.287 247.889 597.766 248.074C597.872 248.133 597.926 248.136 598.032 248.195C598.192 248.257 598.298 248.316 598.458 248.378C598.671 248.442 598.937 248.564 599.151 248.628C599.417 248.749 599.631 248.814 599.9 248.881C600.063 248.889 600.222 248.95 600.382 249.013C600.436 249.016 600.545 249.021 600.65 249.08C601.136 249.157 601.671 249.291 602.213 249.317C602.267 249.32 602.321 249.322 602.321 249.322L602.699 249.34C603.13 249.415 603.564 249.435 603.998 249.456C604.162 249.409 604.27 249.415 604.433 249.422C604.707 249.381 604.978 249.394 605.251 249.352C605.468 249.362 605.738 249.375 606.011 249.334C606.23 249.29 606.45 249.246 606.669 249.202C607.05 249.166 607.378 249.127 607.762 249.037C607.981 248.993 608.143 249.001 608.362 248.957C608.581 248.913 608.749 248.812 608.969 248.769C609.576 248.58 610.235 248.395 610.895 248.209C611.117 248.111 611.336 248.067 611.556 248.023C611.778 247.925 612 247.827 612.222 247.729C612.444 247.631 612.662 247.587 612.884 247.489C613.715 247.148 614.548 246.753 615.383 246.304C616.274 245.858 617.111 245.355 618.007 244.8C618.284 244.65 618.566 244.446 618.845 244.297C619.408 243.889 619.969 243.482 620.586 243.077C620.866 242.873 621.204 242.618 621.488 242.36C622.05 241.952 622.558 241.542 623.066 241.132C623.404 240.877 623.687 240.619 624.025 240.363C624.198 240.154 624.422 240.002 624.593 239.847C624.82 239.641 624.992 239.432 625.216 239.279C625.843 238.657 626.468 238.09 627.094 237.468C627.267 237.259 627.494 237.053 627.664 236.898C627.836 236.689 628.006 236.534 628.125 236.323C628.523 235.962 628.868 235.544 629.267 235.129C629.497 234.868 629.726 234.608 629.956 234.347C630.129 234.138 630.359 233.877 630.532 233.669C630.764 233.354 631.052 232.988 631.338 232.676C631.511 232.467 631.684 232.258 631.859 231.995C632.147 231.629 632.439 231.209 632.727 230.842C632.903 230.579 633.076 230.37 633.251 230.107C633.365 230.004 633.424 229.898 633.482 229.792C634.006 229.057 634.53 228.321 635 227.584C635.003 227.53 635.058 227.478 635.116 227.427C635.177 227.267 635.29 227.164 635.352 227.004C635.703 226.478 636.054 225.952 636.351 225.423C636.525 225.16 636.646 224.894 636.768 224.629C636.944 224.366 637.062 224.154 637.238 223.891C637.359 223.625 637.478 223.414 637.597 223.202C637.953 222.568 638.251 221.985 638.553 221.347C638.612 221.241 638.672 221.135 638.731 221.03C638.734 220.976 638.79 220.924 638.79 220.924C639.154 220.127 639.516 219.33 639.878 218.587C639.94 218.427 640.002 218.267 640.061 218.161C640.185 217.841 640.306 217.576 640.43 217.256C640.556 216.882 640.737 216.51 640.919 216.085C641.043 215.765 641.111 215.497 641.234 215.177C641.36 214.803 641.487 214.429 641.611 214.109C641.678 213.841 641.797 213.629 641.861 213.415C641.99 212.987 642.116 212.613 642.191 212.182C642.374 211.756 642.502 211.328 642.633 210.846C642.641 210.684 642.704 210.524 642.765 210.364C642.835 210.041 642.904 209.719 642.974 209.396C643.116 208.697 643.312 208.001 643.453 207.302C643.463 207.085 643.525 206.925 643.59 206.711C643.665 206.28 643.685 205.847 643.76 205.416C643.829 205.094 643.845 204.769 643.915 204.446C644.021 203.472 644.121 202.499 644.167 201.525Z" fill="#7C7CD6"/>
<path d="M408.779 116.228C393.642 124.036 381.992 116.625 382.747 99.6928C383.502 82.7608 396.377 62.7168 411.513 54.9098C426.649 47.1018 438.317 54.4868 437.562 71.4188C436.807 88.3508 423.916 108.421 408.779 116.228Z" fill="#EAA211"/>
<path d="M638.736 221.028L431.978 91.2476L421.547 106.279L629.271 235.128C629.501 234.867 629.73 234.607 629.96 234.346C630.133 234.137 630.363 233.876 630.536 233.668C630.768 233.353 631.056 232.987 631.342 232.675C631.515 232.466 631.688 232.257 631.863 231.994C632.151 231.628 632.443 231.208 632.731 230.841C632.907 230.578 633.08 230.369 633.255 230.106C633.369 230.003 633.428 229.897 633.486 229.791C634.01 229.056 634.534 228.32 635.004 227.583C635.007 227.529 635.062 227.477 635.12 227.426C635.181 227.266 635.294 227.163 635.356 227.003C635.707 226.477 636.058 225.951 636.355 225.422C636.529 225.159 636.65 224.893 636.772 224.628C636.948 224.365 637.066 224.153 637.242 223.89C637.363 223.624 637.482 223.413 637.601 223.201C637.957 222.567 638.255 221.984 638.557 221.346C638.617 221.239 638.677 221.133 638.736 221.028Z" fill="#BABAD6"/>
<path d="M670.05 264.795C670.05 264.795 689.707 260.025 682.621 242.742L705.742 272.979L670.05 264.795Z" fill="#60587F"/>
<path d="M411.117 58.7979C411.025 59.4289 410.918 60.0619 410.796 60.6979C410.661 61.3989 410.5 62.1029 410.33 62.8079C410.214 63.2899 410.106 63.7719 409.975 64.2539C409.852 64.7029 409.713 65.1519 409.576 65.6009C409.386 66.2279 409.193 66.8549 408.978 67.4809C408.854 67.8429 408.722 68.2039 408.59 68.5659C408.332 69.2679 408.06 69.9689 407.772 70.6669C407.653 70.9559 407.539 71.2449 407.414 71.5329C407 72.4969 406.564 73.4559 406.095 74.4069C406.041 74.5179 405.98 74.6259 405.925 74.7359C405.5 75.5849 405.051 76.4269 404.586 77.2609C404.44 77.5229 404.29 77.7849 404.141 78.0459C403.687 78.8339 403.217 79.6129 402.73 80.3829C402.635 80.5339 402.544 80.6869 402.448 80.8369C401.867 81.7379 401.261 82.6209 400.638 83.4909C400.457 83.7429 400.269 83.9869 400.086 84.2359C399.625 84.8599 399.154 85.4749 398.672 86.0789C398.412 86.4049 398.149 86.7279 397.883 87.0489C397.465 87.5539 397.035 88.0459 396.603 88.5339C396.242 88.9429 395.879 89.3489 395.509 89.7449C395.157 90.1209 394.797 90.4839 394.438 90.8479C393.825 91.4709 393.2 92.0749 392.567 92.6619C392.175 93.0239 391.784 93.3889 391.385 93.7359C391.073 94.0079 390.758 94.2729 390.441 94.5359C389.924 94.9649 389.4 95.3779 388.873 95.7799C388.557 96.0209 388.242 96.2629 387.922 96.4939C387.35 96.9069 386.771 97.2949 386.189 97.6739C385.91 97.8569 385.633 98.0499 385.351 98.2239C384.486 98.7589 383.614 99.2639 382.732 99.7189C381.885 100.156 381.052 100.528 380.228 100.871C380.012 100.961 379.796 101.046 379.582 101.13C379.128 101.307 378.684 101.448 378.238 101.596C377.592 101.811 376.954 102 376.326 102.155C375.923 102.255 375.521 102.354 375.126 102.43C374.754 102.502 374.387 102.561 374.023 102.612C373.543 102.679 373.068 102.731 372.602 102.762C372.332 102.78 372.062 102.799 371.797 102.804C371.213 102.817 370.641 102.801 370.083 102.756C369.955 102.746 369.822 102.748 369.695 102.735C369.021 102.665 368.369 102.546 367.736 102.393C367.579 102.355 367.427 102.306 367.272 102.263C366.776 102.124 366.293 101.96 365.825 101.77C365.678 101.71 365.527 101.655 365.382 101.59C364.789 101.324 364.215 101.026 363.673 100.676L389.722 117.193C389.769 117.224 389.817 117.254 389.864 117.284C390.285 117.548 390.721 117.788 391.173 118.002C391.256 118.042 391.346 118.069 391.431 118.107C391.576 118.172 391.727 118.228 391.874 118.288C392.102 118.38 392.323 118.486 392.557 118.566C392.805 118.651 393.065 118.709 393.32 118.78C393.475 118.823 393.627 118.872 393.785 118.911C393.871 118.932 393.951 118.963 394.038 118.982C394.558 119.098 395.093 119.186 395.64 119.247C395.673 119.251 395.709 119.249 395.743 119.253C395.87 119.266 396.003 119.264 396.131 119.275C396.551 119.309 396.97 119.344 397.404 119.346C397.548 119.346 397.701 119.326 397.846 119.323C398.111 119.317 398.379 119.299 398.649 119.281C398.902 119.264 399.145 119.268 399.402 119.241C399.621 119.218 399.853 119.161 400.075 119.13C400.438 119.079 400.804 119.021 401.175 118.949C401.376 118.91 401.568 118.896 401.771 118.851C401.968 118.808 402.178 118.723 402.378 118.674C403.005 118.518 403.642 118.33 404.288 118.115C404.516 118.039 404.732 118.001 404.961 117.918C405.183 117.838 405.41 117.736 405.634 117.649C405.847 117.566 406.062 117.481 406.277 117.391C407.102 117.048 407.933 116.676 408.782 116.239C409.664 115.784 410.537 115.279 411.401 114.744C411.683 114.57 411.96 114.377 412.24 114.194C412.821 113.814 413.4 113.427 413.972 113.014C414.292 112.783 414.607 112.541 414.924 112.299C415.451 111.897 415.973 111.485 416.491 111.056C416.807 110.794 417.121 110.529 417.434 110.257C417.628 110.088 417.828 109.932 418.021 109.76C418.226 109.576 418.417 109.367 418.62 109.179C419.254 108.593 419.875 107.99 420.488 107.368C420.683 107.17 420.889 106.993 421.082 106.792C421.244 106.622 421.396 106.438 421.557 106.267C421.928 105.869 422.293 105.462 422.655 105.051C422.892 104.783 423.14 104.53 423.372 104.257C423.563 104.033 423.743 103.796 423.932 103.569C424.198 103.248 424.461 102.925 424.722 102.598C424.9 102.374 425.088 102.159 425.264 101.932C425.561 101.549 425.843 101.151 426.132 100.76C426.317 100.509 426.507 100.262 426.689 100.007C426.764 99.9019 426.844 99.8019 426.919 99.6969C427.429 98.9769 427.924 98.2449 428.405 97.5039C428.437 97.4539 428.467 97.4029 428.499 97.3529C428.593 97.2059 428.682 97.0549 428.775 96.9079C429.11 96.3799 429.445 95.8519 429.764 95.3149C429.912 95.0669 430.047 94.8129 430.191 94.5629C430.34 94.3029 430.488 94.0429 430.634 93.7819C430.762 93.5529 430.897 93.3289 431.022 93.0989C431.351 92.4919 431.663 91.8779 431.97 91.2629C432.027 91.1489 432.09 91.0369 432.145 90.9229C432.16 90.8919 432.177 90.8629 432.192 90.8319C432.574 90.0539 432.939 89.2709 433.285 88.4829C433.348 88.3399 433.402 88.1949 433.463 88.0509C433.587 87.7639 433.702 87.4759 433.82 87.1869C433.982 86.7929 434.155 86.4009 434.308 86.0059C434.427 85.6989 434.525 85.3899 434.638 85.0829C434.771 84.7219 434.901 84.3619 435.026 83.9999C435.103 83.7749 435.193 83.5509 435.267 83.3259C435.399 82.9229 435.503 82.5209 435.624 82.1179C435.759 81.6689 435.899 81.2219 436.023 80.7729C436.066 80.6149 436.121 80.4579 436.163 80.2999C436.248 79.9729 436.3 79.6499 436.378 79.3239C436.548 78.6199 436.709 77.9179 436.844 77.2179C436.881 77.0229 436.939 76.8259 436.974 76.6309C437.053 76.1879 437.103 75.7499 437.167 75.3089C437.212 74.9959 437.266 74.6829 437.304 74.3719C437.425 73.3829 437.518 72.3989 437.562 71.4279C437.843 65.1229 436.401 60.1419 433.699 56.7759C432.799 55.6539 431.758 54.7119 430.595 53.9589L404.546 37.4429C409.2 40.4509 411.888 46.5039 411.513 54.9119C411.47 55.8819 411.377 56.8649 411.256 57.8529C411.217 58.1659 411.163 58.4819 411.117 58.7979Z" fill="#F9BB41"/>
<path d="M382.73 99.72C367.593 107.528 355.943 100.117 356.698 83.185C357.453 66.253 370.328 46.209 385.464 38.402C400.6 30.594 412.268 37.979 411.513 54.91C410.758 71.842 397.866 91.912 382.73 99.72Z" fill="#EAA211"/>
<path d="M356.79 24.374C356.698 25.005 356.591 25.638 356.469 26.274C356.334 26.975 356.173 27.679 356.003 28.384C355.887 28.866 355.779 29.347 355.647 29.83C355.525 30.279 355.385 30.728 355.248 31.177C355.058 31.804 354.865 32.4311 354.65 33.0571C354.526 33.4191 354.394 33.78 354.262 34.142C354.004 34.844 353.732 35.545 353.444 36.243C353.325 36.532 353.211 36.821 353.086 37.109C352.671 38.073 352.236 39.032 351.767 39.983C351.713 40.094 351.652 40.202 351.597 40.312C351.172 41.162 350.723 42.0031 350.258 42.8371C350.112 43.1001 349.962 43.361 349.812 43.622C349.358 44.41 348.888 45.189 348.401 45.959C348.306 46.11 348.215 46.263 348.119 46.413C347.538 47.313 346.932 48.197 346.309 49.067C346.128 49.319 345.94 49.564 345.757 49.812C345.296 50.436 344.825 51.051 344.343 51.655C344.083 51.981 343.82 52.304 343.554 52.625C343.136 53.13 342.706 53.622 342.274 54.11C341.913 54.519 341.55 54.925 341.18 55.321C340.829 55.697 340.468 56.06 340.109 56.424C339.496 57.047 338.871 57.6511 338.237 58.2381C337.845 58.6011 337.454 58.965 337.055 59.312C336.743 59.584 336.428 59.85 336.111 60.112C335.594 60.541 335.071 60.954 334.543 61.355C334.227 61.596 333.912 61.8391 333.592 62.0701C333.02 62.4831 332.441 62.871 331.859 63.25C331.58 63.433 331.303 63.626 331.021 63.8C330.156 64.335 329.284 64.84 328.402 65.295C327.554 65.732 326.722 66.1041 325.898 66.4471C325.682 66.5371 325.466 66.622 325.252 66.706C324.798 66.883 324.354 67.023 323.908 67.172C323.262 67.387 322.624 67.575 321.996 67.731C321.593 67.831 321.191 67.93 320.795 68.006C320.423 68.078 320.056 68.137 319.692 68.188C319.212 68.255 318.737 68.307 318.271 68.338C318.001 68.356 317.731 68.3741 317.466 68.3801C316.882 68.3931 316.31 68.377 315.752 68.332C315.624 68.322 315.491 68.324 315.365 68.31C314.69 68.24 314.039 68.122 313.407 67.968C313.249 67.93 313.098 67.881 312.943 67.838C312.447 67.699 311.964 67.535 311.496 67.345C311.348 67.285 311.198 67.23 311.053 67.165C310.46 66.898 309.886 66.6011 309.344 66.2511L363.499 100.675C363.546 100.706 363.594 100.736 363.641 100.766C364.062 101.03 364.499 101.269 364.95 101.484C365.033 101.524 365.123 101.551 365.208 101.589C365.353 101.654 365.504 101.709 365.651 101.77C365.879 101.862 366.1 101.968 366.334 102.048C366.581 102.133 366.842 102.191 367.097 102.262C367.252 102.305 367.404 102.354 367.562 102.393C367.648 102.414 367.728 102.445 367.815 102.464C368.335 102.58 368.87 102.668 369.417 102.729C369.45 102.733 369.486 102.731 369.52 102.735C369.647 102.748 369.78 102.747 369.908 102.757C370.328 102.791 370.747 102.827 371.181 102.828C371.325 102.828 371.478 102.808 371.623 102.805C371.887 102.799 372.156 102.781 372.425 102.763C372.678 102.746 372.921 102.75 373.178 102.723C373.397 102.7 373.629 102.643 373.851 102.612C374.214 102.561 374.58 102.503 374.951 102.431C375.152 102.392 375.344 102.378 375.547 102.333C375.744 102.289 375.954 102.205 376.154 102.156C376.781 102 377.418 101.812 378.064 101.597C378.292 101.521 378.508 101.483 378.737 101.4C378.959 101.32 379.186 101.218 379.41 101.131C379.623 101.048 379.838 100.963 380.053 100.873C380.878 100.53 381.71 100.158 382.558 99.721C383.44 99.266 384.313 98.761 385.177 98.226C385.459 98.052 385.736 97.858 386.016 97.676C386.598 97.296 387.176 96.909 387.748 96.496C388.068 96.265 388.384 96.0231 388.701 95.7811C389.228 95.3791 389.75 94.967 390.268 94.538C390.584 94.276 390.898 94.011 391.211 93.739C391.405 93.57 391.605 93.4141 391.798 93.2421C392.003 93.0581 392.195 92.849 392.397 92.661C393.031 92.075 393.653 91.4721 394.265 90.8501C394.46 90.6521 394.666 90.475 394.859 90.274C395.021 90.104 395.173 89.92 395.334 89.749C395.705 89.351 396.07 88.944 396.432 88.534C396.67 88.266 396.917 88.0131 397.149 87.7401C397.34 87.5161 397.521 87.279 397.709 87.052C397.975 86.731 398.238 86.408 398.499 86.081C398.677 85.857 398.865 85.642 399.041 85.415C399.338 85.032 399.62 84.634 399.909 84.243C400.095 83.992 400.284 83.7451 400.466 83.4901C400.541 83.3851 400.621 83.285 400.696 83.18C401.206 82.46 401.701 81.728 402.183 80.987C402.215 80.937 402.245 80.886 402.277 80.836C402.371 80.689 402.46 80.5381 402.553 80.3911C402.888 79.8631 403.223 79.335 403.542 78.798C403.69 78.55 403.825 78.2961 403.969 78.0461C404.118 77.7861 404.267 77.526 404.412 77.265C404.54 77.037 404.675 76.812 404.8 76.582C405.129 75.975 405.441 75.361 405.748 74.746C405.805 74.632 405.868 74.5201 405.924 74.4061C405.939 74.3751 405.956 74.346 405.971 74.315C406.353 73.537 406.717 72.754 407.064 71.966C407.127 71.823 407.181 71.678 407.242 71.534C407.366 71.247 407.481 70.959 407.599 70.67C407.761 70.276 407.934 69.884 408.087 69.489C408.206 69.182 408.304 68.873 408.417 68.566C408.55 68.205 408.681 67.845 408.805 67.483C408.882 67.258 408.972 67.0341 409.046 66.8091C409.178 66.4061 409.282 66.004 409.403 65.601C409.539 65.152 409.678 64.705 409.802 64.256C409.845 64.099 409.9 63.9411 409.942 63.7831C410.028 63.4571 410.079 63.1331 410.157 62.8071C410.327 62.1031 410.488 61.401 410.623 60.701C410.66 60.506 410.718 60.309 410.753 60.114C410.832 59.671 410.882 59.2331 410.946 58.7921C410.991 58.4791 411.045 58.166 411.083 57.855C411.204 56.866 411.297 55.882 411.341 54.911C411.622 48.606 410.181 43.625 407.478 40.259C406.578 39.137 405.537 38.195 404.373 37.443L350.218 3.01904C354.872 6.02704 357.559 12.0811 357.185 20.4881C357.142 21.4581 357.049 22.441 356.927 23.429C356.89 23.742 356.836 24.058 356.79 24.374Z" fill="#F07554"/>
<path d="M328.403 65.2959C313.266 73.1029 301.616 65.6928 302.371 48.7608C303.126 31.8288 316.001 11.7858 331.137 3.97784C346.274 -3.83016 357.941 3.55384 357.186 20.4858C356.432 37.4178 343.54 57.4879 328.403 65.2959Z" fill="#D8563D"/>
<path d="M696.169 186.892C696.606 190.922 699.204 195.084 704.053 198.736C715.558 207.395 735.419 209.949 748.803 204.569C749.041 204.479 749.256 204.387 749.481 204.292C756.255 201.393 759.949 196.948 760.444 192.126L760.507 192.1V179.938L756.916 182.083C755.745 180.658 754.304 179.274 752.553 177.955C740.853 169.147 720.509 166.655 707.112 172.393C703.851 173.79 701.309 175.547 699.488 177.53L696.169 174.587V184.41C696.074 185.229 696.079 186.058 696.169 186.892ZM746.523 188.293L744.492 189.506L733.628 191.395C733.628 191.395 723.574 191.987 723.088 191.395C722.602 190.803 711.899 186.101 711.413 185.939C711.286 185.897 710.771 185.621 710.084 185.24C710.705 182.849 712.752 180.687 716.18 179.219C723.845 175.936 735.484 177.362 742.178 182.401C743.294 183.242 744.201 184.127 744.906 185.041C745.727 186.106 746.257 187.202 746.523 188.293Z" fill="#5454AE"/>
<path d="M747.783 189.155C747.574 188.424 747.243 187.699 746.795 186.989C746.795 186.989 746.772 186.954 746.761 186.936C746.309 186.231 745.741 185.543 745.052 184.882C745.043 184.873 745.033 184.863 745.023 184.854C744.32 184.183 743.497 183.538 742.549 182.933C741.607 182.332 740.588 181.799 739.512 181.331C739.486 181.32 739.459 181.309 739.433 181.297C738.367 180.837 737.245 180.442 736.084 180.112C736.063 180.107 736.042 180.1 736.022 180.095C733.673 179.434 731.168 179.044 728.651 178.928C728.593 178.925 728.534 178.924 728.475 178.922C727.243 178.871 726.009 178.881 724.79 178.962C724.773 178.963 724.757 178.965 724.741 178.966C723.497 179.051 722.269 179.205 721.075 179.429C721.056 179.433 721.038 179.437 721.018 179.44C719.821 179.667 718.657 179.965 717.546 180.335C717.542 180.336 717.539 180.337 717.535 180.338C716.414 180.712 715.347 181.158 714.352 181.678C713.381 182.187 712.53 182.743 711.788 183.335C711.766 183.353 711.744 183.371 711.722 183.389C710.996 183.977 710.379 184.6 709.878 185.249C709.87 185.26 709.86 185.27 709.852 185.28C709.433 185.828 709.143 186.401 708.885 186.98C708.8 187.17 708.703 187.358 708.635 187.551C708.409 188.195 708.249 188.849 708.218 189.51L708.849 176.159C708.88 175.498 709.04 174.845 709.267 174.201C709.335 174.008 709.431 173.821 709.517 173.63C709.628 173.381 709.703 173.127 709.843 172.883C710.023 172.572 710.227 172.265 710.455 171.965C710.464 171.952 710.475 171.941 710.484 171.93C710.492 171.919 710.502 171.909 710.51 171.899C710.667 171.696 710.831 171.493 711.011 171.296C711.182 171.106 711.364 170.919 711.556 170.734C711.732 170.565 711.916 170.399 712.109 170.236C712.188 170.169 712.272 170.104 712.354 170.039C712.376 170.021 712.397 170.003 712.42 169.986C712.499 169.922 712.576 169.858 712.658 169.795C712.835 169.66 713.019 169.526 713.209 169.395C713.393 169.268 713.584 169.143 713.78 169.02C713.965 168.904 714.156 168.79 714.351 168.677C714.545 168.566 714.744 168.456 714.949 168.349C714.961 168.343 714.973 168.337 714.985 168.33C715.173 168.231 715.364 168.136 715.557 168.043C715.762 167.943 715.97 167.848 716.181 167.755C716.391 167.662 716.603 167.572 716.818 167.485C717.033 167.398 717.25 167.314 717.47 167.234C717.694 167.152 717.92 167.072 718.148 166.995C718.155 166.993 718.163 166.991 718.17 166.989C718.172 166.988 718.174 166.988 718.174 166.988C718.395 166.914 718.618 166.843 718.842 166.775C719.081 166.702 719.323 166.633 719.567 166.568C719.811 166.501 720.057 166.438 720.305 166.379C720.556 166.319 720.808 166.261 721.063 166.207C721.258 166.165 721.456 166.128 721.654 166.091C721.671 166.087 721.689 166.084 721.706 166.08C721.747 166.072 721.787 166.064 721.827 166.056C722.079 166.01 722.331 165.967 722.585 165.927C722.835 165.887 723.088 165.851 723.34 165.818C723.583 165.785 723.828 165.756 724.073 165.729C724.318 165.703 724.564 165.679 724.81 165.657C724.998 165.641 725.187 165.628 725.377 165.615C725.391 165.615 725.404 165.613 725.418 165.612C725.46 165.609 725.503 165.605 725.545 165.603C725.796 165.588 726.046 165.575 726.297 165.564C726.572 165.553 726.847 165.546 727.122 165.541C727.44 165.536 727.757 165.535 728.075 165.538C728.419 165.542 728.763 165.557 729.107 165.571C729.165 165.573 729.224 165.574 729.282 165.577C729.355 165.58 729.427 165.58 729.499 165.584C730.157 165.619 730.814 165.673 731.466 165.744C731.984 165.802 732.5 165.871 733.012 165.951C733.355 166.005 733.695 166.064 734.034 166.128C734.317 166.182 734.6 166.239 734.88 166.301C735.155 166.36 735.428 166.423 735.7 166.491C735.967 166.556 736.232 166.626 736.496 166.699C736.549 166.713 736.6 166.729 736.653 166.744C736.674 166.75 736.695 166.756 736.716 166.762C736.912 166.818 737.109 166.874 737.303 166.933C737.572 167.015 737.839 167.101 738.103 167.191C738.373 167.282 738.64 167.378 738.904 167.476C739.166 167.574 739.426 167.676 739.682 167.782C739.81 167.834 739.934 167.89 740.061 167.945C740.09 167.958 740.119 167.97 740.149 167.984C740.242 168.024 740.337 168.062 740.429 168.105C740.669 168.213 740.904 168.324 741.137 168.439C741.365 168.551 741.589 168.665 741.81 168.784C742.023 168.898 742.234 169.015 742.441 169.135C742.645 169.253 742.846 169.374 743.044 169.498C743.09 169.527 743.135 169.555 743.18 169.584C743.326 169.677 743.469 169.771 743.609 169.866C743.792 169.99 743.969 170.114 744.141 170.24C744.314 170.367 744.481 170.494 744.643 170.623C744.806 170.752 744.963 170.882 745.116 171.013C745.272 171.147 745.423 171.283 745.569 171.42C745.598 171.448 745.625 171.476 745.654 171.504C745.664 171.513 745.674 171.523 745.685 171.533C745.79 171.634 745.894 171.734 745.994 171.836C746.136 171.982 746.274 172.13 746.405 172.279C746.538 172.43 746.665 172.58 746.786 172.734C746.918 172.9 747.043 173.067 747.161 173.235C747.243 173.352 747.317 173.471 747.393 173.589C747.403 173.605 747.415 173.622 747.425 173.638C747.451 173.68 747.481 173.721 747.506 173.762C747.623 173.955 747.732 174.147 747.832 174.341C747.946 174.562 748.048 174.784 748.139 175.007C748.244 175.265 748.334 175.524 748.409 175.783C748.411 175.79 748.412 175.796 748.413 175.803L748.42 175.836C748.509 176.152 748.579 176.469 748.623 176.785C748.681 177.204 748.7 177.623 748.681 178.042V178.044L748.05 191.394C748.085 190.659 747.995 189.918 747.789 189.183C747.787 189.175 747.786 189.165 747.783 189.155Z" fill="#5454AE"/>
<path d="M644.842 155.961C654.072 151.135 668.861 151.79 677.701 157.433L697.562 170.107L710.009 178.053C710.431 180.174 711.89 182.328 714.426 184.234C717.773 186.757 722.365 188.372 727.074 188.943L739.521 196.889L767.879 214.985C776.72 220.628 776.363 229.183 767.14 234.009C757.897 238.848 743.121 238.199 734.281 232.563L709.037 216.451L669.335 191.109L644.103 175.01C635.268 169.368 635.599 160.799 644.842 155.961Z" fill="#7C7CD6"/>
<path d="M704.054 188.684C713.109 195.501 727.346 198.537 739.521 196.889C742.816 196.448 745.955 195.656 748.803 194.515C749.043 194.424 749.257 194.333 749.477 194.236C760.653 189.456 763.461 180.472 757.319 172.52C756.087 170.918 754.504 169.374 752.552 167.902C740.851 159.094 720.51 156.603 707.109 162.343C702.471 164.328 699.274 167.039 697.561 170.107C694.338 175.886 696.401 182.918 704.054 188.684ZM710.009 178.053C709.315 174.583 711.416 171.204 716.177 169.167C723.844 165.885 735.48 167.306 742.174 172.345C743.29 173.188 744.198 174.07 744.905 174.985C748.421 179.538 746.812 184.682 740.416 187.413C740.286 187.471 740.17 187.523 740.033 187.575C736.271 189.086 731.614 189.501 727.074 188.944C722.365 188.373 717.773 186.758 714.426 184.235C711.89 182.327 710.43 180.174 710.009 178.053Z" fill="#7C7CD6"/>
<path d="M637.696 165.116C637.674 165.581 637.7 166.048 637.761 166.516C637.803 166.839 637.873 167.162 637.954 167.485C637.976 167.574 637.986 167.663 638.011 167.751C638.122 168.141 638.27 168.53 638.439 168.917C638.473 168.994 638.51 169.072 638.546 169.15C638.72 169.521 638.916 169.89 639.145 170.255C639.17 170.296 639.198 170.335 639.224 170.376C639.468 170.755 639.74 171.13 640.042 171.499C640.071 171.535 640.102 171.571 640.132 171.607C640.444 171.98 640.785 172.347 641.157 172.707C641.184 172.733 641.211 172.761 641.238 172.787C641.63 173.161 642.055 173.528 642.512 173.886C642.54 173.908 642.571 173.931 642.6 173.953C643.069 174.315 643.567 174.669 644.103 175.011L669.329 191.111L734.281 232.563C735.372 233.26 736.557 233.877 737.807 234.42C737.84 234.434 737.873 234.448 737.906 234.462C739.147 234.996 740.454 235.455 741.807 235.836C741.829 235.842 741.851 235.849 741.874 235.856C743.247 236.24 744.666 236.547 746.111 236.773C746.125 236.775 746.14 236.776 746.154 236.779C747.576 237 749.021 237.141 750.47 237.208C750.544 237.212 750.618 237.212 750.693 237.215C752.128 237.273 753.566 237.261 754.986 237.166C755.003 237.165 755.021 237.164 755.038 237.163C756.491 237.064 757.926 236.885 759.321 236.623C759.34 236.619 759.359 236.615 759.378 236.612C760.774 236.348 762.129 236.003 763.42 235.574C763.427 235.572 763.435 235.57 763.442 235.567C764.745 235.134 765.985 234.616 767.138 234.013C768.268 233.423 769.257 232.774 770.12 232.083C770.147 232.062 770.173 232.04 770.2 232.02C771.047 231.333 771.766 230.604 772.351 229.843C772.358 229.833 772.367 229.825 772.374 229.815C772.861 229.176 773.197 228.505 773.499 227.831C773.599 227.607 773.714 227.385 773.793 227.159C774.056 226.406 774.243 225.641 774.28 224.868L773.787 235.278C773.75 236.053 773.564 236.816 773.3 237.57C773.221 237.797 773.107 238.017 773.007 238.24C772.876 238.534 772.788 238.835 772.622 239.123C772.411 239.487 772.173 239.845 771.906 240.198C771.899 240.207 771.89 240.217 771.882 240.226C771.875 240.236 771.867 240.245 771.859 240.254C771.671 240.499 771.472 240.742 771.256 240.98C771.056 241.201 770.844 241.419 770.621 241.634C770.416 241.83 770.202 242.024 769.978 242.214C769.891 242.287 769.797 242.359 769.707 242.431C769.681 242.452 769.655 242.473 769.629 242.493C769.532 242.571 769.439 242.651 769.338 242.727C769.132 242.884 768.919 243.039 768.699 243.191C768.485 243.339 768.265 243.483 768.038 243.626C767.824 243.761 767.604 243.893 767.378 244.023C767.154 244.152 766.924 244.278 766.687 244.402C766.673 244.409 766.659 244.416 766.645 244.424C766.428 244.537 766.209 244.648 765.986 244.755C765.749 244.869 765.509 244.98 765.267 245.087C765.024 245.195 764.778 245.298 764.53 245.399C764.281 245.499 764.03 245.596 763.775 245.69C763.515 245.785 763.253 245.878 762.988 245.966C762.975 245.971 762.961 245.975 762.947 245.979C762.942 245.981 762.936 245.982 762.93 245.984C762.683 246.066 762.434 246.146 762.183 246.222C761.905 246.307 761.624 246.387 761.34 246.463C761.056 246.54 760.77 246.613 760.481 246.683C760.189 246.754 759.894 246.821 759.597 246.884C759.359 246.933 759.121 246.98 758.881 247.026C758.864 247.029 758.847 247.033 758.829 247.035C758.787 247.043 758.746 247.052 758.704 247.06C758.41 247.113 758.115 247.164 757.818 247.211C757.525 247.257 757.23 247.299 756.934 247.339C756.649 247.376 756.362 247.411 756.075 247.442C755.788 247.473 755.501 247.501 755.212 247.526C754.989 247.545 754.765 247.56 754.541 247.575C754.525 247.576 754.509 247.578 754.493 247.579C754.445 247.582 754.397 247.587 754.349 247.589C754.056 247.608 753.761 247.623 753.467 247.635C753.146 247.648 752.824 247.657 752.502 247.663C752.13 247.669 751.758 247.67 751.386 247.665C750.989 247.661 750.592 247.643 750.194 247.627C750.121 247.624 750.05 247.624 749.977 247.62C749.888 247.616 749.798 247.616 749.708 247.611C748.939 247.571 748.171 247.508 747.407 247.424C746.82 247.36 746.235 247.28 745.654 247.19C745.642 247.188 745.629 247.187 745.618 247.185C745.608 247.184 745.597 247.183 745.587 247.181C745.186 247.117 744.788 247.048 744.391 246.973C744.059 246.91 743.729 246.843 743.401 246.771C743.081 246.701 742.762 246.627 742.447 246.55C742.135 246.473 741.826 246.392 741.519 246.308C741.471 246.295 741.424 246.28 741.377 246.267C741.356 246.26 741.335 246.254 741.313 246.248C741.068 246.179 740.822 246.109 740.58 246.035C740.267 245.939 739.957 245.839 739.65 245.735C739.337 245.629 739.028 245.519 738.721 245.404C738.417 245.29 738.117 245.172 737.821 245.051C737.682 244.994 737.547 244.933 737.41 244.874C737.377 244.86 737.343 244.845 737.31 244.831C737.192 244.78 737.072 244.731 736.955 244.678C736.679 244.554 736.407 244.426 736.138 244.293C735.875 244.164 735.616 244.031 735.361 243.895C735.115 243.764 734.873 243.629 734.635 243.491C734.4 243.355 734.169 243.216 733.941 243.073C733.889 243.04 733.836 243.007 733.784 242.974L712.64 229.48L643.606 185.422C643.437 185.314 643.272 185.205 643.109 185.095C642.898 184.952 642.693 184.807 642.493 184.661C642.358 184.562 642.228 184.461 642.099 184.36C642.071 184.338 642.043 184.318 642.016 184.297C641.982 184.27 641.945 184.244 641.911 184.217C641.723 184.068 641.54 183.916 641.363 183.764C641.182 183.608 641.006 183.45 640.837 183.292C640.803 183.26 640.773 183.228 640.74 183.196C640.713 183.17 640.688 183.144 640.661 183.118C640.554 183.014 640.445 182.911 640.343 182.806C640.177 182.636 640.017 182.464 639.864 182.29C639.784 182.199 639.71 182.107 639.634 182.016C639.605 181.981 639.575 181.946 639.546 181.911C639.505 181.86 639.46 181.811 639.419 181.76C639.265 181.566 639.119 181.371 638.981 181.175C638.89 181.046 638.809 180.916 638.726 180.786C638.7 180.746 638.672 180.706 638.647 180.666C638.624 180.63 638.598 180.595 638.576 180.559C638.438 180.333 638.311 180.107 638.194 179.879C638.139 179.773 638.097 179.666 638.047 179.559C638.011 179.483 637.975 179.407 637.941 179.329C637.907 179.252 637.866 179.176 637.835 179.098C637.712 178.795 637.606 178.491 637.518 178.187L637.513 178.163C637.487 178.074 637.478 177.985 637.456 177.897C637.381 177.601 637.307 177.305 637.266 177.009C637.262 176.982 637.266 176.954 637.262 176.926C637.202 176.459 637.176 175.992 637.198 175.527L637.696 165.116Z" fill="#5454AE"/>
<path d="M653.913 205.433H653.904L653.912 205.252C653.91 205.311 653.914 205.372 653.913 205.433Z" fill="#5454AE"/>
<path d="M264.057 480.091C219.999 511.038 308.305 558.616 347.259 532.279C386.213 505.943 295.082 458.299 264.057 480.091Z" fill="#CACAE0"/>
<path d="M277.977 487.925C277.977 487.925 299.233 480.655 301.953 487.993C304.673 495.33 282.234 504.354 277.339 503.692C272.445 503.03 269.802 501.521 270.922 496.954C272.042 492.387 276.88 486.257 276.88 486.257L277.977 487.925Z" fill="black"/>
<path d="M302.534 435.078C302.534 435.078 303.807 424.683 314.905 425.155C326.003 425.627 324.79 440.996 321.238 468.83C317.686 496.664 317.89 509.273 314.814 515.369C312.677 519.603 304.716 518.494 304.307 513.747C303.898 509 301.893 440.622 302.534 435.078Z" fill="#422B9F"/>
<path d="M304.33 509.856C304.33 509.856 311.096 514.327 316.748 507.24C316.748 507.24 322.499 509.35 329.25 510.926C334.975 512.263 341.773 512.732 342.691 516.279C344.693 524.007 310.631 525.5 306.447 524.32C302.263 523.141 304.33 509.856 304.33 509.856Z" fill="black"/>
<path d="M295.969 371.078C295.969 371.078 302.532 423.958 302.185 433.243C301.838 442.528 305.979 452.08 318.261 448.14C325.894 445.691 324.275 434.161 325.085 422.326C325.894 410.49 329.017 365.392 329.017 365.392C329.017 365.392 300.48 343.428 295.969 371.078Z" fill="#422B9F"/>
<path d="M270.245 414.91C270.245 414.91 271.518 404.515 282.616 404.987C293.714 405.459 292.5 420.828 288.948 448.662C285.396 476.496 285.602 489.105 282.526 495.201C280.389 499.436 272.428 498.326 272.019 493.579C271.609 488.833 269.604 420.455 270.245 414.91Z" fill="#422B9F"/>
<path d="M263.68 350.911C263.68 350.911 270.243 403.792 269.896 413.076C269.549 422.361 273.69 431.913 285.972 427.973C293.605 425.524 291.986 413.995 292.796 402.159C293.606 390.323 296.728 345.225 296.728 345.225C296.728 345.225 268.191 323.26 263.68 350.911Z" fill="#422B9F"/>
<path d="M282.75 259.947V272.543C288.419 278.978 295.939 276.875 299.156 275.536V259.947H282.75Z" fill="#FD5C54"/>
<path d="M299.959 233.2C290.075 234.12 282.865 243.484 283.855 254.114C284.845 264.745 293.659 272.617 303.543 271.697C313.427 270.777 320.637 261.413 319.647 250.782C318.657 240.152 309.843 232.28 299.959 233.2Z" fill="#FD5C54"/>
<path d="M308.153 246.974C308.153 246.974 317.052 253.269 322.845 250.056C327.484 247.483 330.673 239.561 328.543 232.789C326.222 225.409 326.82 237.804 318.963 229.68C297.364 207.347 275.442 229.885 277.122 249.164C278.117 260.583 289.169 266.104 300.153 262.27C303.837 260.985 309.611 255.236 308.153 246.974Z" fill="#422B9F"/>
<path d="M273.313 274.682C273.313 274.682 265.877 272.649 258.493 285.707C251.109 298.765 241.754 330.465 245.763 338.79C249.772 347.115 263.372 347.2 268.017 331.268C272.662 315.337 282.186 290.73 279.989 283.082C277.793 275.435 273.313 274.682 273.313 274.682Z" fill="#6E59D3"/>
<path d="M260.122 308.563C261.407 340.059 260.966 357.865 263.082 361.144C265.198 364.424 284.929 391.133 329.72 370.974C329.72 370.974 329.085 355.958 327.63 340.252C325.918 321.773 322.244 301.229 322.024 295.652C321.618 285.334 313.211 279.226 313.211 279.226C309.974 277.711 305.392 276.456 300.025 275.145C297.038 274.417 293.808 273.67 290.43 272.851C288.263 272.325 285.319 271.875 282.134 271.799C276.385 271.66 269.846 272.744 265.664 276.822C260.001 282.348 259.522 293.895 260.122 308.563Z" fill="#B7E6FF"/>
<path d="M305.705 280.261C305.705 280.261 299.71 285.108 305.993 298.73C312.275 312.352 332.535 338.467 341.633 340.078C350.732 341.689 358.747 330.702 348.532 317.623C338.317 304.544 323.913 282.438 316.423 279.752C308.934 277.064 305.705 280.261 305.705 280.261Z" fill="#6E59D3"/>
<path d="M345.66 319.522C345.66 319.522 370.884 326.729 383.081 331.542C395.278 336.355 396.465 337.822 395.134 342.892C393.803 347.961 379.902 344.995 370.392 344.009C360.881 343.023 338.981 342.731 335.44 334.023C331.899 325.315 339.594 318.169 345.66 319.522Z" fill="#6E59D3"/>
<path d="M393.013 335.895C390.229 335.985 387.278 343.102 390.628 346.229C393.978 349.356 410.539 355.998 413.522 354.263C416.504 352.528 414.544 343.982 402.544 339.177C402.544 339.177 410.184 339.733 408.592 336.382C407.822 334.764 401.878 335.607 393.013 335.895Z" fill="#FD5C54"/>
<path d="M303.579 252.114C305.815 253.255 306.13 257.117 304.281 260.742C302.432 264.366 299.121 266.38 296.885 265.239C294.649 264.098 294.334 260.236 296.183 256.611C298.031 252.987 301.342 250.974 303.579 252.114Z" fill="#FD5C54"/>
<path d="M282.135 271.8C282.338 272.06 282.542 272.307 282.75 272.543C288.419 278.978 295.939 276.875 299.156 275.536C299.497 275.394 299.789 275.26 300.025 275.146C297.038 274.418 293.808 273.671 290.43 272.852C288.264 272.327 285.32 271.876 282.135 271.8Z" fill="#FD5C54"/>
</svg>
