<svg width="853" height="778" viewBox="0 0 853 778" fill="none" xmlns="http://www.w3.org/2000/svg">
<path d="M702.38 352.065L709.866 121.613L852.845 205.656V431.321L839.283 440.018L702.38 352.065Z" fill="#7C7CD6"/>
<path d="M696.304 355.974V130.311L839.283 214.353V440.018L696.304 355.974Z" fill="#EEEEFF"/>
<path d="M709.866 121.613L696.304 130.311L839.283 214.353L852.845 205.656L709.866 121.613Z" fill="#B1B1E5"/>
<path d="M673.08 367.698V142.035L816.059 226.077V451.742L809.982 455.65L673.08 367.698Z" fill="#7C7CD6"/>
<path d="M667.003 371.607V145.943L809.982 229.986V455.65L667.003 371.607Z" fill="#EEEEFF"/>
<path d="M803.172 443.747L803.171 233.882L673.814 157.846V367.711L803.172 443.747Z" fill="white"/>
<path d="M681.843 194.917L795.142 261.514V265.643L681.843 199.046V194.917Z" fill="#EEEEFF"/>
<path d="M681.844 336.229L795.142 402.826V406.954L681.844 340.358V336.229Z" fill="#EEEEFF"/>
<path d="M740.088 301.678V248.111L682.414 214.21V267.778L740.088 301.678Z" fill="#C6C6ED"/>
<path d="M788.781 284.711L752.883 263.383C751.54 262.586 750.442 260.834 750.442 259.492C750.442 258.15 751.54 257.704 752.883 258.501L788.781 279.829C790.124 280.627 791.222 282.377 791.222 283.72C791.221 285.063 790.123 285.508 788.781 284.711Z" fill="#C6C6ED"/>
<path d="M788.781 297.021L752.883 275.693C751.54 274.895 750.442 273.144 750.442 271.802C750.442 270.46 751.54 270.014 752.883 270.811L788.781 292.139C790.124 292.936 791.222 294.687 791.222 296.03C791.221 297.373 790.123 297.819 788.781 297.021Z" fill="#C6C6ED"/>
<path d="M788.781 309.331L752.882 288.003C751.54 287.206 750.441 285.455 750.441 284.112C750.441 282.77 751.539 282.324 752.882 283.121L788.78 304.449C790.123 305.247 791.221 306.997 791.221 308.34C791.221 309.683 790.123 310.129 788.781 309.331Z" fill="#C6C6ED"/>
<path d="M788.781 321.641L752.882 300.313C751.54 299.515 750.441 297.764 750.441 296.422C750.441 295.08 751.539 294.634 752.882 295.431L788.781 316.759C790.123 317.556 791.222 319.307 791.222 320.65C791.221 321.993 790.123 322.439 788.781 321.641Z" fill="#C6C6ED"/>
<path d="M720.753 314.366L684.855 293.038C683.513 292.241 682.414 290.489 682.414 289.147C682.414 287.805 683.512 287.359 684.855 288.156L720.753 309.484C722.096 310.281 723.194 312.032 723.194 313.375C723.194 314.717 722.096 315.163 720.753 314.366Z" fill="#C6C6ED"/>
<path d="M720.753 326.676L684.855 305.348C683.513 304.551 682.414 302.8 682.414 301.457C682.414 300.115 683.513 299.669 684.855 300.466L720.753 321.794C722.096 322.591 723.194 324.342 723.194 325.685C723.194 327.028 722.096 327.473 720.753 326.676Z" fill="#C6C6ED"/>
<path d="M720.753 338.986L684.855 317.658C683.513 316.861 682.414 315.11 682.414 313.767C682.414 312.425 683.513 311.979 684.855 312.776L720.753 334.104C722.095 334.901 723.194 336.652 723.194 337.995C723.194 339.338 722.096 339.784 720.753 338.986Z" fill="#C6C6ED"/>
<path d="M720.753 351.296L684.855 329.968C683.513 329.171 682.414 327.42 682.414 326.077C682.414 324.735 683.513 324.289 684.855 325.086L720.753 346.414C722.095 347.212 723.194 348.962 723.194 350.305C723.194 351.648 722.096 352.094 720.753 351.296Z" fill="#C6C6ED"/>
<path d="M782.908 351.295L747.01 329.967C745.667 329.17 744.569 327.419 744.569 326.076C744.569 324.734 745.667 324.288 747.01 325.085L782.908 346.413C784.251 347.211 785.349 348.961 785.349 350.304C785.349 351.647 784.251 352.093 782.908 351.295Z" fill="#C6C6ED"/>
<path d="M782.908 363.606L747.01 342.278C745.667 341.48 744.569 339.73 744.569 338.387C744.569 337.045 745.667 336.599 747.01 337.396L782.908 358.724C784.251 359.522 785.349 361.272 785.349 362.615C785.349 363.958 784.251 364.404 782.908 363.606Z" fill="#C6C6ED"/>
<path d="M782.908 375.916L747.01 354.588C745.667 353.79 744.569 352.04 744.569 350.697C744.569 349.355 745.667 348.909 747.01 349.706L782.908 371.034C784.251 371.832 785.349 373.582 785.349 374.925C785.349 376.268 784.251 376.714 782.908 375.916Z" fill="#C6C6ED"/>
<path d="M782.908 388.227L747.01 366.899C745.667 366.101 744.569 364.351 744.569 363.008C744.569 361.666 745.667 361.22 747.01 362.017L782.908 383.345C784.25 384.143 785.349 385.894 785.349 387.236C785.349 388.578 784.251 389.024 782.908 388.227Z" fill="#C6C6ED"/>
<path d="M749.591 397.34L713.693 376.012C712.35 375.214 711.252 373.463 711.252 372.121C711.252 370.778 712.35 370.333 713.693 371.13L749.591 392.458C750.934 393.256 752.032 395.006 752.032 396.349C752.031 397.691 750.933 398.137 749.591 397.34Z" fill="#C6C6ED"/>
<path d="M769.656 236.965L707.328 199.934C704.997 198.549 703.09 195.509 703.09 193.178C703.09 190.847 704.997 190.073 707.328 191.458L769.656 228.488C771.987 229.873 773.894 232.913 773.894 235.244C773.895 237.575 771.987 238.349 769.656 236.965Z" fill="#C6C6ED"/>
<path d="M673.08 142.035L667.003 145.943L809.982 229.986L816.059 226.077L673.08 142.035Z" fill="#B1B1E5"/>
<path d="M503.133 231.417L510.618 0.964844L653.597 85.0078L653.598 310.672L640.035 319.37L503.133 231.417Z" fill="#7C7CD6"/>
<path d="M497.056 235.326V9.66162L640.035 93.7046V319.37L497.056 235.326Z" fill="#EEEEFF"/>
<path d="M510.618 0.964844L497.056 9.66184L640.035 93.7048L653.597 85.0078L510.618 0.964844Z" fill="#B1B1E5"/>
<path d="M473.832 247.049V21.3857L616.811 105.429V331.093L610.734 335.002L473.832 247.049Z" fill="#7C7CD6"/>
<path d="M467.756 250.958L467.755 25.2949L610.734 109.337V335.002L467.756 250.958Z" fill="#EEEEFF"/>
<path d="M603.924 323.099V113.234L474.566 37.1968V247.063L603.924 323.099Z" fill="white"/>
<path d="M482.595 74.2695L595.894 140.866V144.995L482.595 78.3985V74.2695Z" fill="#EEEEFF"/>
<path d="M482.595 215.581L595.894 282.178V286.307L482.595 219.71V215.581Z" fill="#EEEEFF"/>
<path d="M540.841 181.031L540.84 127.464L483.166 93.5625V147.13L540.841 181.031Z" fill="#C6C6ED"/>
<path d="M589.533 164.062L553.635 142.734C552.292 141.936 551.194 140.186 551.194 138.843C551.194 137.501 552.292 137.055 553.635 137.852L589.533 159.18C590.876 159.978 591.974 161.728 591.974 163.071C591.974 164.414 590.875 164.86 589.533 164.062Z" fill="#C6C6ED"/>
<path d="M589.533 176.372L553.635 155.044C552.292 154.246 551.194 152.496 551.194 151.153C551.194 149.811 552.292 149.365 553.635 150.162L589.533 171.49C590.876 172.288 591.974 174.038 591.974 175.381C591.974 176.724 590.875 177.17 589.533 176.372Z" fill="#C6C6ED"/>
<path d="M589.533 188.682L553.635 167.354C552.292 166.556 551.194 164.806 551.194 163.463C551.194 162.121 552.292 161.675 553.635 162.472L589.533 183.8C590.876 184.598 591.974 186.349 591.974 187.691C591.974 189.034 590.875 189.48 589.533 188.682Z" fill="#C6C6ED"/>
<path d="M589.533 200.993L553.635 179.665C552.292 178.867 551.194 177.117 551.194 175.774C551.194 174.432 552.292 173.986 553.635 174.783L589.533 196.111C590.875 196.909 591.974 198.66 591.974 200.002C591.974 201.344 590.875 201.79 589.533 200.993Z" fill="#C6C6ED"/>
<path d="M521.506 193.717L485.608 172.389C484.266 171.591 483.167 169.841 483.167 168.498C483.167 167.156 484.265 166.71 485.608 167.507L521.506 188.835C522.849 189.633 523.947 191.384 523.947 192.726C523.947 194.069 522.848 194.515 521.506 193.717Z" fill="#C6C6ED"/>
<path d="M521.506 206.027L485.608 184.699C484.266 183.901 483.167 182.151 483.167 180.808C483.167 179.466 484.265 179.02 485.608 179.817L521.506 201.145C522.849 201.943 523.947 203.694 523.947 205.036C523.947 206.379 522.848 206.825 521.506 206.027Z" fill="#C6C6ED"/>
<path d="M521.506 218.337L485.608 197.009C484.265 196.212 483.167 194.461 483.167 193.118C483.167 191.776 484.265 191.33 485.608 192.127L521.506 213.455C522.849 214.252 523.947 216.004 523.947 217.346C523.947 218.689 522.848 219.135 521.506 218.337Z" fill="#C6C6ED"/>
<path d="M521.506 230.647L485.608 209.319C484.265 208.521 483.167 206.771 483.167 205.428C483.167 204.086 484.265 203.64 485.608 204.437L521.506 225.765C522.849 226.562 523.947 228.314 523.947 229.656C523.946 230.999 522.848 231.445 521.506 230.647Z" fill="#C6C6ED"/>
<path d="M583.661 230.647L547.763 209.319C546.421 208.521 545.322 206.771 545.322 205.428C545.322 204.086 546.421 203.64 547.763 204.437L583.661 225.765C585.003 226.562 586.102 228.314 586.102 229.656C586.102 230.999 585.003 231.445 583.661 230.647Z" fill="#C6C6ED"/>
<path d="M583.661 242.958L547.763 221.63C546.421 220.833 545.322 219.082 545.322 217.739C545.322 216.397 546.421 215.951 547.763 216.748L583.661 238.076C585.003 238.873 586.102 240.624 586.102 241.967C586.102 243.309 585.003 243.755 583.661 242.958Z" fill="#C6C6ED"/>
<path d="M583.661 255.268L547.763 233.94C546.421 233.142 545.322 231.391 545.322 230.049C545.322 228.707 546.421 228.261 547.763 229.058L583.661 250.386C585.003 251.183 586.102 252.934 586.102 254.277C586.102 255.62 585.003 256.065 583.661 255.268Z" fill="#C6C6ED"/>
<path d="M583.661 267.578L547.763 246.25C546.421 245.452 545.322 243.701 545.322 242.359C545.322 241.017 546.421 240.571 547.763 241.368L583.661 262.696C585.003 263.494 586.102 265.245 586.102 266.587C586.102 267.93 585.003 268.375 583.661 267.578Z" fill="#C6C6ED"/>
<path d="M550.343 276.691L514.445 255.363C513.103 254.565 512.004 252.815 512.004 251.472C512.004 250.13 513.103 249.684 514.445 250.481L550.343 271.809C551.686 272.607 552.784 274.357 552.784 275.7C552.784 277.043 551.685 277.488 550.343 276.691Z" fill="#C6C6ED"/>
<path d="M570.409 116.316L508.081 79.2858C505.75 77.9008 503.843 74.8608 503.843 72.5298C503.843 70.1988 505.75 69.4248 508.081 70.8098L570.409 107.84C572.74 109.225 574.647 112.265 574.647 114.596C574.646 116.927 572.74 117.701 570.409 116.316Z" fill="#C6C6ED"/>
<path d="M473.832 21.3857L467.755 25.2947L610.734 109.337L616.811 105.429L473.832 21.3857Z" fill="#B1B1E5"/>
<path d="M386.441 748.149L384.676 777.624L0.749756 557.032V524.749L386.441 748.149Z" fill="#E2E2ED"/>
<path d="M810.916 532.412L384.676 777.624L386.441 748.149L387.317 748.657L810.499 501.188L810.916 532.412Z" fill="#CACAE0"/>
<path d="M810.998 500.968L810.501 501.26L639.309 601.371L629.662 607.008L598.669 625.133L589.007 630.785L387.816 748.436L387.752 748.402L386.939 747.93L230.592 657.456L220.93 651.868L188.934 633.353L179.302 627.774L0.749756 524.749L205.285 403.766L215.01 398.221L252.605 376.793L262.359 371.234L426.19 277.861L598.995 378.05L608.579 383.609L642.271 403.142L651.84 408.692L799.032 494.03L810.998 500.968Z" fill="#EEEEFF"/>
<path d="M47.1277 482.411L46.4277 504.931L154.427 569.248L425.028 411.144L658.5 546.255L765.32 482.284L764.879 461.591L668.265 462.544L441.106 325.883L123.936 513.7L47.1277 482.411Z" fill="#E2E2ED"/>
<path d="M228.426 501.126L237.046 496.211L270.369 477.218L279.015 472.29L424.232 389.526L577.404 478.332L585.899 483.259L615.762 500.573L624.244 505.492L657.167 524.58L764.879 461.591L765.32 461.332L754.713 455.182L624.244 379.54L615.762 374.621L585.899 357.307L577.404 352.379L424.232 263.573L279.015 346.337L270.369 351.265L237.046 370.259L228.426 375.173L47.1277 482.411L154.918 544.606L228.426 501.126Z" fill="#EEEEFF"/>
<path d="M154.427 569.248L154.918 544.606L424.232 389.526L425.028 411.144L154.427 569.248Z" fill="#CACAE0"/>
<path d="M658.5 546.255L657.167 524.58L765.32 461.332V482.284L658.5 546.255Z" fill="#CACAE0"/>
<path d="M424.233 312.297V389.528L154.917 544.608L47.1277 482.413V412.349L323.026 253.957L424.233 312.297Z" fill="#CACAE0"/>
<path d="M424.233 312.297L154.425 471.202L47.1277 412.349L323.026 253.957L424.233 312.297Z" fill="#EEEEFF"/>
<path d="M154.425 471.202V552.525L47.7778 495.545L47.1277 412.349L154.425 471.202Z" fill="#E2E2ED"/>
<path d="M487.845 517.723C450.66 543.842 525.19 583.998 558.067 561.77C590.945 539.542 514.03 499.33 487.845 517.723Z" fill="#CACAE0"/>
<path d="M545.891 397.489C539.42 396.872 518.069 395.11 511.265 391.073C504.461 387.036 508.304 379.878 513.847 379.424C519.389 378.97 538.88 386.013 544.914 388.506C551.4 391.187 551.505 398.024 545.891 397.489Z" fill="#78ABCE"/>
<path d="M543.978 394.272C544.334 395.646 545.752 398.782 548.95 397.011C554.091 394.163 561.309 373.949 560.632 370.944C559.956 367.94 558.151 368.125 554.748 372.579C551.344 377.034 542.37 388.068 543.978 394.272Z" fill="#78ABCE"/>
<path d="M556.543 370.328C556.374 371.525 559.197 373.318 560.784 372.118C562.371 370.919 566.446 364.333 565.927 362.928C565.407 361.523 561.607 361.724 558.658 366.497C558.658 366.497 559.465 363.272 557.914 363.703C557.164 363.912 557.081 366.516 556.543 370.328Z" fill="#FD5C54"/>
<path d="M504.572 483.636C504.523 484.989 504.533 486.211 504.609 487.311C504.933 491.95 506.45 494.395 509.76 495.223C515.483 496.655 519.066 493.135 520.769 488.496C520.781 488.464 520.793 488.43 520.805 488.396C521.033 487.745 521.305 486.743 521.605 485.461C521.691 485.091 521.781 484.698 521.873 484.282C522.306 482.311 522.786 479.853 523.281 477.084C523.77 474.357 524.272 471.327 524.76 468.166C524.997 466.627 525.231 465.057 525.457 463.476C526.428 456.685 527.266 449.681 527.691 444.018C528.824 428.885 525.454 410.289 525.454 410.289L513.139 409.457C513.139 409.457 501.577 420.437 500.066 433.999C498.423 448.742 506.553 466.129 505.568 473.458C505.031 477.459 504.674 480.828 504.572 483.636Z" fill="#422B9D"/>
<path d="M504.394 535.817C504.397 535.93 504.402 536.042 504.41 536.152C504.78 541.573 510.791 543.883 511.975 538.135C512.082 537.615 512.187 537.088 512.293 536.549C512.834 533.808 513.396 530.721 514.281 526.401C516.527 515.455 519.405 501.235 520.907 492.476C521.402 489.587 521.748 487.293 521.872 485.906C521.872 485.906 521.934 485.26 521.873 484.28C521.775 482.683 521.352 480.201 519.813 478.185C518.704 476.733 517.017 475.522 514.452 475.056C507.25 473.749 505.326 481.108 504.608 487.31C504.497 488.264 504.416 489.19 504.347 490.053C503.837 496.531 504.277 531.022 504.394 535.817Z" fill="#422B9D"/>
<path d="M512.24 536.534C512.24 536.534 523.608 539.868 524.331 543.007C525.053 546.146 503.932 545.324 502.973 543.692C502.014 542.06 504.403 536.134 504.403 536.134C504.403 536.134 506.755 540.986 512.24 536.534Z" fill="black"/>
<g opacity="0.35">
<path d="M513.7 458.619C515.804 465.332 518.84 471.344 519.813 478.186C520.312 481.698 520.648 485.134 520.805 488.396C520.872 489.791 520.907 491.154 520.907 492.478C521.402 489.589 521.748 487.295 521.872 485.908C521.872 485.908 521.934 485.262 521.873 484.282C522.306 482.311 522.786 479.853 523.281 477.084C523.77 474.357 524.272 471.327 524.76 468.166C524.997 466.627 525.231 465.057 525.457 463.476C524.713 458.515 524.085 454.519 523.965 454.37C523.644 453.969 513.138 439.373 513.138 439.373C513.138 439.373 509.931 446.588 513.7 458.619Z" fill="black"/>
</g>
<path d="M533.67 409.616C533.67 409.616 539.846 426.699 540.567 441.857C541.289 457.015 540.246 482.038 539.124 486.85C538.001 491.662 534.873 495.592 529.019 494.87C523.164 494.148 522.041 487.973 522.202 473.777C522.285 466.383 512.426 450.034 512.257 435.2C512.102 421.555 521.641 409.054 521.641 409.054L533.67 409.616Z" fill="#422B9D"/>
<path d="M539.445 485.566C539.445 485.566 539.365 476.182 530.944 475.541C522.523 474.9 522.282 485.005 522.443 491.501C522.603 497.997 526.603 532.258 527.215 537.015C527.937 542.629 534.399 544.496 534.995 538.539C535.316 535.331 535.556 531.882 536.078 526.629C537.544 511.843 539.525 491.18 539.445 485.566Z" fill="#422B9D"/>
<path d="M515.077 360.723C517.427 368.706 524.449 373.672 530.76 371.813C537.071 369.955 540.282 361.977 537.932 353.993C535.581 346.01 528.56 341.045 522.248 342.903C515.937 344.761 512.726 352.739 515.077 360.723Z" fill="#FD5C54"/>
<path d="M523.142 382.468H525.031C527.034 382.468 528.658 380.844 528.658 378.841V367.007C528.658 365.004 527.034 363.38 525.031 363.38H523.142C521.139 363.38 519.515 365.004 519.515 367.007V378.841C519.515 380.844 521.139 382.468 523.142 382.468Z" fill="#FD5C54"/>
<path d="M512.938 409.576C521.289 412.523 527.988 411.774 531.415 410.995C533.023 410.629 533.911 410.257 533.911 410.257C533.911 410.257 534.589 407.388 535.143 405.382C535.377 404.53 535.641 403.553 535.914 402.495C536.287 401.05 536.677 399.455 537.039 397.828C538.261 392.325 539.151 386.459 537.881 384.793C536.155 382.528 531.964 380.335 529.402 379.142C528.155 378.561 527.294 378.216 527.294 378.216C527.294 378.216 523.064 377.436 518.512 377.723C514.94 377.948 511.17 378.831 509.088 381.264C504.357 386.798 512.938 409.576 512.938 409.576Z" fill="#8CC1ED"/>
<path d="M543.878 421.263C544.202 422.645 545.547 425.813 548.785 424.117C553.991 421.389 561.678 401.349 561.071 398.329C560.465 395.31 558.656 395.453 555.15 399.827C551.645 404.202 542.415 415.024 543.878 421.263Z" fill="#8CC1ED"/>
<path d="M556.998 397.619C556.801 398.812 559.582 400.67 561.196 399.508C562.81 398.346 567.038 391.857 566.551 390.441C566.065 389.025 562.261 389.137 559.201 393.84C559.201 393.84 560.083 390.634 558.522 391.029C557.768 391.218 557.624 393.82 556.998 397.619Z" fill="#FD5C54"/>
<path d="M535.091 536.918C535.091 536.918 546.743 539.06 547.786 542.108C548.829 545.156 527.736 546.519 526.613 544.995C525.49 543.471 527.255 537.33 527.255 537.33C527.255 537.33 530.095 541.913 535.091 536.918Z" fill="black"/>
<path d="M515.677 370.525L515.678 370.526C516.925 370.984 518.349 371.103 519.956 370.799C533.911 368.152 529.58 361.415 529.58 361.415C529.58 361.415 546.248 358.241 544.337 347.54C542.733 338.557 535.675 343.289 535.675 343.289C535.675 343.289 528.056 333.986 516.908 339.038C516.747 339.111 516.603 339.228 516.432 339.272C510.439 340.806 507.634 345.675 507.048 351.152C506.189 359.162 510.079 368.469 515.677 370.525Z" fill="#664FC6"/>
<path d="M525.101 357.31C526.888 356.378 529.408 357.675 530.729 360.208C532.051 362.741 531.674 365.55 529.887 366.482C528.1 367.414 525.58 366.117 524.259 363.584C522.938 361.052 523.315 358.243 525.101 357.31Z" fill="#FD5C54"/>
<path d="M518.512 377.724C521.889 382.199 527.916 379.823 529.402 379.143C528.155 378.562 527.294 378.217 527.294 378.217C527.294 378.217 523.064 377.437 518.512 377.724Z" fill="#FD5C54"/>
<path d="M515.677 370.525L515.678 370.526C511.078 365.068 517.474 355.626 519.475 348.423C521.48 341.205 516.427 339.28 516.427 339.28C516.427 339.28 509.289 347.576 507.048 351.153C506.189 359.162 510.079 368.469 515.677 370.525Z" fill="#422B9D"/>
<path d="M516.427 339.279C513.299 337.194 506.482 336.312 500.788 350.026C495.094 363.74 504.557 372.563 499.585 379.861C494.613 387.159 502.793 392.052 498.943 400.874C495.093 409.696 507.444 414.829 509.449 404.002C511.454 393.175 505.279 388.844 511.935 383.711C518.591 378.578 508.727 365.586 511.855 358.688C514.983 351.791 521.295 342.525 516.427 339.279Z" fill="#664FC6"/>
<path d="M530.302 396.543L531.415 410.995C533.023 410.629 533.911 410.257 533.911 410.257C533.911 410.257 534.589 407.388 535.143 405.382C535.377 404.53 535.641 403.553 535.914 402.495L530.302 396.543Z" fill="#78ABCE"/>
<path d="M543.901 422.585C540.398 417.11 529.697 399.605 528.682 391.759C527.667 383.913 536.618 381.934 540.391 386.018C544.165 390.103 548.615 409.99 550.371 416.279C552.259 423.037 546.94 427.335 543.901 422.585Z" fill="#8CC1ED"/>
<path d="M312.93 482.906C350.115 509.025 275.585 549.181 242.708 526.953C209.83 504.725 286.745 464.513 312.93 482.906Z" fill="#CACAE0"/>
<path d="M246.84 433.109C246.84 433.109 245.074 424.182 254.364 421.564C263.654 418.946 266.817 431.963 271.428 455.904C276.039 479.845 279.626 490.2 278.738 496.065C278.122 500.14 271.249 501.381 269.624 497.574C268.001 493.766 247.814 437.86 246.84 433.109Z" fill="#422B9D"/>
<path d="M199.521 407.959C199.521 407.959 238.699 431.579 245.443 436.017C252.187 440.455 261.15 441.679 263.752 430.778C265.369 424.003 256.072 420.015 247.64 414.084C239.209 408.153 207.1 385.527 207.1 385.527C207.1 385.527 181.004 392.157 199.521 407.959Z" fill="#422B9D"/>
<path d="M217.599 392.782C217.599 392.782 259.306 411.578 266.53 415.184C273.754 418.79 282.798 418.939 284.086 407.806C284.887 400.887 275.181 398.032 266.105 393.145C257.029 388.258 222.458 369.608 222.458 369.608C222.458 369.608 197.335 379.292 217.599 392.782Z" fill="#422B9D"/>
<path d="M269.539 401.018C269.539 401.018 275.311 397.068 281.677 404.321C288.042 411.574 279.906 417.838 264.365 428.323C248.825 438.809 242.862 444.709 238.094 445.549C234.781 446.132 230.587 440.576 232.635 438.145C234.681 435.713 266.483 403.149 269.539 401.018Z" fill="#422B9D"/>
<path d="M221.431 323.952C221.431 323.952 219.928 330.436 228.822 335.035C237.716 339.634 259.427 343.61 264.88 340.728C270.333 337.846 270.05 328.773 259.307 326.072C248.565 323.371 232.31 314.346 227.264 316.002C222.218 317.657 221.431 323.952 221.431 323.952Z" fill="#78ABCE"/>
<path d="M257.316 330.474C257.316 330.474 268.394 316.914 274.565 310.707C280.736 304.501 281.949 304.16 284.705 306.315C287.461 308.469 281.973 316.208 278.857 321.778C275.742 327.348 269.78 340.697 263.506 340.568C257.233 340.44 254.884 333.836 257.316 330.474Z" fill="#78ABCE"/>
<path d="M195.364 325.992C200.682 318.656 225.114 307.633 233.322 319.188C236.443 323.581 237.332 331.175 238.024 340.625C239.778 364.603 240.814 379.044 239.561 381.718C238.308 384.392 226.89 409.482 192.719 398.203C192.719 398.203 188.838 376.905 188.416 360.827C188.143 350.467 190.159 333.171 195.364 325.992Z" fill="#8CC1ED"/>
<path d="M221.748 303.861L222.528 309.998L223.399 316.841C223.415 316.969 223.426 317.095 223.432 317.222C223.491 318.466 223.063 319.637 222.302 320.533C221.559 321.41 220.497 322.021 219.266 322.178C218.452 322.281 217.661 322.173 216.947 321.897C215.364 321.285 214.159 319.846 213.929 318.045L212.278 305.065C212.096 303.63 212.571 302.262 213.47 301.266C214.208 300.447 215.232 299.878 216.411 299.729C217.831 299.548 219.185 300.012 220.18 300.892C221.016 301.631 221.596 302.667 221.748 303.861Z" fill="#FD5C54"/>
<g opacity="0.25">
<path d="M222.528 309.998L223.399 316.841C223.415 316.969 223.426 317.095 223.432 317.222C222.332 316.43 216.695 312.175 217.703 308.807C218.348 306.649 220.679 308.259 222.528 309.998Z" fill="black"/>
</g>
<path d="M232.527 297.103C234.255 304.843 231.288 312.092 225.901 313.294C220.513 314.497 214.745 309.198 213.017 301.458C211.289 293.718 214.256 286.469 219.643 285.267C225.031 284.064 230.799 289.363 232.527 297.103Z" fill="#FD5C54"/>
<path d="M212.278 306.706C212.278 306.706 218.202 308.593 218.417 305.106C218.632 301.619 217.529 298.732 217.529 298.732C217.529 298.732 233.243 301.338 236.831 288.996C240.419 276.655 227.969 277.371 228.937 283.421C228.937 283.421 217.464 274.824 207.221 282.002C196.978 289.18 201.022 311.893 213.189 312.157C213.189 312.157 213.682 311.971 213.73 310.813C213.764 309.992 212.278 306.706 212.278 306.706Z" fill="#422B9D"/>
<path d="M214.981 303.029C216.785 304.778 217.201 307.275 215.911 308.606C214.62 309.937 212.112 309.598 210.308 307.848C208.504 306.099 208.088 303.602 209.378 302.271C210.669 300.941 213.177 301.28 214.981 303.029Z" fill="#FD5C54"/>
<path d="M194.408 325.193C194.408 325.193 189.5 329.689 194.232 338.513C198.964 347.337 214.618 362.898 220.745 363.606C226.872 364.314 231.771 356.672 224.441 348.368C217.111 340.064 208.814 323.426 203.716 321.937C198.618 320.448 194.408 325.193 194.408 325.193Z" fill="#78ABCE"/>
<path d="M224.408 350.767C224.408 350.767 239.829 359.061 247.097 363.938C254.365 368.815 254.93 369.941 253.339 373.057C251.749 376.173 243.107 372.258 237.046 370.26C230.985 368.262 216.745 364.95 215.677 358.768C214.608 352.583 220.645 349.02 224.408 350.767Z" fill="#78ABCE"/>
<path d="M252.952 368.191C251.124 367.853 248.185 372.074 249.924 374.59C251.663 377.106 261.516 383.798 263.708 383.092C265.9 382.386 265.84 376.533 258.699 371.69C258.699 371.69 263.602 373.141 263.041 370.729C262.771 369.564 258.775 369.267 252.952 368.191Z" fill="#FD5C54"/>
<path d="M279.856 305.769C279.176 307.5 282.76 311.188 285.561 309.96C288.363 308.732 296.807 300.333 296.531 298.047C296.255 295.761 290.498 294.706 284.384 300.794C284.384 300.794 286.742 296.257 284.267 296.349C283.073 296.391 282.02 300.258 279.856 305.769Z" fill="#FD5C54"/>
<path d="M267.976 493.353C267.976 493.353 274.152 496.747 278.546 490.21C278.546 490.21 283.676 491.631 289.633 492.519C294.686 493.272 300.605 493.199 301.652 496.205C303.932 502.756 274.538 506.455 270.831 505.729C267.125 505.003 267.976 493.353 267.976 493.353Z" fill="black"/>
<path d="M236.23 434.303C236.23 434.303 234.123 441.205 241.281 444.49C241.281 444.49 240.704 449.782 240.785 455.804C240.854 460.912 241.879 466.743 239.079 468.259C232.979 471.563 224.603 443.146 224.723 439.371C224.844 435.597 236.23 434.303 236.23 434.303Z" fill="black"/>
</svg>
