<svg width="759" height="824" viewBox="0 0 759 824" fill="none" xmlns="http://www.w3.org/2000/svg">
<path d="M0.367676 506.6L2.41467 554.959L265.967 707.839L156.117 584.126L0.367676 506.6Z" fill="#DADAEF"/>
<path d="M758.842 509.739L287.491 779.827L23.5006 624.78L115.137 573.949L0.367676 506.6L375.699 289.146L758.842 509.739Z" fill="#EEEEFF"/>
<path d="M758.842 509.739V555.137L288.855 823.528L287.491 779.827L758.842 509.739Z" fill="#CACAE0"/>
<path d="M288.854 823.528L23.3774 668.55L23.5005 624.78L287.49 779.827L288.854 823.528Z" fill="#DADAEF"/>
<path d="M448.451 348.148L459.823 110.857L677.022 238.526V468.545L656.419 481.757L448.451 348.148Z" fill="#7C7CD6"/>
<path d="M439.22 354.086V124.07L656.419 251.739V481.757L439.22 354.086Z" fill="#ACACE5"/>
<path d="M449.865 142.654V347.998L645.783 463.17V452.531L460.162 343.423V148.718L449.865 142.654Z" fill="#5454AE"/>
<path d="M460.162 148.718V343.423L645.783 452.531V257.826L460.162 148.718Z" fill="#7C7CD6"/>
<path d="M459.823 110.857L439.22 124.07L656.419 251.739L677.022 238.526L459.823 110.857Z" fill="#D3D3EF"/>
<path d="M460.162 343.423L449.865 347.998L645.783 463.17V452.531L460.162 343.423Z" fill="#6666C4"/>
<path d="M633.265 277.336L633.084 406.514L466.406 502.349L466.587 373.172L633.265 277.336Z" fill="#5454AE"/>
<path d="M466.587 373.172L466.406 502.349L299.615 405.406L299.796 276.228L466.587 373.172Z" fill="#7C7CD6"/>
<path d="M633.265 277.336L466.587 373.172L299.796 276.228L466.474 180.393L633.265 277.336Z" fill="#B1B1E5"/>
<path d="M312.31 276.252L389.417 321.061L466.439 276.784L543.632 321.657L620.74 277.316L466.439 187.633L312.31 276.252Z" fill="#7C7CD6"/>
<path d="M389.417 321.061L466.61 365.934L543.632 321.657L466.439 276.784L389.417 321.061Z" fill="#5454AE"/>
<path d="M466.439 187.633V276.784L543.632 321.657L620.74 277.316L466.439 187.633Z" fill="#7171C6"/>
<path d="M413.371 394.437L413.254 421.883L405.569 426.288L405.685 398.841L413.371 394.437Z" fill="#5454AE"/>
<path d="M405.685 398.841L405.569 426.288L332.082 384.142L332.198 356.696L405.685 398.841Z" fill="#9A9ADB"/>
<path d="M413.371 394.437L405.685 398.841L332.198 356.696L339.883 352.291L413.371 394.437Z" fill="#B1B1E5"/>
<mask id="mask0_78_755" style="mask-type:luminance" maskUnits="userSpaceOnUse" x="312" y="0" width="309" height="366">
<path d="M620.74 277.316L465.888 365.565L312.31 276.252L321.99 65.1011L466.439 0.248047L586.438 61.2131L620.74 277.316Z" fill="white"/>
</mask>
<g mask="url(#mask0_78_755)">
<path d="M437.463 256.58V11.0181L593.05 102.471V348.035L586.438 352.289L437.463 256.58Z" fill="#7C7CD6"/>
<path d="M430.851 260.834V15.271L586.438 106.725V352.289L430.851 260.834Z" fill="#EEEEFF"/>
<path d="M579.027 339.336V110.964L438.261 28.2231L438.262 256.594L579.027 339.336Z" fill="white"/>
<path d="M446.999 68.5649L570.289 141.034V145.527L446.999 73.0579V68.5649Z" fill="#EEEEFF"/>
<path d="M446.999 222.337L570.289 294.807V299.299L446.999 226.83V222.337Z" fill="#EEEEFF"/>
<path d="M510.38 184.74V126.449L447.62 89.5591V147.85L510.38 184.74Z" fill="#F9BB41"/>
<path d="M563.367 166.275L524.303 143.066C522.842 142.198 521.647 140.293 521.647 138.832C521.647 137.371 522.842 136.886 524.303 137.754L563.367 160.963C564.828 161.831 566.023 163.736 566.023 165.197C566.023 166.658 564.827 167.143 563.367 166.275Z" fill="#F9BB41"/>
<path d="M563.367 179.671L524.303 156.462C522.842 155.594 521.647 153.689 521.647 152.228C521.647 150.767 522.842 150.282 524.303 151.15L563.367 174.359C564.828 175.227 566.023 177.132 566.023 178.593C566.023 180.054 564.827 180.539 563.367 179.671Z" fill="#C6C6ED"/>
<path d="M563.367 193.067L524.303 169.858C522.842 168.99 521.647 167.085 521.647 165.624C521.647 164.163 522.842 163.678 524.303 164.546L563.367 187.755C564.828 188.623 566.023 190.528 566.023 191.989C566.023 193.449 564.827 193.934 563.367 193.067Z" fill="#C6C6ED"/>
<path d="M563.367 206.462L524.303 183.253C522.842 182.385 521.647 180.48 521.647 179.019C521.647 177.558 522.842 177.073 524.303 177.941L563.367 201.15C564.828 202.018 566.023 203.923 566.023 205.384C566.023 206.845 564.827 207.33 563.367 206.462Z" fill="#C6C6ED"/>
<path d="M489.341 198.545L450.277 175.336C448.816 174.468 447.621 172.563 447.621 171.102C447.621 169.641 448.816 169.156 450.277 170.024L489.341 193.233C490.802 194.101 491.997 196.006 491.997 197.467C491.997 198.928 490.802 199.413 489.341 198.545Z" fill="#F9BB41"/>
<path d="M489.341 211.941L450.277 188.732C448.816 187.864 447.621 185.959 447.621 184.498C447.621 183.037 448.816 182.552 450.277 183.42L489.341 206.629C490.802 207.497 491.997 209.402 491.997 210.863C491.997 212.323 490.802 212.809 489.341 211.941Z" fill="#C6C6ED"/>
<path d="M489.341 225.336L450.277 202.127C448.816 201.259 447.621 199.354 447.621 197.893C447.621 196.432 448.817 195.947 450.277 196.815L489.341 220.024C490.802 220.892 491.997 222.797 491.997 224.258C491.997 225.719 490.802 226.204 489.341 225.336Z" fill="#C6C6ED"/>
<path d="M489.341 238.732L450.277 215.523C448.816 214.655 447.621 212.75 447.621 211.289C447.621 209.828 448.816 209.343 450.277 210.211L489.341 233.42C490.802 234.288 491.997 236.193 491.997 237.654C491.997 239.115 490.802 239.6 489.341 238.732Z" fill="#C6C6ED"/>
<path d="M556.977 238.732L517.913 215.523C516.452 214.655 515.257 212.75 515.257 211.289C515.257 209.828 516.452 209.343 517.913 210.211L556.977 233.42C558.438 234.288 559.633 236.193 559.633 237.654C559.633 239.115 558.438 239.6 556.977 238.732Z" fill="#F9BB41"/>
<path d="M556.977 252.128L517.913 228.919C516.452 228.051 515.257 226.146 515.257 224.685C515.257 223.224 516.453 222.739 517.913 223.607L556.977 246.816C558.438 247.684 559.633 249.589 559.633 251.05C559.633 252.51 558.438 252.996 556.977 252.128Z" fill="#C6C6ED"/>
<path d="M556.977 265.523L517.913 242.314C516.452 241.446 515.257 239.541 515.257 238.08C515.257 236.619 516.452 236.134 517.913 237.002L556.977 260.211C558.438 261.079 559.633 262.984 559.633 264.445C559.633 265.906 558.438 266.391 556.977 265.523Z" fill="#C6C6ED"/>
<path d="M556.977 278.919L517.913 255.71C516.452 254.842 515.257 252.937 515.257 251.476C515.257 250.015 516.452 249.53 517.913 250.398L556.977 273.607C558.438 274.475 559.633 276.38 559.633 277.841C559.633 279.302 558.438 279.787 556.977 278.919Z" fill="#C6C6ED"/>
<path d="M520.721 288.836L481.657 265.627C480.196 264.759 479.001 262.854 479.001 261.393C479.001 259.932 480.196 259.447 481.657 260.315L520.721 283.524C522.182 284.392 523.377 286.297 523.377 287.758C523.377 289.219 522.182 289.704 520.721 288.836Z" fill="#C6C6ED"/>
<path d="M542.556 114.318L474.732 74.0218C472.196 72.5148 470.12 69.2069 470.12 66.6709C470.12 64.1349 472.195 63.2918 474.732 64.7988L542.556 105.095C545.093 106.602 547.168 109.91 547.168 112.446C547.167 114.983 545.092 115.825 542.556 114.318Z" fill="#F9BB41"/>
<path d="M437.463 11.0181L430.851 15.2711L586.438 106.725L593.05 102.471L437.463 11.0181Z" fill="#B1B1E5"/>
</g>
<mask id="mask1_78_755" style="mask-type:luminance" maskUnits="userSpaceOnUse" x="312" y="0" width="309" height="366">
<path d="M620.74 277.316L465.888 365.565L312.31 276.252L321.99 65.1011L466.439 0.248047L586.438 61.2131L620.74 277.316Z" fill="white"/>
</mask>
<g mask="url(#mask1_78_755)">
<path d="M391.919 297.572L391.918 52.0103L547.506 143.463V389.028L540.894 393.281L391.919 297.572Z" fill="#7C7CD6"/>
<path d="M385.306 301.826V56.2632L540.893 147.717L540.894 393.281L385.306 301.826Z" fill="#EEEEFF"/>
<path d="M533.482 380.328V151.957L392.717 69.2153V297.587L533.482 380.328Z" fill="white"/>
<path d="M401.455 109.557L524.744 182.026V186.519L401.455 114.05V109.557Z" fill="#EEEEFF"/>
<path d="M401.455 263.329L524.745 335.799V340.292L401.455 267.822V263.329Z" fill="#EEEEFF"/>
<path d="M464.836 225.732V167.441L402.076 130.551V188.842L464.836 225.732Z" fill="#F9BB41"/>
<path d="M517.823 207.267L478.759 184.058C477.298 183.19 476.103 181.285 476.103 179.824C476.103 178.363 477.298 177.878 478.759 178.746L517.823 201.955C519.284 202.823 520.479 204.728 520.479 206.189C520.479 207.65 519.283 208.135 517.823 207.267Z" fill="#F07554"/>
<path d="M517.823 220.663L478.759 197.454C477.298 196.586 476.103 194.681 476.103 193.22C476.103 191.759 477.298 191.274 478.759 192.142L517.823 215.351C519.284 216.219 520.479 218.124 520.479 219.585C520.479 221.046 519.283 221.531 517.823 220.663Z" fill="#C6C6ED"/>
<path d="M517.822 234.059L478.758 210.85C477.297 209.982 476.102 208.077 476.102 206.616C476.102 205.155 477.297 204.67 478.758 205.538L517.822 228.747C519.283 229.615 520.478 231.52 520.478 232.981C520.479 234.441 519.283 234.927 517.822 234.059Z" fill="#C6C6ED"/>
<path d="M517.822 247.454L478.758 224.245C477.297 223.377 476.102 221.472 476.102 220.011C476.102 218.55 477.297 218.065 478.758 218.933L517.822 242.142C519.283 243.01 520.478 244.915 520.478 246.376C520.478 247.837 519.283 248.322 517.822 247.454Z" fill="#C6C6ED"/>
<path d="M443.796 239.537L404.732 216.328C403.271 215.46 402.076 213.555 402.076 212.094C402.076 210.633 403.271 210.148 404.732 211.016L443.796 234.225C445.257 235.093 446.452 236.998 446.452 238.459C446.452 239.92 445.257 240.405 443.796 239.537Z" fill="#F9BB41"/>
<path d="M443.796 252.933L404.732 229.724C403.271 228.856 402.076 226.951 402.076 225.49C402.076 224.029 403.271 223.544 404.732 224.412L443.796 247.621C445.257 248.489 446.452 250.394 446.452 251.855C446.452 253.316 445.257 253.801 443.796 252.933Z" fill="#C6C6ED"/>
<path d="M443.796 266.329L404.732 243.12C403.271 242.252 402.076 240.347 402.076 238.886C402.076 237.425 403.271 236.94 404.732 237.808L443.796 261.017C445.257 261.885 446.452 263.79 446.452 265.251C446.452 266.711 445.257 267.196 443.796 266.329Z" fill="#C6C6ED"/>
<path d="M443.796 279.724L404.732 256.515C403.271 255.647 402.076 253.742 402.076 252.281C402.076 250.82 403.271 250.335 404.732 251.203L443.796 274.412C445.257 275.28 446.452 277.185 446.452 278.646C446.452 280.107 445.257 280.592 443.796 279.724Z" fill="#C6C6ED"/>
<path d="M511.432 279.724L472.368 256.515C470.907 255.647 469.712 253.742 469.712 252.281C469.712 250.82 470.907 250.335 472.368 251.203L511.432 274.412C512.893 275.28 514.088 277.185 514.088 278.646C514.088 280.107 512.893 280.592 511.432 279.724Z" fill="#F9BB41"/>
<path d="M511.432 293.12L472.368 269.911C470.907 269.043 469.712 267.138 469.712 265.677C469.712 264.216 470.907 263.731 472.368 264.599L511.432 287.808C512.893 288.676 514.088 290.581 514.088 292.042C514.088 293.503 512.893 293.988 511.432 293.12Z" fill="#C6C6ED"/>
<path d="M511.432 306.516L472.368 283.307C470.907 282.439 469.712 280.534 469.712 279.073C469.712 277.612 470.907 277.127 472.368 277.995L511.432 301.204C512.893 302.072 514.088 303.977 514.088 305.438C514.088 306.898 512.893 307.383 511.432 306.516Z" fill="#C6C6ED"/>
<path d="M511.432 319.911L472.368 296.702C470.907 295.834 469.712 293.929 469.712 292.468C469.712 291.007 470.907 290.522 472.368 291.39L511.432 314.599C512.893 315.467 514.088 317.372 514.088 318.833C514.088 320.294 512.893 320.779 511.432 319.911Z" fill="#C6C6ED"/>
<path d="M475.177 329.828L436.113 306.619C434.652 305.751 433.457 303.846 433.457 302.385C433.457 300.924 434.652 300.439 436.113 301.307L475.177 324.516C476.638 325.384 477.833 327.289 477.833 328.75C477.833 330.211 476.637 330.696 475.177 329.828Z" fill="#C6C6ED"/>
<path d="M391.918 52.0103L385.306 56.2632L540.893 147.717L547.506 143.463L391.918 52.0103Z" fill="#B1B1E5"/>
<path d="M533.482 151.957L392.717 69.2153V96.6413L533.482 179.383V151.957Z" fill="#F07554"/>
</g>
<mask id="mask2_78_755" style="mask-type:luminance" maskUnits="userSpaceOnUse" x="312" y="0" width="309" height="366">
<path d="M620.74 277.316L465.888 365.565L312.31 276.252L321.99 65.1011L466.439 0.248047L586.438 61.2131L620.74 277.316Z" fill="white"/>
</mask>
<g mask="url(#mask2_78_755)">
<path d="M346.375 396.584V151.021L501.961 242.475V488.039L495.349 492.292L346.375 396.584Z" fill="#7C7CD6"/>
<path d="M339.762 400.837V155.275L495.349 246.728V492.292L339.762 400.837Z" fill="#EEEEFF"/>
<path d="M487.938 479.34V250.968L347.173 168.227V396.598L487.938 479.34Z" fill="white"/>
<path d="M355.911 208.568L479.2 281.038V285.531L355.911 213.061V208.568Z" fill="#EEEEFF"/>
<path d="M355.911 362.341L479.2 434.81V439.303L355.911 366.834V362.341Z" fill="#EEEEFF"/>
<path d="M419.292 324.744V266.453L356.532 229.563V287.854L419.292 324.744Z" fill="#F9BB41"/>
<path d="M472.278 306.279L433.214 283.07C431.753 282.202 430.558 280.297 430.558 278.836C430.558 277.375 431.753 276.89 433.214 277.758L472.278 300.967C473.739 301.835 474.934 303.74 474.934 305.201C474.934 306.662 473.739 307.147 472.278 306.279Z" fill="#F9BB41"/>
<path d="M472.278 319.674L433.214 296.465C431.753 295.597 430.558 293.692 430.558 292.231C430.558 290.77 431.754 290.285 433.214 291.153L472.278 314.362C473.739 315.23 474.934 317.135 474.934 318.596C474.934 320.057 473.739 320.543 472.278 319.674Z" fill="#C6C6ED"/>
<path d="M472.278 333.07L433.214 309.861C431.753 308.993 430.558 307.088 430.558 305.627C430.558 304.166 431.753 303.681 433.214 304.549L472.278 327.758C473.739 328.626 474.934 330.531 474.934 331.992C474.934 333.453 473.739 333.938 472.278 333.07Z" fill="#C6C6ED"/>
<path d="M472.278 346.466L433.214 323.257C431.753 322.389 430.558 320.484 430.558 319.023C430.558 317.562 431.753 317.077 433.214 317.945L472.278 341.154C473.739 342.022 474.934 343.927 474.934 345.388C474.934 346.849 473.739 347.334 472.278 346.466Z" fill="#C6C6ED"/>
<path d="M398.252 338.549L359.188 315.34C357.727 314.472 356.532 312.567 356.532 311.106C356.532 309.645 357.727 309.16 359.188 310.028L398.252 333.237C399.713 334.105 400.908 336.01 400.908 337.471C400.908 338.932 399.713 339.417 398.252 338.549Z" fill="#F9BB41"/>
<path d="M398.252 351.944L359.188 328.735C357.727 327.867 356.532 325.962 356.532 324.501C356.532 323.04 357.727 322.555 359.188 323.423L398.252 346.632C399.713 347.5 400.908 349.405 400.908 350.866C400.908 352.327 399.713 352.812 398.252 351.944Z" fill="#C6C6ED"/>
<path d="M398.252 365.34L359.188 342.131C357.727 341.263 356.532 339.358 356.532 337.897C356.532 336.436 357.727 335.951 359.188 336.819L398.252 360.028C399.713 360.896 400.908 362.801 400.908 364.262C400.908 365.723 399.713 366.208 398.252 365.34Z" fill="#C6C6ED"/>
<path d="M398.252 378.736L359.188 355.527C357.727 354.659 356.532 352.754 356.532 351.293C356.532 349.832 357.727 349.347 359.188 350.215L398.252 373.424C399.713 374.292 400.908 376.197 400.908 377.658C400.908 379.119 399.713 379.604 398.252 378.736Z" fill="#C6C6ED"/>
<path d="M465.888 378.736L426.824 355.527C425.363 354.659 424.168 352.754 424.168 351.293C424.168 349.832 425.363 349.347 426.824 350.215L465.888 373.424C467.349 374.292 468.544 376.197 468.544 377.658C468.544 379.119 467.349 379.604 465.888 378.736Z" fill="#F9BB41"/>
<path d="M465.888 392.132L426.824 368.923C425.363 368.055 424.168 366.15 424.168 364.689C424.168 363.228 425.363 362.743 426.824 363.611L465.888 386.82C467.349 387.688 468.544 389.593 468.544 391.054C468.544 392.514 467.349 392.999 465.888 392.132Z" fill="#C6C6ED"/>
<path d="M451.468 254.322L383.644 214.026C381.108 212.519 379.032 209.211 379.032 206.675C379.032 204.139 381.107 203.296 383.644 204.803L451.468 245.099C454.004 246.606 456.08 249.914 456.08 252.45C456.079 254.987 454.004 255.829 451.468 254.322Z" fill="#F9BB41"/>
<path d="M346.375 151.021L339.762 155.275L495.349 246.728L501.961 242.475L346.375 151.021Z" fill="#B1B1E5"/>
</g>
<path d="M343.417 388.326C343.26 388.417 343.122 388.515 342.975 388.61C342.831 388.704 342.684 388.796 342.55 388.893C342.435 388.977 342.332 389.064 342.225 389.15C342.102 389.249 341.976 389.347 341.863 389.449C341.794 389.511 341.735 389.575 341.67 389.638C341.49 389.812 341.324 389.991 341.173 390.172C341.108 390.25 341.044 390.328 340.985 390.407C340.884 390.542 340.794 390.678 340.709 390.816C340.656 390.902 340.599 390.988 340.553 391.075C340.488 391.195 340.435 391.317 340.383 391.439C340.342 391.534 340.296 391.628 340.262 391.724C340.221 391.84 340.192 391.957 340.161 392.074C340.135 392.173 340.105 392.272 340.086 392.372C340.064 392.495 340.055 392.618 340.044 392.741C340.034 392.855 340.015 392.968 340.015 393.082L340.037 385.272C340.037 385.238 340.038 385.204 340.039 385.169C340.041 385.089 340.059 385.01 340.066 384.93C340.077 384.807 340.086 384.684 340.108 384.561C340.112 384.54 340.111 384.52 340.115 384.499C340.131 384.42 340.162 384.342 340.182 384.263C340.213 384.146 340.242 384.029 340.283 383.913C340.291 383.889 340.294 383.865 340.304 383.841C340.331 383.769 340.373 383.699 340.404 383.628C340.457 383.506 340.509 383.385 340.574 383.264C340.59 383.235 340.599 383.205 340.615 383.176C340.648 383.118 340.695 383.062 340.73 383.004C340.815 382.866 340.905 382.73 341.006 382.595C341.035 382.556 341.055 382.515 341.086 382.476C341.117 382.436 341.161 382.399 341.194 382.359C341.344 382.178 341.51 382 341.69 381.825C341.734 381.783 341.765 381.737 341.811 381.695C341.833 381.674 341.861 381.656 341.884 381.635C341.997 381.533 342.122 381.436 342.245 381.337C342.352 381.251 342.455 381.164 342.571 381.08C342.704 380.983 342.85 380.891 342.993 380.798C343.095 380.732 343.187 380.662 343.294 380.597C343.341 380.569 343.388 380.541 343.437 380.512L350.631 376.208L350.609 384.018L343.417 388.326Z" fill="#5454AE"/>
<path d="M330.724 385.146C330.716 387.917 332.546 390.693 336.209 392.807L358.072 405.285C358.51 405.538 358.966 405.774 359.434 405.996C359.592 406.071 359.76 406.136 359.921 406.208C360.229 406.345 360.537 406.481 360.855 406.605C361.499 406.856 362.166 407.08 362.849 407.279C363.059 407.341 363.274 407.393 363.487 407.449C363.867 407.55 364.25 407.647 364.638 407.732C364.894 407.788 365.152 407.839 365.411 407.888C365.736 407.95 366.063 408.007 366.392 408.058C366.669 408.101 366.946 408.141 367.225 408.177C367.533 408.216 367.842 408.249 368.153 408.279C368.437 408.307 368.722 408.332 369.008 408.352C369.322 408.374 369.636 408.389 369.952 408.401C370.235 408.412 370.519 408.421 370.802 408.424C371.141 408.429 371.48 408.426 371.819 408.419C372.088 408.414 372.357 408.409 372.625 408.397C373.045 408.379 373.463 408.348 373.88 408.313C374.1 408.295 374.32 408.281 374.539 408.258C375.25 408.184 375.956 408.087 376.652 407.964C376.887 407.922 377.117 407.871 377.35 407.823C377.696 407.753 378.042 407.684 378.381 407.602C378.627 407.542 378.866 407.472 379.108 407.406C379.43 407.319 379.751 407.232 380.066 407.133C380.247 407.076 380.422 407.011 380.601 406.951C381.099 406.781 381.586 406.596 382.06 406.398C382.238 406.323 382.416 406.251 382.591 406.172C383.196 405.899 383.788 405.608 384.343 405.284L392.656 400.331L392.634 408.141L384.321 413.095C383.765 413.418 383.174 413.708 382.569 413.981C382.395 414.06 382.216 414.133 382.038 414.208C381.563 414.407 381.077 414.591 380.579 414.761C380.466 414.8 380.363 414.849 380.249 414.886C380.182 414.908 380.111 414.923 380.043 414.945C379.73 415.044 379.409 415.131 379.089 415.218C378.845 415.284 378.605 415.354 378.357 415.414C378.019 415.496 377.675 415.565 377.33 415.634C377.13 415.675 376.934 415.724 376.732 415.761C376.698 415.767 376.663 415.77 376.629 415.776C375.933 415.899 375.228 415.995 374.516 416.069C374.464 416.074 374.414 416.085 374.362 416.091C374.195 416.108 374.025 416.111 373.857 416.125C373.439 416.16 373.022 416.19 372.602 416.209C372.502 416.213 372.403 416.225 372.303 416.229C372.135 416.235 371.966 416.228 371.797 416.231C371.458 416.237 371.119 416.24 370.78 416.236C370.654 416.234 370.528 416.242 370.402 416.239C370.244 416.235 370.087 416.22 369.929 416.214C369.615 416.202 369.302 416.185 368.989 416.163C368.85 416.153 368.711 416.152 368.573 416.141C368.424 416.129 368.278 416.107 368.129 416.093C367.819 416.063 367.511 416.029 367.204 415.989C367.059 415.971 366.912 415.96 366.767 415.939C366.634 415.92 366.504 415.891 366.371 415.87C366.04 415.818 365.714 415.761 365.388 415.699C365.235 415.67 365.078 415.651 364.926 415.62C364.822 415.598 364.722 415.566 364.618 415.543C364.228 415.458 363.845 415.361 363.463 415.26C363.306 415.218 363.143 415.189 362.988 415.145C362.933 415.129 362.882 415.106 362.827 415.09C362.145 414.891 361.478 414.668 360.833 414.417C360.8 414.404 360.764 414.397 360.732 414.384C360.444 414.271 360.17 414.141 359.892 414.017C359.734 413.947 359.569 413.883 359.414 413.809C358.945 413.586 358.489 413.351 358.05 413.098L336.187 400.618C332.524 398.503 330.694 395.728 330.702 392.957L330.724 385.146Z" fill="#5454AE"/>
<path d="M392.656 400.331L384.342 405.286C377.11 409.489 365.351 409.489 358.072 405.286L336.209 392.807C328.929 388.604 328.891 381.793 336.123 377.59L344.437 372.635L350.633 376.212L343.439 380.516C338.89 383.16 338.905 387.443 343.484 390.087L362.743 401.062C367.322 403.706 374.717 403.701 379.266 401.057L386.46 396.753L392.656 400.331Z" fill="#B1B1E5"/>
<path d="M557.982 574.957C601.81 605.742 513.966 653.071 475.215 626.872C436.465 600.673 527.119 553.278 557.982 574.957Z" fill="#CACAE0"/>
<path d="M207.233 588.427C251.061 619.212 163.217 666.541 124.466 640.342C85.7158 614.144 176.37 566.749 207.233 588.427Z" fill="#CACAE0"/>
<path d="M175.821 353.694C175.821 353.694 168.392 357.618 172.25 373.504C176.108 389.389 192.288 421.567 201.679 425.2C211.07 428.833 221.948 418.767 213.771 402.637C205.595 386.507 194.834 359.845 187.389 355.399C179.944 350.954 175.821 353.694 175.821 353.694Z" fill="#6E59D3"/>
<path d="M202.905 404.925C202.905 404.925 231.4 402.639 245.687 402.89C259.974 403.14 261.746 404.184 262.325 409.866C262.904 415.548 247.585 417.833 237.502 420.462C227.42 423.091 204.959 431.162 198.017 423.629C191.076 416.096 196.197 405.863 202.905 404.925Z" fill="#6E59D3"/>
<path d="M163.458 518.622C163.458 518.622 164.666 507.754 176.258 508.116C187.85 508.478 186.764 524.539 183.383 553.641C180.002 582.743 180.364 595.906 177.225 602.306C175.044 606.752 166.719 605.687 166.236 600.736C165.753 595.785 162.854 524.418 163.458 518.622Z" fill="#422B9F"/>
<path d="M165.873 595.302C165.873 595.302 171.721 601.426 179.122 595.526C179.122 595.526 184.485 599.011 190.989 602.185C196.507 604.877 203.316 606.935 203.427 610.759C203.668 619.091 168.65 612.691 164.665 610.518C160.681 608.343 165.873 595.302 165.873 595.302Z" fill="black"/>
<path d="M135.564 538.326C135.564 538.326 136.894 527.472 148.482 527.965C160.07 528.458 158.802 544.505 155.093 573.567C151.384 602.629 151.598 615.795 148.387 622.159C146.156 626.581 137.844 625.422 137.417 620.466C136.989 615.51 134.895 544.115 135.564 538.326Z" fill="#422B9F"/>
<path d="M137.115 615.028C137.115 615.028 142.895 621.218 150.361 615.402C150.361 615.402 155.685 618.947 162.154 622.194C167.641 624.948 174.425 627.082 174.493 630.907C174.641 639.241 139.697 632.447 135.736 630.229C131.777 628.01 137.115 615.028 137.115 615.028Z" fill="black"/>
<path d="M163.699 453.993C163.699 453.993 163.821 508.965 163.458 518.66C163.096 528.355 167.418 538.328 180.242 534.214C188.212 531.657 186.521 519.619 187.367 507.261C188.212 494.903 191.474 447.815 191.474 447.815C191.474 447.815 168.408 425.122 163.699 453.993Z" fill="#422B9F"/>
<path d="M135.443 471.744C135.443 471.744 135.563 526.716 135.201 536.411C134.839 546.106 139.163 556.079 151.987 551.965C159.957 549.408 158.266 537.37 159.112 525.012C159.958 512.654 163.218 465.566 163.218 465.566C163.218 465.566 140.152 442.873 135.443 471.744Z" fill="#422B9F"/>
<path d="M134.959 372.145C145.948 365.02 150.417 360.552 160.198 358.017C169.979 355.481 180.605 352.1 184.107 353.67C187.609 355.24 192.922 360.07 195.458 394.727C197.994 429.384 200.651 448.826 198.84 452.69C197.029 456.554 180.725 487.588 131.337 471.286C131.337 471.286 129.888 399.919 129.043 388.568C128.197 377.216 134.959 372.145 134.959 372.145Z" fill="#8969F2"/>
<path d="M171.879 349.266L171.128 357.305L170.291 366.269C170.276 366.436 170.254 366.601 170.226 366.764C169.948 368.365 169.068 369.735 167.845 370.66C166.648 371.565 165.122 372.042 163.51 371.892C162.444 371.792 161.467 371.429 160.635 370.875C158.793 369.646 157.667 367.47 157.887 365.11L159.477 348.107C159.653 346.227 160.646 344.62 162.074 343.607C163.247 342.774 164.714 342.34 166.258 342.485C168.118 342.658 169.712 343.634 170.728 345.039C171.581 346.218 172.025 347.702 171.879 349.266Z" fill="#FD5C54"/>
<path d="M139.608 372.688C139.608 372.688 131.638 370.031 122.823 383.797C114.008 397.563 101.933 431.496 105.797 440.794C109.661 450.092 124.453 450.998 130.46 433.941C136.468 416.884 148.302 390.68 146.37 382.227C144.438 373.775 139.608 372.688 139.608 372.688Z" fill="#6E59D3"/>
<path d="M127.016 435.801C127.016 435.801 127.46 464.384 126.289 478.625C125.118 492.866 123.961 494.567 118.254 494.779C112.546 494.991 111.255 479.556 109.281 469.325C107.307 459.094 100.701 436.159 108.666 429.718C116.631 423.277 126.513 429.047 127.016 435.801Z" fill="#6E59D3"/>
<path d="M257.443 403.506C254.616 404.613 254.176 412.997 258.755 414.988C263.334 416.979 282.763 417.771 285.194 414.903C287.625 412.035 282.5 403.971 268.425 403.406C268.425 403.406 276.476 401.195 273.62 398.333C272.242 396.952 266.443 399.982 257.443 403.506Z" fill="#FD5C54"/>
<path d="M124.883 490.358C123.91 487.482 115.556 486.651 113.352 491.132C111.148 495.613 109.447 514.983 112.198 517.546C114.949 520.109 123.244 515.367 124.469 501.335C124.469 501.335 126.301 509.479 129.293 506.761C130.736 505.448 127.981 499.514 124.883 490.358Z" fill="#FD5C54"/>
<g opacity="0.25">
<path d="M171.006 353.792L169.967 364.911C169.948 365.119 169.92 365.323 169.885 365.524C168.426 363.884 161.021 355.173 163.801 350.207C165.583 347.026 168.698 350.393 171.006 353.792Z" fill="black"/>
</g>
<path d="M184.056 337.883C187.078 347.782 183.943 357.512 177.052 359.616C170.162 361.72 162.126 355.401 159.104 345.502C156.082 335.603 159.217 325.873 166.107 323.769C172.998 321.665 181.034 327.984 184.056 337.883Z" fill="#FD5C54"/>
<path d="M160.085 348.857C160.085 348.857 166.026 344.144 161.006 334.608C161.006 334.608 183.918 339.736 185.75 324.155C187.581 308.574 175.501 306.991 170.19 312.038C164.758 317.201 157.702 310.843 147.428 322.941C140.277 331.361 143.49 359.119 159.642 355.543C159.642 355.543 161.778 354.402 160.085 348.857Z" fill="#422B9D"/>
<path d="M161.816 347.349C164.339 349.445 165.13 352.653 163.584 354.514C162.038 356.375 158.739 356.184 156.217 354.088C153.694 351.992 152.903 348.784 154.449 346.923C155.995 345.063 159.294 345.253 161.816 347.349Z" fill="#FD5C54"/>
<path d="M535.534 587.054C535.534 587.054 515.479 580.195 512.912 587.118C510.346 594.041 531.518 602.556 536.137 601.931C540.755 601.306 543.248 599.883 542.191 595.574C541.134 591.265 536.57 585.481 536.57 585.481L535.534 587.054Z" fill="black"/>
<path d="M512.364 537.19C512.364 537.19 511.162 527.382 500.691 527.827C490.219 528.272 491.365 542.774 494.716 569.037C498.068 595.3 497.875 607.198 500.777 612.949C502.793 616.945 510.304 615.897 510.69 611.419C511.076 606.94 512.969 542.421 512.364 537.19Z" fill="#422B9F"/>
<path d="M510.669 607.747C510.669 607.747 504.284 611.966 498.952 605.279C498.952 605.279 493.526 607.27 487.157 608.757C481.755 610.018 475.341 610.461 474.474 613.808C472.584 621.1 504.724 622.508 508.672 621.395C512.621 620.282 510.669 607.747 510.669 607.747Z" fill="black"/>
<path d="M518.559 476.803C518.559 476.803 512.366 526.699 512.694 535.46C513.021 544.221 509.113 553.234 497.525 549.516C490.323 547.205 491.851 536.326 491.087 525.159C490.323 513.991 487.377 471.439 487.377 471.439C487.377 471.439 514.303 450.713 518.559 476.803Z" fill="#422B9F"/>
<path d="M542.831 518.161C542.831 518.161 541.629 508.353 531.157 508.798C520.685 509.243 521.832 523.745 525.183 550.008C528.535 576.271 528.34 588.169 531.243 593.92C533.259 597.915 540.771 596.868 541.157 592.39C541.543 587.91 543.435 523.392 542.831 518.161Z" fill="#422B9F"/>
<path d="M549.025 457.773C549.025 457.773 542.832 507.669 543.16 516.43C543.488 525.191 539.58 534.204 527.992 530.486C520.79 528.175 522.317 517.297 521.554 506.129C520.79 494.961 517.844 452.409 517.844 452.409C517.844 452.409 544.769 431.683 549.025 457.773Z" fill="#422B9F"/>
<path d="M531.031 371.944V383.829C525.682 389.901 518.586 387.917 515.551 386.653V371.944H531.031Z" fill="#FD5C54"/>
<path d="M537.912 347.13C544.433 353.853 543.857 364.989 536.626 372.003C529.395 379.017 518.248 379.253 511.727 372.53C505.206 365.807 505.78 354.671 513.011 347.657C520.241 340.643 531.391 340.407 537.912 347.13Z" fill="#FD5C54"/>
<path d="M523.586 351.978C523.586 351.978 513.345 351.031 511.164 345.175C509.417 340.484 511.989 332.849 517.67 329.301C523.861 325.434 515.83 333.953 526.446 332.949C555.631 330.188 557.521 359.795 544.489 372.585C536.771 380.16 525.461 377.339 519.938 367.852C518.087 364.67 517.473 357.006 523.586 351.978Z" fill="#422B9F"/>
<path d="M549.761 391.75C549.761 391.75 551.333 398.852 538.686 405.207C526.039 411.562 495.732 418.913 488.071 414.75C480.41 410.587 480.959 397.766 496.188 394.125C511.417 390.484 535.048 382.646 542.154 385.069C549.26 387.492 549.761 391.75 549.761 391.75Z" fill="#6E59D3"/>
<path d="M501.214 404.205C501.214 404.205 492.488 381.042 487.02 369.944C481.551 358.846 480.08 357.843 475.416 359.486C470.752 361.129 474.615 373.972 476.277 382.839C477.939 391.706 479.906 412.279 488.368 414.936C496.83 417.593 502.955 409.805 501.214 404.205Z" fill="#6E59D3"/>
<path d="M482.159 360.94C482.289 363.565 475.825 366.89 472.625 363.981C469.426 361.072 461.9 346.011 463.301 343.073C464.702 340.134 472.89 341.318 478.336 352.231C478.336 352.231 477.223 345.089 480.497 346.328C482.078 346.926 481.745 352.581 482.159 360.94Z" fill="#FD5C54"/>
<path d="M552.382 417.816C551.169 447.535 551.585 464.336 549.589 467.43C547.592 470.525 528.974 495.726 486.711 476.705C486.711 476.705 487.311 462.537 488.684 447.717C490.299 430.28 493.766 410.897 493.974 405.634C494.358 395.898 502.291 390.135 502.291 390.135C505.346 388.705 509.667 387.521 514.731 386.285C517.55 385.598 520.597 384.893 523.784 384.121C525.829 383.625 528.608 383.2 531.613 383.128C537.038 382.997 543.207 384.019 547.153 387.868C552.496 393.081 552.948 403.975 552.382 417.816Z" fill="#B7E6FF"/>
<path d="M509.373 391.111C509.373 391.111 515.029 395.684 509.102 408.538C503.174 421.391 484.058 446.032 475.472 447.552C466.887 449.072 459.324 438.705 468.962 426.364C478.6 414.024 492.191 393.165 499.258 390.63C506.325 388.095 509.373 391.111 509.373 391.111Z" fill="#6E59D3"/>
<path d="M479.175 431.113C479.175 431.113 457.913 418.44 446.719 413.171C435.525 407.902 433.749 408.035 431.126 412.227C428.503 416.419 439.53 424.053 446.357 429.951C453.184 435.849 467.546 450.709 475.819 447.511C484.093 444.315 484.028 434.407 479.175 431.113Z" fill="#6E59D3"/>
<path d="M437.305 409.161C439.043 411.133 436.062 417.762 431.747 417.482C427.432 417.202 412.159 410.117 411.423 406.945C410.687 403.774 417.826 399.595 428.887 404.734C428.887 404.734 423.565 399.843 426.897 398.771C428.506 398.253 431.77 402.883 437.305 409.161Z" fill="#FD5C54"/>
<path d="M523.714 358.469C521.411 357.915 518.816 360.491 517.918 364.224C517.02 367.956 518.159 371.431 520.462 371.986C522.765 372.54 525.36 369.964 526.258 366.231C527.156 362.498 526.017 359.023 523.714 358.469Z" fill="#FD5C54"/>
<path d="M531.612 383.128C531.421 383.373 531.227 383.606 531.031 383.829C525.682 389.901 518.586 387.917 515.551 386.653C515.229 386.519 514.953 386.393 514.73 386.285C517.549 385.598 520.596 384.893 523.783 384.121C525.829 383.625 528.607 383.2 531.612 383.128Z" fill="#FD5C54"/>
</svg>
