<svg width="838" height="704" viewBox="0 0 838 704" fill="none" xmlns="http://www.w3.org/2000/svg">
<path d="M398.649 673.432L396.826 703.886L0.154785 475.971V442.617L398.649 673.432Z" fill="#E2E2ED"/>
<path d="M837.215 450.534L396.826 703.886L398.649 673.432L399.555 673.958L836.784 418.274L837.215 450.534Z" fill="#CACAE0"/>
<path d="M837.3 418.046L836.787 418.348L659.911 521.782L649.944 527.607L617.922 546.333L607.94 552.173L400.07 673.729L400.004 673.694L399.164 673.206L237.627 579.729L227.645 573.955L194.586 554.826L184.634 549.062L0.154785 442.617L211.48 317.617L221.528 311.889L260.371 289.749L270.449 284.005L439.718 187.533L618.26 291.048L628.162 296.792L662.972 316.973L672.859 322.707L824.937 410.878L837.3 418.046Z" fill="#EEEEFF"/>
<path d="M625.219 246.052C625.189 246.147 625.17 246.243 625.137 246.337C624.852 247.156 624.426 247.959 623.903 248.747C623.809 248.89 623.719 249.031 623.618 249.171C623.051 249.951 622.369 250.709 621.563 251.436C621.038 251.908 620.371 252.338 619.746 252.781C619.21 253.162 618.753 253.567 618.142 253.922L499.801 322.694L499.6 393.743L617.94 324.971C618.046 324.909 618.152 324.847 618.256 324.785C618.748 324.489 619.097 324.148 619.538 323.836C620.166 323.391 620.834 322.96 621.361 322.486C621.411 322.441 621.484 322.404 621.532 322.359C622.137 321.8 622.673 321.223 623.139 320.632C623.244 320.498 623.317 320.358 623.415 320.221C623.517 320.079 623.607 319.938 623.702 319.794C623.859 319.557 624.044 319.325 624.18 319.083C624.454 318.599 624.684 318.107 624.87 317.612C624.898 317.536 624.908 317.46 624.935 317.384C624.968 317.29 624.987 317.196 625.017 317.101C625.115 316.786 625.225 316.471 625.288 316.153C625.387 315.659 625.443 315.163 625.457 314.668C625.46 314.592 625.461 314.516 625.461 314.44L625.662 243.391C625.662 244.284 625.495 245.173 625.219 246.052Z" fill="#AFAFE0"/>
<path d="M344.107 253.939C339 250.991 336.455 247.125 336.466 243.266L336.264 314.314C336.254 318.173 338.798 322.039 343.905 324.989L462.992 393.744L463.194 322.696L344.107 253.939Z" fill="#AFAFE0"/>
<path d="M499.601 393.742L499.802 322.693C498.681 323.346 497.455 323.9 496.192 324.406C495.862 324.539 495.527 324.663 495.189 324.787C494.406 325.07 493.582 325.298 492.761 325.529C491.909 325.769 491.05 325.993 490.166 326.175C489.134 326.387 488.093 326.58 487.031 326.714C486.771 326.747 486.518 326.794 486.259 326.821C484.821 326.975 483.365 327.052 481.906 327.064C481.676 327.066 481.445 327.069 481.215 327.068C479.776 327.057 478.338 326.979 476.917 326.83C476.702 326.808 476.487 326.784 476.274 326.759C474.861 326.591 473.471 326.353 472.113 326.047C471.863 325.991 471.619 325.926 471.373 325.865C470.138 325.561 468.94 325.192 467.781 324.772C467.571 324.695 467.35 324.637 467.144 324.557C465.754 324.019 464.426 323.404 463.196 322.694L462.994 393.742C464.163 394.417 465.414 395.014 466.729 395.533C466.797 395.561 466.873 395.578 466.941 395.604C467.151 395.685 467.373 395.745 467.586 395.822C468.337 396.094 469.087 396.37 469.872 396.594C470.298 396.715 470.74 396.806 471.174 396.913C471.421 396.974 471.661 397.037 471.91 397.093C472.132 397.143 472.346 397.209 472.571 397.255C473.415 397.431 474.271 397.579 475.136 397.702C475.444 397.746 475.759 397.769 476.071 397.806C476.287 397.833 476.501 397.856 476.718 397.878C477.03 397.911 477.338 397.957 477.651 397.982C478.498 398.051 479.349 398.097 480.2 398.118C480.471 398.125 480.741 398.113 481.013 398.115C481.245 398.116 481.475 398.113 481.708 398.111C482.09 398.108 482.472 398.119 482.853 398.107C483.815 398.074 484.773 398.01 485.725 397.916C485.836 397.904 485.943 397.882 486.055 397.869C486.319 397.841 486.573 397.795 486.836 397.76C487.57 397.668 488.309 397.584 489.03 397.455C489.351 397.396 489.647 397.288 489.965 397.222C490.853 397.04 491.709 396.816 492.564 396.575C493.013 396.449 493.493 396.377 493.931 396.235C494.294 396.117 494.63 395.965 494.985 395.836C495.325 395.712 495.662 395.587 495.995 395.453C497.256 394.947 498.478 394.395 499.601 393.742Z" fill="#C5C5E8"/>
<path d="M618.023 232.717C628.178 238.58 628.204 248.074 618.142 253.922L499.802 322.694C489.74 328.541 473.349 328.557 463.194 322.694L344.107 253.939C333.951 248.075 333.926 238.582 343.988 232.734L462.328 163.962C472.39 158.115 488.78 158.098 498.936 163.962L618.023 232.717Z" fill="#DBDBF3"/>
<path d="M541.187 326.62L521.374 338.274C520.27 338.923 519.368 338.551 519.368 337.448C519.368 336.345 520.271 334.911 521.374 334.261L541.187 322.607C542.291 321.958 543.193 322.33 543.193 323.433C543.193 324.536 542.29 325.97 541.187 326.62Z" fill="#7C7CD6"/>
<path d="M572.539 308.177L552.726 319.832C551.622 320.481 550.72 320.109 550.72 319.006C550.72 317.902 551.623 316.468 552.726 315.819L572.539 304.165C573.643 303.516 574.545 303.888 574.545 304.991C574.545 306.094 573.642 307.528 572.539 308.177Z" fill="#7C7CD6"/>
<path d="M603.891 289.736L584.078 301.39C582.974 302.039 582.072 301.667 582.072 300.564C582.072 299.461 582.975 298.027 584.078 297.378L603.891 285.723C604.994 285.074 605.897 285.446 605.897 286.549C605.897 287.653 604.994 289.086 603.891 289.736Z" fill="#7C7CD6"/>
<path d="M541.187 336.385L521.374 348.039C520.27 348.688 519.368 348.316 519.368 347.213C519.368 346.109 520.271 344.676 521.374 344.026L541.187 332.371C542.291 331.722 543.193 332.094 543.193 333.197C543.193 334.302 542.29 335.736 541.187 336.385Z" fill="#7C7CD6"/>
<path d="M572.539 317.943L552.726 329.597C551.622 330.246 550.72 329.874 550.72 328.771C550.72 327.668 551.623 326.234 552.726 325.584L572.539 313.93C573.643 313.281 574.545 313.653 574.545 314.756C574.545 315.86 573.642 317.294 572.539 317.943Z" fill="#7C7CD6"/>
<path d="M603.891 299.501L584.078 311.155C582.974 311.804 582.072 311.432 582.072 310.329C582.072 309.225 582.975 307.791 584.078 307.142L603.891 295.488C604.994 294.839 605.897 295.211 605.897 296.314C605.897 297.418 604.994 298.852 603.891 299.501Z" fill="#7C7CD6"/>
<path d="M541.187 346.15L521.374 357.804C520.27 358.453 519.368 358.081 519.368 356.978C519.368 355.874 520.271 354.44 521.374 353.791L541.187 342.137C542.291 341.488 543.193 341.86 543.193 342.963C543.193 344.067 542.29 345.501 541.187 346.15Z" fill="#7C7CD6"/>
<path d="M572.539 327.708L552.726 339.362C551.622 340.011 550.72 339.639 550.72 338.536C550.72 337.433 551.623 335.999 552.726 335.349L572.539 323.695C573.643 323.046 574.545 323.418 574.545 324.521C574.545 325.625 573.642 327.059 572.539 327.708Z" fill="#7C7CD6"/>
<path d="M603.891 309.266L584.078 320.921C582.974 321.57 582.072 321.198 582.072 320.095C582.072 318.991 582.975 317.558 584.078 316.908L603.891 305.254C604.995 304.605 605.897 304.977 605.897 306.08C605.897 307.183 604.995 308.617 603.891 309.266Z" fill="#7C7CD6"/>
<path d="M437.043 322.14C437.041 322.088 437.038 322.036 437.035 321.984C437.032 321.932 437.027 321.88 437.022 321.827C437.017 321.774 437.012 321.722 437.006 321.669C436.999 321.615 436.991 321.561 436.983 321.507L436.982 321.497L436.98 321.493C436.972 321.443 436.964 321.393 436.954 321.343C436.944 321.287 436.933 321.231 436.921 321.174C436.909 321.118 436.895 321.061 436.881 321.004C436.867 320.947 436.852 320.889 436.836 320.832C436.823 320.785 436.809 320.737 436.794 320.69C436.793 320.687 436.792 320.684 436.792 320.684C436.789 320.674 436.787 320.667 436.785 320.66C436.768 320.604 436.749 320.548 436.73 320.492C436.711 320.437 436.693 320.381 436.673 320.326C436.654 320.273 436.634 320.22 436.613 320.167C436.592 320.114 436.57 320.061 436.548 320.009C436.531 319.967 436.513 319.924 436.495 319.882C436.494 319.879 436.493 319.876 436.491 319.874C436.488 319.867 436.485 319.86 436.482 319.853C436.459 319.8 436.435 319.748 436.41 319.695C436.383 319.638 436.355 319.58 436.327 319.523C436.294 319.458 436.26 319.393 436.225 319.328C436.187 319.257 436.148 319.187 436.107 319.117C436.1 319.105 436.094 319.093 436.087 319.081C436.079 319.067 436.072 319.053 436.064 319.04C435.987 318.908 435.906 318.779 435.821 318.653C435.755 318.554 435.686 318.457 435.616 318.361L435.615 318.359L435.613 318.357C435.566 318.293 435.518 318.229 435.469 318.166C435.428 318.114 435.385 318.062 435.342 318.011C435.301 317.961 435.26 317.912 435.217 317.864C435.175 317.816 435.133 317.769 435.09 317.723C435.082 317.715 435.073 317.707 435.066 317.699C435.063 317.695 435.06 317.692 435.057 317.688C435.023 317.653 434.991 317.617 434.957 317.583C434.912 317.537 434.865 317.492 434.819 317.447C434.772 317.402 434.725 317.357 434.677 317.314C434.629 317.271 434.581 317.229 434.532 317.188C434.509 317.168 434.485 317.15 434.461 317.13C434.455 317.125 434.45 317.121 434.444 317.116C434.425 317.1 434.406 317.085 434.387 317.07C434.34 317.033 434.293 316.996 434.245 316.961C434.198 316.927 434.151 316.893 434.104 316.861C434.059 316.83 434.013 316.8 433.966 316.77C433.921 316.741 433.875 316.713 433.829 316.686C433.819 316.68 433.808 316.674 433.797 316.667L369.011 279.452C368.977 279.432 368.942 279.413 368.909 279.395C368.865 279.371 368.821 279.348 368.777 279.327C368.733 279.305 368.69 279.285 368.647 279.266C368.604 279.246 368.561 279.228 368.518 279.211C368.475 279.193 368.431 279.177 368.388 279.162C368.378 279.158 368.369 279.156 368.359 279.153L368.349 279.15C368.319 279.14 368.288 279.129 368.259 279.12C368.214 279.106 368.169 279.094 368.125 279.083C368.08 279.072 368.036 279.062 367.992 279.053C367.944 279.044 367.897 279.036 367.85 279.029C367.816 279.025 367.783 279.022 367.749 279.019C367.745 279.018 367.74 279.018 367.74 279.018C367.726 279.017 367.715 279.015 367.715 279.015C367.653 279.011 367.602 279.009 367.552 279.009C367.495 279.009 367.438 279.012 367.383 279.017C367.319 279.023 367.256 279.032 367.195 279.044C367.193 279.044 367.191 279.045 367.191 279.045L367.18 279.048C367.107 279.063 367.036 279.082 366.967 279.107C366.875 279.14 366.786 279.181 366.703 279.229L363.167 281.35C363.313 281.265 363.473 281.205 363.645 281.169C363.645 281.169 363.651 281.167 363.654 281.166C363.826 281.131 364.008 281.121 364.201 281.137C364.205 281.137 364.21 281.138 364.21 281.138C364.406 281.155 364.607 281.198 364.814 281.268C364.818 281.269 364.821 281.27 364.824 281.272C365.035 281.344 365.253 281.443 365.477 281.572L430.263 318.787C430.484 318.915 430.7 319.066 430.909 319.235C430.915 319.24 430.921 319.245 430.927 319.249C431.133 319.417 431.332 319.604 431.522 319.806C431.525 319.81 431.529 319.813 431.532 319.817C431.725 320.023 431.907 320.244 432.079 320.476V320.477C432.249 320.707 432.408 320.95 432.552 321.199C432.559 321.211 432.565 321.223 432.572 321.235C432.713 321.481 432.841 321.734 432.954 321.992C432.955 321.995 432.957 321.998 432.959 322C433.074 322.264 433.173 322.531 433.255 322.799C433.255 322.799 433.257 322.805 433.258 322.808C433.339 323.076 433.401 323.345 433.444 323.61L433.446 323.614C433.489 323.881 433.51 324.145 433.509 324.401C433.508 324.653 433.486 324.887 433.443 325.101C433.442 325.107 433.44 325.114 433.439 325.12C433.396 325.331 433.334 325.524 433.254 325.696C433.253 325.698 433.252 325.701 433.251 325.703C433.183 325.847 433.097 325.967 433.006 326.081C432.976 326.119 432.948 326.159 432.915 326.193C432.807 326.308 432.691 326.41 432.558 326.487L436.094 324.366C436.226 324.289 436.343 324.187 436.451 324.072C436.484 324.037 436.511 323.998 436.542 323.96C436.581 323.911 436.625 323.868 436.66 323.813C436.704 323.743 436.747 323.669 436.784 323.59C436.785 323.587 436.786 323.584 436.787 323.582C436.788 323.58 436.789 323.577 436.79 323.575C436.815 323.52 436.84 323.464 436.861 323.405C436.882 323.35 436.9 323.293 436.918 323.234C436.934 323.18 436.948 323.125 436.961 323.068C436.966 323.046 436.97 323.022 436.975 322.999C436.977 322.992 436.978 322.986 436.979 322.979C436.984 322.956 436.989 322.933 436.993 322.909C437.002 322.858 437.01 322.807 437.016 322.754C437.022 322.703 437.028 322.651 437.032 322.598C437.036 322.548 437.039 322.497 437.042 322.445C437.044 322.394 437.045 322.341 437.045 322.289C437.045 322.289 437.045 322.283 437.045 322.28C437.046 322.237 437.045 322.189 437.043 322.14Z" fill="#7C7CD6"/>
<path d="M430.262 318.791C432.056 319.827 433.514 322.351 433.508 324.406C433.502 326.468 432.036 327.304 430.241 326.268L365.455 289.053C363.666 288.02 362.209 285.496 362.215 283.435C362.221 281.38 363.688 280.544 365.476 281.576L430.262 318.791Z" fill="white"/>
<path d="M430.262 318.791L365.476 281.576C364.593 281.066 363.79 281.014 363.201 281.336C363.746 281.179 364.421 281.284 365.151 281.706L429.937 318.921C431.731 319.957 433.189 322.481 433.183 324.537C433.18 325.581 432.801 326.309 432.196 326.64C432.987 326.412 433.504 325.626 433.507 324.407C433.514 322.351 432.057 319.827 430.262 318.791Z" fill="white"/>
<path d="M437.043 339.657C437.041 339.605 437.039 339.554 437.036 339.502C437.033 339.45 437.028 339.397 437.023 339.345C437.018 339.292 437.012 339.24 437.006 339.187C436.999 339.133 436.991 339.079 436.983 339.025C436.983 339.025 436.982 339.019 436.981 339.015L436.98 339.011C436.972 338.961 436.964 338.911 436.954 338.861C436.944 338.805 436.932 338.748 436.92 338.692C436.908 338.636 436.894 338.579 436.88 338.522C436.866 338.465 436.851 338.407 436.835 338.35C436.822 338.303 436.808 338.255 436.793 338.208C436.793 338.208 436.791 338.202 436.79 338.199C436.788 338.192 436.786 338.185 436.784 338.178C436.767 338.122 436.749 338.066 436.73 338.01C436.711 337.954 436.692 337.899 436.672 337.844C436.652 337.791 436.633 337.738 436.612 337.685C436.591 337.632 436.57 337.579 436.548 337.527C436.531 337.485 436.512 337.442 436.494 337.4C436.493 337.397 436.492 337.394 436.49 337.392C436.487 337.385 436.484 337.378 436.481 337.371C436.458 337.318 436.434 337.266 436.409 337.213C436.382 337.155 436.354 337.098 436.326 337.041C436.293 336.976 436.26 336.911 436.225 336.846C436.187 336.775 436.147 336.705 436.107 336.635C436.1 336.623 436.094 336.611 436.087 336.599C436.079 336.585 436.072 336.571 436.064 336.558C435.987 336.426 435.906 336.297 435.821 336.171C435.755 336.072 435.686 335.974 435.616 335.879L435.614 335.876V335.875C435.566 335.811 435.518 335.747 435.469 335.684C435.428 335.632 435.386 335.58 435.344 335.529C435.302 335.479 435.26 335.43 435.218 335.382C435.176 335.334 435.134 335.287 435.091 335.241C435.083 335.233 435.075 335.225 435.068 335.217C435.065 335.213 435.061 335.21 435.058 335.206C435.025 335.171 434.992 335.135 434.958 335.101C434.913 335.055 434.867 335.01 434.821 334.965C434.774 334.92 434.726 334.875 434.678 334.832C434.63 334.789 434.582 334.747 434.533 334.706C434.51 334.686 434.486 334.668 434.463 334.649C434.457 334.644 434.452 334.64 434.446 334.635C434.427 334.619 434.408 334.604 434.389 334.589C434.342 334.552 434.294 334.516 434.247 334.48C434.2 334.445 434.153 334.412 434.106 334.38C434.06 334.349 434.015 334.318 433.969 334.289C433.923 334.26 433.878 334.232 433.832 334.205C433.821 334.199 433.811 334.192 433.8 334.186L369.014 296.971C368.98 296.951 368.946 296.932 368.912 296.914C368.868 296.89 368.824 296.867 368.78 296.846C368.736 296.824 368.693 296.804 368.65 296.785C368.607 296.766 368.564 296.747 368.521 296.73C368.477 296.712 368.434 296.696 368.391 296.681C368.381 296.678 368.372 296.675 368.362 296.672C368.362 296.672 368.355 296.67 368.352 296.669C368.322 296.659 368.291 296.648 368.261 296.639C368.216 296.625 368.171 296.613 368.127 296.602C368.082 296.591 368.038 296.581 367.994 296.572C367.946 296.563 367.899 296.555 367.852 296.548C367.818 296.544 367.785 296.541 367.751 296.538L367.738 296.537C367.728 296.536 367.718 296.535 367.718 296.535C367.656 296.531 367.605 296.529 367.555 296.529C367.498 296.529 367.441 296.532 367.386 296.537C367.322 296.543 367.259 296.552 367.198 296.564L367.192 296.566L367.183 296.569C367.11 296.584 367.039 296.603 366.97 296.628C366.878 296.661 366.789 296.702 366.706 296.75L363.17 298.871C363.316 298.786 363.476 298.726 363.648 298.69C363.651 298.689 363.654 298.688 363.654 298.688C363.829 298.652 364.012 298.643 364.204 298.658L364.217 298.659C364.408 298.676 364.609 298.719 364.817 298.789C364.821 298.79 364.824 298.791 364.828 298.793C365.039 298.865 365.257 298.964 365.481 299.093L430.267 336.308C430.488 336.436 430.704 336.587 430.913 336.756C430.919 336.761 430.925 336.765 430.931 336.77C431.137 336.938 431.336 337.125 431.526 337.327C431.529 337.331 431.533 337.334 431.536 337.338C431.729 337.544 431.912 337.765 432.084 337.997V337.998C432.254 338.228 432.411 338.47 432.556 338.72C432.563 338.732 432.569 338.744 432.576 338.756C432.717 339.002 432.846 339.256 432.959 339.513C432.96 339.516 432.962 339.519 432.963 339.521C433.078 339.785 433.178 340.052 433.259 340.32C433.26 340.323 433.261 340.326 433.261 340.326C433.343 340.597 433.406 340.866 433.448 341.131L433.449 341.135C433.492 341.402 433.514 341.666 433.513 341.922C433.512 342.174 433.489 342.408 433.446 342.622C433.445 342.628 433.443 342.635 433.443 342.635C433.399 342.853 433.336 343.045 433.256 343.217C433.256 343.217 433.254 343.222 433.253 343.224C433.185 343.368 433.099 343.488 433.008 343.602C432.978 343.64 432.95 343.68 432.917 343.714C432.809 343.829 432.692 343.931 432.56 344.008L436.096 341.887C436.228 341.81 436.345 341.708 436.453 341.593C436.486 341.558 436.514 341.519 436.544 341.481C436.583 341.432 436.628 341.389 436.663 341.334C436.707 341.264 436.749 341.19 436.786 341.111C436.786 341.111 436.788 341.105 436.789 341.103C436.789 341.103 436.791 341.098 436.792 341.096C436.817 341.041 436.841 340.985 436.863 340.926C436.884 340.871 436.902 340.814 436.92 340.755C436.936 340.701 436.95 340.646 436.963 340.589C436.968 340.567 436.972 340.543 436.977 340.52C436.979 340.513 436.98 340.507 436.981 340.5C436.986 340.477 436.991 340.454 436.995 340.43C437.004 340.379 437.011 340.328 437.018 340.275C437.024 340.224 437.03 340.172 437.034 340.119C437.038 340.069 437.041 340.018 437.044 339.966C437.046 339.915 437.047 339.862 437.048 339.81V339.801C437.046 339.754 437.045 339.706 437.043 339.657Z" fill="#7C7CD6"/>
<path d="M430.263 336.308C432.057 337.344 433.515 339.868 433.509 341.923C433.503 343.985 432.036 344.82 430.242 343.785L365.456 306.57C363.667 305.537 362.21 303.013 362.216 300.952C362.222 298.897 363.689 298.061 365.477 299.093L430.263 336.308Z" fill="white"/>
<path d="M430.263 336.308L365.477 299.093C364.594 298.583 363.791 298.53 363.202 298.853C363.747 298.696 364.422 298.801 365.153 299.223L429.939 336.438C431.734 337.474 433.191 339.998 433.185 342.054C433.182 343.098 432.803 343.826 432.198 344.157C432.989 343.929 433.506 343.143 433.509 341.924C433.515 339.868 432.058 337.344 430.263 336.308Z" fill="white"/>
<path d="M437.044 357.175C437.042 357.123 437.04 357.072 437.037 357.019C437.034 356.967 437.029 356.915 437.024 356.862C437.019 356.809 437.013 356.757 437.006 356.704C436.999 356.65 436.991 356.596 436.983 356.542C436.983 356.542 436.983 356.536 436.982 356.532L436.98 356.529C436.972 356.478 436.964 356.428 436.954 356.378C436.943 356.322 436.932 356.266 436.92 356.209C436.908 356.153 436.894 356.096 436.88 356.039C436.866 355.982 436.852 355.924 436.836 355.867C436.823 355.82 436.809 355.772 436.794 355.725C436.793 355.722 436.792 355.719 436.792 355.719C436.789 355.709 436.786 355.702 436.784 355.695C436.767 355.639 436.749 355.583 436.73 355.527C436.711 355.471 436.692 355.416 436.672 355.361C436.653 355.308 436.633 355.255 436.612 355.202C436.591 355.149 436.57 355.096 436.548 355.044C436.531 355.002 436.513 354.959 436.495 354.917C436.494 354.914 436.492 354.911 436.49 354.909C436.487 354.902 436.485 354.895 436.482 354.888C436.459 354.835 436.434 354.783 436.409 354.73C436.382 354.673 436.354 354.615 436.326 354.558C436.293 354.493 436.26 354.427 436.225 354.363C436.187 354.292 436.147 354.222 436.107 354.152C436.1 354.14 436.094 354.128 436.087 354.116C436.079 354.102 436.073 354.088 436.065 354.075C435.988 353.944 435.906 353.814 435.821 353.688C435.755 353.589 435.687 353.491 435.617 353.396L435.615 353.394L435.613 353.393C435.565 353.329 435.518 353.265 435.469 353.202C435.428 353.15 435.385 353.098 435.342 353.047C435.301 352.997 435.259 352.948 435.216 352.9C435.174 352.852 435.132 352.805 435.089 352.759C435.081 352.751 435.074 352.743 435.066 352.735C435.063 352.731 435.06 352.728 435.057 352.724C435.023 352.689 434.99 352.653 434.956 352.619C434.911 352.573 434.865 352.528 434.819 352.483C434.772 352.438 434.725 352.393 434.677 352.35C434.629 352.307 434.58 352.265 434.531 352.224C434.508 352.204 434.485 352.186 434.461 352.167C434.455 352.162 434.449 352.158 434.443 352.153C434.424 352.138 434.405 352.122 434.386 352.107C434.339 352.07 434.292 352.034 434.245 351.998C434.198 351.964 434.151 351.93 434.104 351.898C434.059 351.867 434.012 351.836 433.966 351.807C433.921 351.778 433.874 351.75 433.828 351.723C433.818 351.717 433.808 351.711 433.797 351.704L369.01 314.489C368.976 314.469 368.942 314.45 368.908 314.432C368.864 314.408 368.82 314.385 368.776 314.364C368.732 314.342 368.689 314.322 368.646 314.303C368.603 314.284 368.559 314.265 368.517 314.248C368.473 314.23 368.43 314.214 368.387 314.199C368.377 314.196 368.368 314.193 368.358 314.19C368.354 314.189 368.351 314.188 368.348 314.187C368.318 314.177 368.288 314.166 368.258 314.157C368.213 314.144 368.168 314.131 368.124 314.12C368.079 314.109 368.035 314.099 367.991 314.09C367.943 314.081 367.896 314.073 367.849 314.067C367.815 314.062 367.782 314.06 367.748 314.057L367.735 314.056C367.725 314.055 367.714 314.054 367.705 314.053C367.653 314.049 367.602 314.048 367.552 314.048C367.495 314.048 367.438 314.051 367.383 314.056C367.319 314.062 367.256 314.071 367.195 314.083L367.189 314.085C367.186 314.085 367.184 314.087 367.184 314.087C367.108 314.103 367.035 314.122 366.967 314.146C366.875 314.179 366.786 314.22 366.703 314.268L363.167 316.389C363.313 316.304 363.474 316.244 363.645 316.208C363.645 316.208 363.651 316.206 363.654 316.205C363.826 316.17 364.008 316.16 364.201 316.176L364.215 316.177C364.406 316.194 364.607 316.237 364.815 316.307L364.826 316.31C365.037 316.382 365.254 316.481 365.478 316.61L430.264 353.825C430.485 353.953 430.701 354.104 430.91 354.274C430.916 354.279 430.922 354.283 430.928 354.288C431.134 354.457 431.333 354.643 431.523 354.845C431.526 354.849 431.531 354.852 431.534 354.856C431.727 355.062 431.909 355.283 432.081 355.515V355.516C432.251 355.746 432.408 355.988 432.553 356.238C432.56 356.25 432.566 356.262 432.573 356.274C432.714 356.52 432.843 356.773 432.956 357.031C432.957 357.034 432.96 357.037 432.961 357.039C433.076 357.303 433.174 357.57 433.256 357.838C433.256 357.838 433.258 357.844 433.259 357.847C433.34 358.115 433.403 358.384 433.445 358.649L433.446 358.653C433.489 358.92 433.511 359.184 433.51 359.44C433.509 359.692 433.486 359.926 433.443 360.14C433.442 360.146 433.442 360.153 433.44 360.159C433.397 360.37 433.335 360.563 433.255 360.735C433.254 360.737 433.252 360.74 433.251 360.742C433.183 360.886 433.097 361.006 433.006 361.12C432.976 361.158 432.948 361.198 432.915 361.232C432.807 361.347 432.691 361.449 432.558 361.525L436.094 359.404C436.226 359.327 436.343 359.225 436.451 359.11C436.484 359.075 436.511 359.036 436.542 358.998C436.581 358.949 436.626 358.906 436.661 358.851C436.705 358.781 436.747 358.707 436.784 358.628C436.784 358.628 436.786 358.622 436.787 358.62C436.788 358.618 436.789 358.615 436.79 358.613C436.815 358.558 436.84 358.502 436.862 358.443C436.882 358.388 436.901 358.331 436.919 358.272C436.935 358.218 436.948 358.163 436.961 358.106C436.966 358.084 436.97 358.06 436.975 358.037C436.977 358.03 436.978 358.024 436.979 358.017C436.984 357.994 436.989 357.97 436.993 357.947C437.002 357.896 437.009 357.845 437.016 357.792C437.022 357.741 437.028 357.689 437.032 357.636C437.036 357.586 437.039 357.535 437.042 357.484C437.044 357.433 437.045 357.38 437.045 357.328C437.045 357.325 437.045 357.322 437.045 357.322C437.047 357.271 437.046 357.223 437.044 357.175Z" fill="#7C7CD6"/>
<path d="M430.264 353.825C432.058 354.861 433.516 357.385 433.51 359.44C433.504 361.502 432.037 362.338 430.243 361.302L365.457 324.087C363.668 323.054 362.211 320.53 362.217 318.468C362.223 316.412 363.689 315.577 365.478 316.61L430.264 353.825Z" fill="white"/>
<path d="M430.264 353.826L365.478 316.611C364.595 316.101 363.792 316.048 363.203 316.371C363.748 316.214 364.423 316.319 365.153 316.741L429.939 353.956C431.733 354.992 433.191 357.516 433.185 359.572C433.182 360.616 432.803 361.344 432.198 361.676C432.989 361.448 433.506 360.662 433.509 359.443C433.516 357.387 432.059 354.862 430.264 353.826Z" fill="white"/>
<path d="M625.219 166.434C625.189 166.529 625.17 166.624 625.137 166.719C624.852 167.538 624.426 168.341 623.903 169.129C623.809 169.271 623.719 169.413 623.618 169.553C623.051 170.333 622.369 171.091 621.563 171.818C621.038 172.29 620.371 172.72 619.746 173.163C619.21 173.544 618.753 173.949 618.143 174.304L499.802 243.076L499.601 314.125L617.941 245.352C618.047 245.29 618.153 245.229 618.257 245.166C618.749 244.87 619.098 244.529 619.539 244.217C620.167 243.772 620.835 243.341 621.361 242.867C621.411 242.822 621.484 242.785 621.532 242.74C622.137 242.181 622.673 241.604 623.139 241.013C623.244 240.879 623.317 240.738 623.416 240.602C623.518 240.46 623.608 240.319 623.703 240.175C623.861 239.938 624.046 239.706 624.181 239.464C624.455 238.98 624.685 238.488 624.871 237.993C624.899 237.917 624.909 237.841 624.936 237.765C624.969 237.671 624.988 237.577 625.018 237.482C625.116 237.167 625.226 236.852 625.289 236.534C625.388 236.04 625.444 235.544 625.458 235.049C625.461 234.973 625.462 234.897 625.462 234.821L625.663 163.773C625.662 164.665 625.495 165.555 625.219 166.434Z" fill="#AFAFE0"/>
<path d="M344.107 174.32C339 171.372 336.455 167.506 336.466 163.647L336.264 234.695C336.253 238.554 338.798 242.42 343.905 245.37L462.992 314.125L463.194 243.077L344.107 174.32Z" fill="#AFAFE0"/>
<path d="M499.601 314.125L499.802 243.076C498.68 243.729 497.455 244.283 496.192 244.789C495.862 244.922 495.527 245.047 495.189 245.17C494.406 245.453 493.582 245.681 492.761 245.912C491.909 246.152 491.05 246.376 490.166 246.558C489.134 246.77 488.093 246.963 487.031 247.097C486.771 247.13 486.518 247.177 486.259 247.205C484.82 247.359 483.365 247.436 481.906 247.448C481.676 247.45 481.445 247.453 481.215 247.452C479.775 247.442 478.338 247.363 476.917 247.214C476.702 247.192 476.487 247.168 476.274 247.143C474.861 246.975 473.471 246.737 472.113 246.431C471.863 246.375 471.619 246.31 471.372 246.249C470.137 245.945 468.939 245.577 467.78 245.156C467.57 245.079 467.349 245.021 467.143 244.941C465.753 244.403 464.425 243.788 463.195 243.078L462.993 314.126C464.162 314.8 465.414 315.397 466.728 315.916C466.796 315.944 466.872 315.961 466.94 315.987C467.15 316.068 467.372 316.128 467.585 316.205C468.336 316.478 469.086 316.753 469.871 316.977C470.297 317.098 470.739 317.189 471.173 317.296C471.42 317.357 471.66 317.419 471.909 317.476C472.131 317.526 472.345 317.592 472.57 317.638C473.414 317.814 474.27 317.962 475.135 318.085C475.443 318.129 475.758 318.152 476.07 318.189C476.286 318.215 476.5 318.239 476.717 318.261C477.029 318.294 477.337 318.34 477.65 318.365C478.497 318.434 479.348 318.48 480.199 318.501C480.47 318.508 480.741 318.496 481.012 318.498C481.244 318.499 481.474 318.496 481.707 318.494C482.089 318.491 482.471 318.503 482.852 318.49C483.814 318.457 484.773 318.393 485.724 318.299C485.835 318.287 485.942 318.265 486.054 318.252C486.318 318.224 486.572 318.178 486.835 318.143C487.569 318.051 488.307 317.967 489.029 317.838C489.35 317.78 489.646 317.671 489.964 317.605C490.852 317.423 491.708 317.199 492.563 316.958C493.012 316.832 493.492 316.76 493.93 316.617C494.293 316.499 494.629 316.347 494.984 316.218C495.324 316.093 495.661 315.969 495.994 315.835C497.256 315.329 498.478 314.777 499.601 314.125Z" fill="#C5C5E8"/>
<path d="M618.023 153.1C628.179 158.963 628.204 168.458 618.143 174.305L499.803 243.077C489.741 248.924 473.35 248.94 463.195 243.077L344.108 174.322C333.952 168.458 333.927 158.965 343.989 153.117L462.329 84.3448C472.391 78.4978 488.781 78.4808 498.937 84.3448L618.023 153.1Z" fill="#DBDBF3"/>
<path d="M541.187 247.001L521.374 258.655C520.27 259.304 519.368 258.932 519.368 257.829C519.368 256.725 520.271 255.292 521.374 254.642L541.187 242.988C542.291 242.339 543.193 242.711 543.193 243.814C543.193 244.918 542.29 246.352 541.187 247.001Z" fill="#7C7CD6"/>
<path d="M572.539 228.559L552.726 240.213C551.622 240.862 550.72 240.49 550.72 239.387C550.72 238.283 551.623 236.849 552.726 236.2L572.539 224.546C573.643 223.897 574.546 224.269 574.546 225.372C574.545 226.476 573.642 227.91 572.539 228.559Z" fill="#7C7CD6"/>
<path d="M603.891 210.118L584.078 221.773C582.974 222.422 582.072 222.05 582.072 220.947C582.072 219.844 582.975 218.41 584.078 217.761L603.891 206.107C604.994 205.458 605.897 205.83 605.897 206.933C605.897 208.035 604.994 209.469 603.891 210.118Z" fill="#7C7CD6"/>
<path d="M541.187 256.766L521.374 268.421C520.27 269.07 519.368 268.698 519.368 267.595C519.368 266.491 520.271 265.058 521.374 264.408L541.187 252.754C542.291 252.105 543.193 252.477 543.193 253.58C543.193 254.683 542.29 256.117 541.187 256.766Z" fill="#7C7CD6"/>
<path d="M572.539 238.326L552.726 249.98C551.622 250.629 550.72 250.257 550.72 249.154C550.72 248.05 551.623 246.616 552.726 245.967L572.539 234.313C573.643 233.664 574.546 234.036 574.546 235.139C574.545 236.242 573.642 237.677 572.539 238.326Z" fill="#7C7CD6"/>
<path d="M603.891 219.884L584.078 231.538C582.974 232.187 582.072 231.815 582.072 230.712C582.072 229.609 582.975 228.174 584.078 227.525L603.891 215.871C604.994 215.222 605.897 215.594 605.897 216.697C605.897 217.801 604.994 219.235 603.891 219.884Z" fill="#7C7CD6"/>
<path d="M541.187 266.533L521.374 278.187C520.27 278.836 519.368 278.464 519.368 277.361C519.368 276.258 520.271 274.823 521.374 274.175L541.187 262.521C542.29 261.872 543.193 262.244 543.193 263.347C543.193 264.45 542.29 265.884 541.187 266.533Z" fill="#7C7CD6"/>
<path d="M572.539 248.091L552.726 259.745C551.623 260.394 550.72 260.022 550.72 258.919C550.72 257.815 551.623 256.381 552.726 255.732L572.539 244.077C573.643 243.428 574.546 243.8 574.546 244.903C574.545 246.008 573.642 247.442 572.539 248.091Z" fill="#7C7CD6"/>
<path d="M603.891 229.648L584.078 241.302C582.974 241.951 582.072 241.579 582.072 240.476C582.072 239.372 582.975 237.938 584.078 237.289L603.891 225.635C604.995 224.986 605.897 225.358 605.897 226.461C605.897 227.565 604.994 228.999 603.891 229.648Z" fill="#7C7CD6"/>
<path d="M437.042 242.523C437.04 242.471 437.038 242.42 437.035 242.367C437.032 242.315 437.027 242.263 437.022 242.21C437.017 242.158 437.011 242.105 437.005 242.052C436.998 241.998 436.99 241.944 436.982 241.89L436.981 241.88L436.98 241.876C436.972 241.826 436.964 241.776 436.954 241.726C436.944 241.67 436.932 241.614 436.92 241.557C436.908 241.501 436.894 241.444 436.88 241.387C436.866 241.33 436.851 241.272 436.835 241.215C436.822 241.168 436.808 241.12 436.794 241.073C436.794 241.073 436.792 241.067 436.791 241.064C436.789 241.057 436.787 241.05 436.785 241.043C436.768 240.987 436.75 240.931 436.731 240.875C436.712 240.82 436.693 240.764 436.673 240.709C436.654 240.656 436.634 240.603 436.613 240.549C436.592 240.496 436.571 240.443 436.549 240.391C436.532 240.349 436.513 240.306 436.495 240.264C436.494 240.261 436.493 240.258 436.492 240.256C436.489 240.249 436.486 240.241 436.483 240.234C436.46 240.181 436.436 240.13 436.411 240.077C436.384 240.019 436.356 239.962 436.328 239.905C436.295 239.839 436.262 239.774 436.227 239.71C436.189 239.639 436.149 239.569 436.109 239.499C436.102 239.487 436.096 239.475 436.089 239.463C436.081 239.45 436.074 239.435 436.066 239.422C435.989 239.291 435.908 239.161 435.823 239.035C435.757 238.936 435.688 238.838 435.618 238.743L435.617 238.741L435.616 238.739C435.569 238.675 435.52 238.611 435.471 238.548C435.43 238.496 435.388 238.444 435.345 238.393C435.303 238.343 435.262 238.294 435.219 238.246C435.177 238.198 435.135 238.151 435.092 238.105C435.084 238.097 435.076 238.089 435.069 238.081C435.066 238.077 435.062 238.074 435.059 238.071C435.025 238.036 434.993 238 434.959 237.966C434.914 237.92 434.868 237.874 434.822 237.829C434.775 237.784 434.727 237.74 434.679 237.697C434.631 237.654 434.583 237.612 434.534 237.571C434.511 237.551 434.487 237.533 434.464 237.513C434.458 237.508 434.453 237.504 434.447 237.499C434.428 237.484 434.409 237.468 434.39 237.453C434.343 237.416 434.295 237.379 434.248 237.344C434.201 237.31 434.154 237.275 434.107 237.243C434.061 237.212 434.015 237.182 433.969 237.153C433.923 237.124 433.878 237.096 433.832 237.069C433.821 237.063 433.811 237.057 433.8 237.051L369.014 199.836C368.98 199.816 368.946 199.797 368.912 199.779C368.868 199.755 368.824 199.732 368.78 199.711C368.736 199.689 368.693 199.669 368.65 199.65C368.607 199.631 368.564 199.612 368.521 199.595C368.478 199.577 368.434 199.561 368.391 199.546C368.381 199.543 368.372 199.539 368.362 199.536L368.352 199.534C368.322 199.524 368.291 199.514 368.262 199.504C368.217 199.491 368.172 199.478 368.128 199.467C368.083 199.456 368.039 199.446 367.995 199.438C367.947 199.429 367.9 199.421 367.853 199.415C367.819 199.411 367.786 199.408 367.752 199.405L367.739 199.404C367.729 199.403 367.718 199.402 367.718 199.402C367.656 199.398 367.605 199.396 367.555 199.396C367.498 199.396 367.441 199.399 367.386 199.404C367.322 199.41 367.259 199.419 367.198 199.431L367.192 199.433L367.183 199.435C367.11 199.45 367.039 199.468 366.97 199.493C366.878 199.526 366.789 199.568 366.706 199.616L363.17 201.737C363.316 201.652 363.476 201.592 363.648 201.556C363.648 201.556 363.654 201.554 363.657 201.553C363.829 201.518 364.012 201.507 364.204 201.523L364.217 201.525C364.408 201.542 364.609 201.585 364.817 201.655C364.821 201.656 364.824 201.657 364.824 201.657C365.039 201.73 365.257 201.829 365.48 201.958L430.266 239.173C430.487 239.301 430.703 239.452 430.912 239.621C430.918 239.626 430.924 239.631 430.929 239.635C431.135 239.804 431.334 239.989 431.524 240.191C431.527 240.195 431.531 240.199 431.534 240.203C431.727 240.409 431.91 240.63 432.082 240.862V240.863C432.252 241.094 432.41 241.336 432.554 241.585C432.561 241.597 432.567 241.609 432.574 241.621C432.715 241.867 432.844 242.12 432.957 242.378C432.958 242.381 432.959 242.383 432.961 242.385C433.076 242.649 433.175 242.917 433.257 243.186C433.257 243.186 433.259 243.192 433.26 243.195C433.341 243.463 433.404 243.732 433.447 243.997V244.001C433.49 244.268 433.512 244.532 433.511 244.788C433.51 245.04 433.487 245.274 433.444 245.488C433.443 245.494 433.441 245.501 433.44 245.507C433.397 245.718 433.335 245.911 433.255 246.082C433.254 246.084 433.253 246.087 433.253 246.087C433.184 246.233 433.097 246.352 433.006 246.467C432.976 246.505 432.948 246.545 432.915 246.579C432.807 246.694 432.691 246.797 432.558 246.874L436.094 244.753C436.226 244.676 436.343 244.574 436.451 244.459C436.484 244.424 436.511 244.384 436.542 244.346C436.581 244.297 436.626 244.255 436.661 244.2C436.706 244.13 436.747 244.056 436.784 243.977C436.785 243.974 436.786 243.972 436.787 243.969C436.788 243.967 436.789 243.964 436.79 243.962C436.816 243.907 436.84 243.851 436.861 243.792C436.882 243.737 436.9 243.68 436.918 243.621C436.934 243.567 436.948 243.511 436.961 243.454C436.966 243.432 436.97 243.408 436.975 243.385C436.976 243.379 436.978 243.373 436.979 243.366C436.984 243.343 436.989 243.319 436.993 243.296C437.002 243.245 437.01 243.194 437.016 243.141C437.022 243.09 437.028 243.037 437.032 242.984C437.036 242.934 437.039 242.884 437.042 242.833C437.044 242.782 437.045 242.73 437.045 242.677C437.045 242.677 437.045 242.671 437.045 242.668C437.045 242.62 437.044 242.571 437.042 242.523Z" fill="#7C7CD6"/>
<path d="M430.262 239.173C432.056 240.209 433.514 242.733 433.508 244.789C433.502 246.851 432.036 247.686 430.241 246.651L365.455 209.436C363.666 208.403 362.209 205.879 362.215 203.817C362.221 201.762 363.687 200.926 365.476 201.959L430.262 239.173Z" fill="white"/>
<path d="M430.262 239.173L365.476 201.958C364.593 201.448 363.79 201.395 363.201 201.718C363.746 201.561 364.421 201.666 365.151 202.088L429.937 239.303C431.731 240.339 433.189 242.863 433.183 244.918C433.18 245.962 432.801 246.69 432.196 247.022C432.987 246.794 433.504 246.008 433.507 244.789C433.514 242.733 432.057 240.209 430.262 239.173Z" fill="white"/>
<path d="M437.043 260.04C437.041 259.988 437.039 259.936 437.036 259.884C437.033 259.832 437.028 259.78 437.023 259.727C437.018 259.675 437.012 259.622 437.006 259.569C436.999 259.515 436.991 259.461 436.983 259.407L436.982 259.397L436.981 259.393C436.973 259.343 436.965 259.293 436.955 259.243C436.944 259.187 436.933 259.131 436.921 259.074C436.909 259.017 436.895 258.961 436.882 258.904C436.868 258.847 436.853 258.789 436.837 258.732C436.824 258.685 436.81 258.637 436.795 258.59L436.792 258.581C436.79 258.574 436.788 258.567 436.786 258.56C436.769 258.504 436.751 258.448 436.732 258.392C436.713 258.337 436.694 258.281 436.674 258.226C436.655 258.173 436.635 258.12 436.614 258.067C436.593 258.014 436.572 257.961 436.55 257.909C436.533 257.867 436.514 257.824 436.496 257.782C436.495 257.779 436.494 257.776 436.493 257.774C436.49 257.767 436.487 257.76 436.484 257.753C436.461 257.7 436.437 257.648 436.412 257.595C436.385 257.537 436.357 257.48 436.329 257.423C436.296 257.358 436.263 257.293 436.228 257.228C436.19 257.157 436.15 257.087 436.11 257.017C436.103 257.005 436.097 256.993 436.09 256.981C436.082 256.968 436.075 256.954 436.067 256.94C435.99 256.808 435.909 256.679 435.824 256.553C435.758 256.454 435.689 256.356 435.619 256.261L435.617 256.258V256.257C435.569 256.193 435.521 256.129 435.472 256.066C435.431 256.014 435.389 255.962 435.346 255.911C435.305 255.861 435.263 255.812 435.22 255.764C435.178 255.716 435.136 255.669 435.093 255.623C435.085 255.615 435.077 255.607 435.07 255.599C435.067 255.595 435.063 255.592 435.06 255.588C435.027 255.553 434.994 255.517 434.96 255.483C434.915 255.437 434.869 255.391 434.823 255.347C434.776 255.302 434.728 255.257 434.68 255.214C434.632 255.171 434.584 255.129 434.535 255.088C434.512 255.068 434.488 255.05 434.465 255.03C434.459 255.025 434.454 255.021 434.448 255.016C434.429 255 434.41 254.985 434.391 254.969C434.344 254.932 434.296 254.896 434.249 254.86C434.202 254.826 434.155 254.792 434.108 254.76C434.062 254.729 434.017 254.699 433.971 254.669C433.925 254.64 433.88 254.612 433.834 254.585C433.823 254.579 433.813 254.572 433.802 254.567L369.016 217.352C368.982 217.332 368.948 217.313 368.914 217.295C368.87 217.271 368.826 217.248 368.782 217.227C368.739 217.205 368.695 217.185 368.652 217.165C368.609 217.146 368.566 217.127 368.523 217.11C368.479 217.092 368.436 217.076 368.393 217.061C368.383 217.058 368.374 217.055 368.364 217.052L368.354 217.048C368.324 217.038 368.293 217.028 368.264 217.018C368.219 217.004 368.174 216.992 368.13 216.981C368.085 216.97 368.041 216.96 367.997 216.952C367.949 216.943 367.902 216.935 367.855 216.929C367.821 216.924 367.787 216.922 367.754 216.919L367.741 216.918C367.731 216.917 367.721 216.915 367.721 216.915C367.659 216.911 367.608 216.909 367.558 216.909C367.501 216.909 367.444 216.912 367.389 216.917C367.325 216.923 367.262 216.932 367.201 216.944L367.195 216.946L367.186 216.948C367.113 216.963 367.042 216.982 366.973 217.007C366.88 217.04 366.792 217.081 366.709 217.129L363.173 219.25C363.319 219.165 363.479 219.105 363.651 219.069L363.66 219.066C363.832 219.031 364.014 219.021 364.207 219.037L364.22 219.038C364.411 219.055 364.612 219.098 364.82 219.168C364.824 219.169 364.827 219.17 364.831 219.171C365.042 219.243 365.26 219.342 365.484 219.471L430.27 256.686C430.491 256.814 430.707 256.965 430.916 257.134C430.922 257.139 430.928 257.144 430.934 257.148C431.14 257.316 431.339 257.503 431.529 257.705C431.532 257.709 431.536 257.712 431.539 257.716C431.732 257.922 431.915 258.143 432.087 258.375V258.376C432.257 258.606 432.414 258.849 432.559 259.098C432.566 259.11 432.572 259.122 432.579 259.134C432.72 259.38 432.849 259.633 432.962 259.891C432.963 259.894 432.965 259.897 432.966 259.899C433.081 260.163 433.18 260.43 433.262 260.699C433.263 260.702 433.264 260.705 433.264 260.705C433.346 260.976 433.409 261.245 433.451 261.51L433.452 261.514C433.495 261.781 433.517 262.045 433.516 262.301C433.515 262.553 433.492 262.787 433.449 263.001C433.448 263.007 433.446 263.014 433.445 263.02C433.402 263.231 433.34 263.424 433.26 263.595C433.26 263.595 433.258 263.6 433.257 263.602C433.189 263.746 433.103 263.866 433.012 263.98C432.982 264.018 432.954 264.058 432.921 264.092C432.813 264.207 432.696 264.309 432.564 264.386L436.1 262.265C436.232 262.188 436.349 262.086 436.457 261.971C436.49 261.936 436.517 261.897 436.548 261.859C436.587 261.81 436.632 261.767 436.667 261.712C436.711 261.642 436.752 261.568 436.79 261.489C436.791 261.486 436.792 261.484 436.793 261.481C436.794 261.479 436.795 261.476 436.795 261.476C436.822 261.419 436.846 261.363 436.868 261.304C436.889 261.249 436.907 261.192 436.925 261.133C436.941 261.079 436.955 261.024 436.968 260.967C436.973 260.945 436.977 260.921 436.982 260.898C436.984 260.891 436.985 260.885 436.986 260.878C436.991 260.855 436.996 260.831 437 260.808C437.009 260.757 437.016 260.706 437.023 260.653C437.029 260.602 437.035 260.55 437.039 260.497C437.043 260.447 437.046 260.396 437.048 260.344C437.05 260.293 437.051 260.24 437.052 260.188V260.179C437.045 260.137 437.045 260.089 437.043 260.04Z" fill="#7C7CD6"/>
<path d="M430.263 256.691C432.057 257.727 433.515 260.251 433.509 262.307C433.503 264.369 432.036 265.205 430.242 264.169L365.456 226.954C363.667 225.921 362.21 223.397 362.216 221.335C362.222 219.28 363.689 218.444 365.477 219.476L430.263 256.691Z" fill="white"/>
<path d="M430.263 256.691L365.477 219.476C364.594 218.966 363.791 218.913 363.202 219.236C363.747 219.079 364.422 219.184 365.153 219.606L429.939 256.821C431.733 257.857 433.191 260.381 433.185 262.436C433.182 263.48 432.803 264.208 432.198 264.54C432.989 264.312 433.506 263.526 433.509 262.307C433.515 260.251 432.058 257.727 430.263 256.691Z" fill="white"/>
<path d="M437.044 277.557C437.042 277.505 437.04 277.453 437.037 277.401C437.034 277.349 437.029 277.296 437.024 277.244C437.019 277.192 437.013 277.139 437.007 277.086C437 277.032 436.992 276.978 436.984 276.924C436.984 276.924 436.983 276.918 436.982 276.914L436.981 276.91C436.973 276.86 436.965 276.81 436.955 276.76C436.945 276.704 436.933 276.648 436.921 276.591C436.909 276.535 436.895 276.478 436.881 276.421C436.867 276.364 436.852 276.306 436.836 276.249C436.823 276.202 436.809 276.154 436.794 276.107C436.793 276.104 436.792 276.101 436.792 276.101C436.789 276.091 436.787 276.084 436.785 276.077C436.768 276.021 436.75 275.965 436.731 275.909C436.712 275.854 436.693 275.798 436.673 275.743C436.654 275.69 436.634 275.637 436.613 275.584C436.592 275.531 436.571 275.478 436.549 275.426C436.532 275.384 436.513 275.341 436.495 275.299C436.494 275.296 436.493 275.293 436.491 275.291C436.488 275.284 436.485 275.277 436.482 275.27C436.459 275.217 436.435 275.165 436.41 275.112C436.383 275.054 436.355 274.997 436.327 274.94C436.294 274.875 436.261 274.81 436.226 274.745C436.188 274.674 436.148 274.604 436.108 274.534C436.101 274.522 436.095 274.51 436.088 274.498C436.08 274.484 436.073 274.47 436.065 274.457C435.988 274.325 435.907 274.196 435.822 274.07C435.756 273.971 435.687 273.873 435.617 273.778L435.615 273.776L435.614 273.775C435.566 273.711 435.518 273.647 435.469 273.584C435.428 273.532 435.386 273.48 435.344 273.429C435.302 273.379 435.26 273.33 435.218 273.282C435.176 273.234 435.134 273.187 435.091 273.141C435.083 273.133 435.076 273.125 435.068 273.117C435.065 273.113 435.061 273.11 435.058 273.106C435.024 273.071 434.991 273.035 434.957 273.001C434.912 272.955 434.866 272.91 434.82 272.865C434.773 272.82 434.725 272.775 434.677 272.732C434.629 272.689 434.581 272.647 434.532 272.606C434.509 272.586 434.485 272.568 434.461 272.548C434.455 272.543 434.45 272.539 434.444 272.534C434.425 272.518 434.406 272.503 434.387 272.487C434.34 272.45 434.292 272.414 434.245 272.379C434.198 272.345 434.151 272.311 434.104 272.279C434.059 272.248 434.013 272.217 433.967 272.188C433.921 272.159 433.876 272.131 433.83 272.104C433.82 272.098 433.809 272.091 433.798 272.086L369.012 234.871C368.978 234.851 368.944 234.832 368.91 234.814C368.866 234.79 368.822 234.767 368.778 234.746C368.734 234.724 368.691 234.704 368.648 234.684C368.605 234.665 368.561 234.646 368.519 234.629C368.476 234.612 368.432 234.595 368.389 234.58C368.379 234.577 368.37 234.574 368.36 234.571C368.356 234.57 368.353 234.569 368.35 234.568C368.32 234.558 368.289 234.548 368.26 234.538C368.215 234.524 368.17 234.512 368.126 234.501C368.081 234.49 368.037 234.48 367.993 234.472C367.945 234.463 367.898 234.455 367.851 234.449C367.817 234.444 367.784 234.442 367.75 234.439C367.75 234.439 367.741 234.438 367.737 234.438C367.727 234.437 367.716 234.435 367.706 234.435C367.654 234.431 367.603 234.43 367.553 234.43C367.496 234.43 367.439 234.433 367.384 234.438C367.32 234.444 367.257 234.453 367.196 234.465L367.19 234.467C367.187 234.468 367.184 234.469 367.184 234.469C367.108 234.485 367.036 234.504 366.968 234.528C366.876 234.561 366.787 234.602 366.704 234.65L363.168 236.771C363.314 236.686 363.474 236.626 363.646 236.59C363.65 236.589 363.652 236.588 363.655 236.587C363.827 236.552 364.009 236.542 364.202 236.558L364.215 236.559C364.406 236.576 364.607 236.619 364.815 236.689C364.815 236.689 364.822 236.691 364.825 236.692C365.036 236.764 365.254 236.863 365.478 236.992L430.264 274.207C430.485 274.335 430.701 274.486 430.91 274.655C430.916 274.66 430.922 274.665 430.928 274.669C431.134 274.838 431.333 275.024 431.523 275.226C431.526 275.23 431.53 275.233 431.533 275.237C431.726 275.443 431.909 275.664 432.08 275.896V275.897C432.25 276.127 432.407 276.37 432.552 276.619C432.559 276.631 432.565 276.643 432.572 276.655C432.713 276.901 432.842 277.154 432.955 277.412C432.956 277.415 432.957 277.418 432.959 277.42C433.074 277.684 433.174 277.951 433.255 278.22C433.256 278.223 433.257 278.226 433.257 278.226C433.339 278.497 433.402 278.766 433.445 279.031L433.446 279.035C433.489 279.302 433.511 279.566 433.51 279.822C433.509 280.074 433.486 280.308 433.443 280.522C433.442 280.528 433.441 280.535 433.439 280.541C433.396 280.752 433.334 280.945 433.254 281.116C433.253 281.118 433.252 281.121 433.251 281.123C433.183 281.267 433.097 281.387 433.006 281.501C432.976 281.539 432.948 281.579 432.915 281.613C432.807 281.728 432.691 281.83 432.558 281.907L436.094 279.786C436.226 279.709 436.343 279.607 436.451 279.492C436.484 279.457 436.512 279.418 436.542 279.38C436.581 279.331 436.626 279.288 436.661 279.233C436.705 279.163 436.747 279.089 436.784 279.01C436.784 279.01 436.786 279.005 436.787 279.002C436.788 279 436.789 278.997 436.79 278.995C436.815 278.94 436.84 278.884 436.861 278.825C436.881 278.77 436.9 278.713 436.918 278.654C436.934 278.6 436.948 278.545 436.961 278.488C436.966 278.466 436.97 278.442 436.975 278.419C436.977 278.412 436.978 278.406 436.979 278.399C436.984 278.375 436.989 278.352 436.993 278.328C437.002 278.278 437.01 278.226 437.016 278.173C437.022 278.122 437.028 278.07 437.032 278.017C437.036 277.967 437.039 277.916 437.042 277.864C437.044 277.813 437.045 277.761 437.046 277.708C437.046 277.705 437.046 277.702 437.046 277.702C437.047 277.654 437.046 277.606 437.044 277.557Z" fill="#7C7CD6"/>
<path d="M430.264 274.208C432.058 275.244 433.516 277.768 433.51 279.823C433.504 281.885 432.038 282.721 430.243 281.685L365.457 244.47C363.668 243.437 362.211 240.913 362.217 238.851C362.223 236.796 363.689 235.96 365.478 236.992L430.264 274.208Z" fill="white"/>
<path d="M430.264 274.208L365.478 236.993C364.595 236.483 363.792 236.43 363.203 236.753C363.748 236.596 364.423 236.701 365.153 237.123L429.939 274.338C431.733 275.374 433.191 277.898 433.185 279.953C433.182 280.997 432.803 281.725 432.198 282.057C432.989 281.829 433.506 281.043 433.509 279.824C433.516 277.768 432.059 275.244 430.264 274.208Z" fill="white"/>
<path d="M625.219 86.8158C625.189 86.9108 625.17 87.0058 625.137 87.1008C624.852 87.9198 624.426 88.7238 623.903 89.5108C623.809 89.6538 623.719 89.7948 623.618 89.9348C623.051 90.7148 622.369 91.4728 621.563 92.1998C621.039 92.6718 620.371 93.1018 619.746 93.5448C619.21 93.9258 618.753 94.3308 618.143 94.6858L499.802 163.458L499.601 234.508L617.941 165.735C618.047 165.673 618.153 165.611 618.257 165.549C618.749 165.253 619.098 164.912 619.539 164.6C620.167 164.155 620.835 163.724 621.362 163.25C621.412 163.205 621.485 163.168 621.533 163.123C622.138 162.564 622.674 161.987 623.139 161.396C623.245 161.262 623.317 161.121 623.416 160.985C623.518 160.844 623.607 160.702 623.703 160.559C623.861 160.322 624.046 160.09 624.181 159.848C624.456 159.364 624.685 158.872 624.872 158.377C624.9 158.301 624.91 158.225 624.937 158.149C624.97 158.055 624.989 157.961 625.019 157.866C625.117 157.551 625.226 157.236 625.29 156.918C625.389 156.424 625.445 155.929 625.459 155.433C625.462 155.357 625.463 155.281 625.463 155.205L625.664 84.1558C625.662 85.0468 625.495 85.9368 625.219 86.8158Z" fill="#AFAFE0"/>
<path d="M344.107 94.7018C339 91.7538 336.455 87.8868 336.466 84.0278L336.264 155.077C336.253 158.936 338.798 162.802 343.905 165.752L462.992 234.507L463.194 163.459L344.107 94.7018Z" fill="#AFAFE0"/>
<path d="M499.6 234.507L499.801 163.457C498.68 164.11 497.454 164.664 496.191 165.17C495.861 165.303 495.526 165.427 495.188 165.551C494.405 165.834 493.581 166.062 492.76 166.293C491.908 166.532 491.049 166.757 490.165 166.939C489.133 167.151 488.092 167.344 487.03 167.478C486.77 167.511 486.517 167.558 486.258 167.586C484.819 167.74 483.364 167.817 481.905 167.829C481.675 167.831 481.444 167.834 481.214 167.833C479.774 167.822 478.337 167.744 476.916 167.595C476.701 167.573 476.486 167.549 476.273 167.524C474.86 167.356 473.469 167.118 472.112 166.812C471.862 166.756 471.618 166.691 471.371 166.63C470.136 166.326 468.938 165.958 467.779 165.537C467.569 165.46 467.348 165.402 467.142 165.322C465.752 164.784 464.424 164.169 463.194 163.459L462.992 234.507C464.161 235.182 465.413 235.778 466.728 236.298C466.796 236.326 466.872 236.343 466.94 236.369C467.15 236.45 467.372 236.51 467.585 236.587C468.336 236.859 469.086 237.135 469.871 237.359C470.296 237.48 470.739 237.571 471.173 237.678C471.42 237.739 471.66 237.801 471.909 237.858C472.131 237.908 472.345 237.974 472.57 238.02C473.414 238.196 474.27 238.344 475.135 238.467C475.444 238.511 475.758 238.534 476.07 238.571C476.286 238.598 476.5 238.621 476.717 238.644C477.029 238.677 477.337 238.723 477.65 238.748C478.497 238.817 479.348 238.863 480.199 238.884C480.47 238.892 480.741 238.879 481.012 238.881C481.244 238.882 481.474 238.879 481.707 238.877C482.089 238.874 482.471 238.886 482.852 238.873C483.814 238.84 484.772 238.776 485.724 238.681C485.835 238.669 485.942 238.647 486.054 238.634C486.318 238.606 486.572 238.56 486.835 238.526C487.569 238.433 488.307 238.35 489.029 238.221C489.35 238.162 489.646 238.054 489.964 237.988C490.852 237.806 491.708 237.582 492.563 237.341C493.012 237.215 493.492 237.143 493.93 237.001C494.293 236.883 494.629 236.731 494.984 236.602C495.324 236.477 495.661 236.353 495.994 236.219C497.256 235.711 498.478 235.159 499.6 234.507Z" fill="#C5C5E8"/>
<path d="M618.023 73.4806C628.178 79.3436 628.204 88.8376 618.142 94.6856L499.802 163.458C489.74 169.305 473.35 169.321 463.194 163.458L344.107 94.7026C333.951 88.8386 333.926 79.3456 343.987 73.4976L462.327 4.72561C472.389 -1.12139 488.779 -1.13839 498.935 4.72561L618.023 73.4806Z" fill="#DBDBF3"/>
<path d="M541.186 167.383L521.373 179.037C520.27 179.686 519.367 179.314 519.367 178.211C519.367 177.107 520.27 175.673 521.373 175.024L541.186 163.369C542.29 162.72 543.192 163.092 543.192 164.195C543.193 165.3 542.29 166.734 541.186 167.383Z" fill="#7C7CD6"/>
<path d="M572.539 148.941L552.726 160.595C551.622 161.244 550.719 160.872 550.719 159.769C550.719 158.666 551.622 157.232 552.726 156.583L572.539 144.929C573.643 144.28 574.545 144.652 574.545 145.755C574.545 146.858 573.642 148.292 572.539 148.941Z" fill="#7C7CD6"/>
<path d="M603.891 130.499L584.078 142.153C582.974 142.802 582.072 142.43 582.072 141.327C582.072 140.223 582.975 138.79 584.078 138.141L603.891 126.487C604.994 125.838 605.897 126.21 605.897 127.313C605.897 128.416 604.994 129.85 603.891 130.499Z" fill="#7C7CD6"/>
<path d="M541.187 177.148L521.374 188.802C520.271 189.451 519.368 189.079 519.368 187.976C519.368 186.872 520.271 185.438 521.374 184.789L541.187 173.135C542.291 172.486 543.193 172.858 543.193 173.961C543.193 175.065 542.29 176.499 541.187 177.148Z" fill="#7C7CD6"/>
<path d="M572.539 158.706L552.726 170.36C551.622 171.009 550.719 170.637 550.719 169.534C550.719 168.431 551.622 166.996 552.726 166.347L572.539 154.693C573.643 154.044 574.545 154.416 574.545 155.519C574.545 156.623 573.642 158.057 572.539 158.706Z" fill="#7C7CD6"/>
<path d="M603.891 140.265L584.078 151.919C582.974 152.568 582.072 152.196 582.072 151.093C582.072 149.989 582.975 148.555 584.078 147.906L603.891 136.252C604.994 135.603 605.897 135.975 605.897 137.078C605.897 138.182 604.994 139.616 603.891 140.265Z" fill="#7C7CD6"/>
<path d="M541.187 186.914L521.374 198.568C520.271 199.217 519.368 198.845 519.368 197.742C519.368 196.638 520.271 195.205 521.374 194.556L541.187 182.901C542.29 182.252 543.193 182.624 543.193 183.727C543.193 184.831 542.29 186.265 541.187 186.914Z" fill="#7C7CD6"/>
<path d="M572.539 168.473L552.726 180.127C551.623 180.776 550.719 180.404 550.719 179.301C550.719 178.197 551.622 176.763 552.726 176.114L572.539 164.46C573.643 163.811 574.545 164.183 574.545 165.286C574.545 166.39 573.642 167.824 572.539 168.473Z" fill="#7C7CD6"/>
<path d="M603.891 150.03L584.078 161.684C582.974 162.333 582.072 161.961 582.072 160.858C582.072 159.754 582.975 158.32 584.078 157.671L603.891 146.017C604.995 145.368 605.897 145.74 605.897 146.843C605.897 147.947 604.994 149.381 603.891 150.03Z" fill="#7C7CD6"/>
<path d="M437.042 162.903C437.04 162.851 437.038 162.799 437.035 162.747C437.032 162.695 437.027 162.643 437.022 162.59C437.017 162.537 437.011 162.485 437.005 162.432C436.998 162.378 436.99 162.324 436.982 162.27L436.982 162.26L436.98 162.256C436.972 162.206 436.964 162.156 436.954 162.106C436.943 162.05 436.932 161.993 436.92 161.937C436.908 161.881 436.894 161.824 436.88 161.767C436.866 161.709 436.852 161.652 436.836 161.595C436.823 161.548 436.808 161.5 436.794 161.453C436.794 161.453 436.793 161.447 436.792 161.444C436.79 161.437 436.787 161.43 436.785 161.423C436.768 161.367 436.751 161.311 436.732 161.255C436.713 161.2 436.693 161.144 436.673 161.089C436.654 161.036 436.634 160.983 436.613 160.93C436.592 160.877 436.571 160.824 436.549 160.772C436.532 160.73 436.513 160.687 436.495 160.645C436.494 160.642 436.494 160.639 436.492 160.637C436.489 160.63 436.485 160.623 436.482 160.616C436.459 160.563 436.435 160.511 436.41 160.458C436.383 160.4 436.356 160.343 436.328 160.286C436.295 160.221 436.262 160.155 436.227 160.091C436.189 160.02 436.148 159.95 436.108 159.88C436.101 159.868 436.096 159.856 436.089 159.844C436.081 159.83 436.073 159.816 436.065 159.803C435.988 159.672 435.907 159.542 435.823 159.416C435.757 159.317 435.687 159.22 435.617 159.124L435.617 159.122L435.615 159.12C435.567 159.056 435.519 158.992 435.47 158.929C435.429 158.877 435.387 158.825 435.344 158.774C435.302 158.724 435.262 158.675 435.219 158.626C435.177 158.578 435.134 158.531 435.091 158.485C435.083 158.477 435.076 158.469 435.068 158.461C435.065 158.457 435.061 158.454 435.058 158.451C435.024 158.416 434.991 158.38 434.958 158.346C434.913 158.3 434.867 158.255 434.821 158.21C434.774 158.165 434.726 158.12 434.678 158.077C434.63 158.034 434.583 157.992 434.534 157.951C434.511 157.931 434.487 157.913 434.464 157.894C434.458 157.889 434.452 157.885 434.446 157.88C434.427 157.865 434.408 157.848 434.389 157.833C434.342 157.796 434.294 157.76 434.247 157.725C434.2 157.69 434.154 157.657 434.107 157.625C434.061 157.594 434.015 157.563 433.969 157.534C433.923 157.505 433.877 157.477 433.831 157.45C433.821 157.444 433.81 157.437 433.799 157.431L369.013 120.216C368.979 120.196 368.945 120.177 368.911 120.159C368.867 120.135 368.823 120.112 368.779 120.091C368.735 120.069 368.692 120.049 368.648 120.029C368.605 120.01 368.563 119.991 368.52 119.974C368.476 119.956 368.432 119.94 368.389 119.925C368.379 119.922 368.37 119.919 368.36 119.916L368.35 119.913C368.32 119.903 368.29 119.893 368.26 119.884C368.215 119.87 368.17 119.858 368.126 119.847C368.081 119.836 368.037 119.826 367.993 119.818C367.945 119.809 367.899 119.801 367.852 119.795C367.818 119.79 367.784 119.788 367.75 119.785L367.737 119.784C367.727 119.783 367.716 119.782 367.716 119.782C367.654 119.778 367.603 119.776 367.553 119.776C367.496 119.776 367.439 119.779 367.384 119.784C367.32 119.79 367.258 119.799 367.197 119.811L367.19 119.813L367.181 119.815C367.108 119.83 367.036 119.849 366.968 119.874C366.876 119.907 366.787 119.948 366.703 119.996L363.167 122.117C363.313 122.032 363.473 121.972 363.645 121.936L363.654 121.933C363.826 121.898 364.009 121.888 364.201 121.904L364.214 121.905C364.405 121.922 364.606 121.965 364.814 122.035C364.818 122.036 364.822 122.037 364.822 122.037C365.037 122.11 365.254 122.209 365.477 122.338L430.263 159.553C430.484 159.681 430.7 159.832 430.909 160.001C430.915 160.006 430.921 160.011 430.927 160.015C431.133 160.184 431.332 160.37 431.522 160.572C431.525 160.576 431.529 160.579 431.532 160.583C431.725 160.789 431.909 161.01 432.081 161.242V161.243C432.251 161.474 432.407 161.716 432.552 161.965C432.559 161.977 432.566 161.989 432.573 162.001C432.714 162.247 432.843 162.5 432.956 162.758C432.957 162.761 432.958 162.764 432.959 162.766C433.074 163.03 433.174 163.297 433.255 163.565C433.256 163.568 433.258 163.571 433.258 163.571C433.34 163.842 433.402 164.111 433.445 164.376L433.446 164.38C433.489 164.647 433.511 164.911 433.51 165.167C433.509 165.419 433.486 165.653 433.443 165.867C433.442 165.874 433.441 165.88 433.44 165.886C433.397 166.097 433.335 166.29 433.255 166.461C433.254 166.463 433.253 166.466 433.253 166.466C433.184 166.612 433.096 166.732 433.006 166.846C432.976 166.884 432.948 166.924 432.915 166.958C432.807 167.073 432.691 167.175 432.558 167.252L436.094 165.131C436.226 165.054 436.343 164.952 436.451 164.837C436.484 164.802 436.511 164.763 436.542 164.725C436.581 164.676 436.626 164.633 436.661 164.578C436.705 164.508 436.747 164.434 436.784 164.355C436.784 164.355 436.786 164.349 436.787 164.347C436.787 164.347 436.789 164.342 436.79 164.34C436.816 164.285 436.841 164.229 436.862 164.171C436.883 164.116 436.901 164.059 436.919 164C436.935 163.946 436.948 163.891 436.961 163.834C436.966 163.811 436.97 163.788 436.975 163.765C436.976 163.758 436.977 163.752 436.979 163.745C436.984 163.722 436.989 163.699 436.993 163.674C437.002 163.624 437.01 163.572 437.016 163.519C437.022 163.468 437.028 163.416 437.032 163.363C437.036 163.313 437.039 163.262 437.042 163.21C437.044 163.159 437.045 163.106 437.045 163.053C437.045 163.053 437.045 163.047 437.045 163.044C437.044 163 437.044 162.952 437.042 162.903Z" fill="#7C7CD6"/>
<path d="M430.262 159.555C432.056 160.591 433.514 163.115 433.508 165.17C433.502 167.232 432.036 168.068 430.241 167.032L365.455 129.817C363.666 128.784 362.209 126.26 362.215 124.198C362.221 122.143 363.687 121.307 365.476 122.34L430.262 159.555Z" fill="white"/>
<path d="M430.262 159.555L365.476 122.34C364.593 121.83 363.79 121.777 363.201 122.1C363.746 121.943 364.421 122.048 365.151 122.47L429.937 159.685C431.731 160.721 433.189 163.245 433.183 165.3C433.18 166.344 432.802 167.072 432.196 167.404C432.987 167.176 433.504 166.39 433.507 165.171C433.514 163.115 432.057 160.591 430.262 159.555Z" fill="white"/>
<path d="M437.043 180.421C437.041 180.369 437.039 180.317 437.036 180.265C437.033 180.213 437.028 180.161 437.023 180.108C437.018 180.055 437.012 180.003 437.006 179.95C436.999 179.896 436.991 179.842 436.983 179.788L436.982 179.782L436.981 179.775C436.973 179.725 436.965 179.675 436.955 179.625C436.944 179.569 436.933 179.512 436.921 179.456C436.909 179.4 436.895 179.343 436.882 179.286C436.868 179.229 436.853 179.171 436.837 179.114C436.824 179.067 436.809 179.02 436.795 178.972C436.794 178.969 436.793 178.966 436.793 178.966C436.79 178.956 436.788 178.949 436.786 178.942C436.769 178.886 436.751 178.83 436.732 178.774C436.713 178.719 436.694 178.663 436.674 178.608C436.655 178.555 436.635 178.502 436.614 178.449C436.593 178.396 436.572 178.343 436.55 178.291C436.533 178.249 436.514 178.207 436.496 178.164C436.495 178.161 436.494 178.158 436.494 178.158C436.49 178.148 436.487 178.141 436.484 178.134C436.461 178.081 436.437 178.029 436.412 177.976C436.385 177.919 436.357 177.861 436.329 177.804C436.296 177.739 436.263 177.674 436.228 177.609C436.19 177.538 436.15 177.468 436.11 177.398C436.103 177.386 436.097 177.374 436.09 177.362C436.082 177.348 436.075 177.334 436.067 177.321C435.99 177.19 435.909 177.06 435.824 176.934C435.758 176.835 435.689 176.737 435.619 176.642L435.617 176.639L435.616 176.638C435.568 176.574 435.52 176.51 435.471 176.447C435.43 176.395 435.388 176.343 435.345 176.292C435.303 176.242 435.262 176.193 435.219 176.145C435.177 176.097 435.135 176.05 435.092 176.004C435.084 175.996 435.076 175.988 435.069 175.98C435.066 175.976 435.062 175.973 435.059 175.97C435.026 175.935 434.993 175.899 434.959 175.865C434.914 175.819 434.868 175.774 434.822 175.729C434.775 175.683 434.727 175.639 434.679 175.596C434.631 175.553 434.583 175.511 434.534 175.47C434.511 175.45 434.487 175.432 434.464 175.412C434.458 175.407 434.453 175.403 434.447 175.398C434.428 175.383 434.409 175.367 434.39 175.352C434.343 175.315 434.295 175.279 434.248 175.243C434.201 175.209 434.154 175.175 434.107 175.143C434.061 175.112 434.016 175.081 433.969 175.052C433.923 175.023 433.878 174.995 433.832 174.968C433.822 174.962 433.811 174.956 433.8 174.95L369.014 137.735C368.98 137.715 368.946 137.696 368.912 137.678C368.868 137.654 368.824 137.631 368.78 137.61C368.736 137.588 368.693 137.568 368.65 137.548C368.607 137.529 368.564 137.51 368.521 137.493C368.477 137.475 368.434 137.459 368.391 137.444C368.381 137.441 368.372 137.438 368.362 137.434L368.352 137.431C368.322 137.421 368.291 137.411 368.262 137.402C368.217 137.389 368.172 137.376 368.128 137.365C368.083 137.354 368.039 137.344 367.995 137.335C367.947 137.326 367.9 137.318 367.853 137.312C367.819 137.307 367.786 137.305 367.752 137.302C367.748 137.302 367.743 137.301 367.743 137.301C367.729 137.3 367.718 137.298 367.718 137.298C367.656 137.294 367.605 137.292 367.555 137.292C367.497 137.292 367.441 137.295 367.386 137.3C367.322 137.306 367.259 137.315 367.198 137.327C367.196 137.327 367.194 137.328 367.194 137.328L367.183 137.331C367.11 137.346 367.039 137.365 366.97 137.39C366.877 137.423 366.789 137.464 366.706 137.512L363.17 139.633C363.316 139.548 363.476 139.488 363.648 139.452C363.648 139.452 363.654 139.45 363.657 139.45C363.829 139.415 364.011 139.405 364.204 139.421C364.208 139.421 364.213 139.422 364.213 139.422C364.409 139.439 364.61 139.482 364.818 139.552C364.821 139.553 364.825 139.554 364.828 139.556C365.039 139.628 365.257 139.727 365.481 139.856L430.267 177.071C430.488 177.199 430.704 177.35 430.913 177.519C430.919 177.524 430.925 177.529 430.931 177.533C431.137 177.702 431.336 177.888 431.526 178.09C431.53 178.094 431.533 178.097 431.536 178.101C431.729 178.307 431.912 178.528 432.084 178.76V178.761C432.254 178.992 432.411 179.234 432.556 179.483C432.563 179.495 432.569 179.507 432.576 179.519C432.717 179.765 432.846 180.018 432.959 180.276C432.96 180.279 432.962 180.282 432.963 180.285C433.078 180.549 433.177 180.816 433.259 181.084C433.26 181.087 433.261 181.09 433.261 181.09C433.343 181.361 433.406 181.63 433.448 181.895L433.449 181.899C433.492 182.166 433.514 182.43 433.513 182.686C433.512 182.938 433.489 183.172 433.446 183.386C433.445 183.393 433.443 183.399 433.442 183.405C433.399 183.616 433.337 183.809 433.257 183.98C433.256 183.982 433.255 183.985 433.254 183.987C433.186 184.131 433.099 184.251 433.009 184.365C432.979 184.403 432.951 184.443 432.918 184.477C432.81 184.592 432.694 184.694 432.561 184.771L436.097 182.65C436.229 182.573 436.346 182.471 436.454 182.356C436.487 182.321 436.514 182.282 436.545 182.244C436.584 182.194 436.629 182.152 436.664 182.097C436.708 182.027 436.749 181.953 436.787 181.874C436.788 181.872 436.789 181.869 436.79 181.866C436.791 181.864 436.792 181.861 436.793 181.859C436.819 181.804 436.843 181.748 436.864 181.689C436.885 181.634 436.903 181.577 436.921 181.518C436.937 181.464 436.951 181.409 436.964 181.352C436.969 181.33 436.973 181.306 436.978 181.283C436.979 181.276 436.981 181.27 436.982 181.263C436.987 181.24 436.992 181.217 436.996 181.193C437.005 181.142 437.012 181.091 437.019 181.038C437.025 180.987 437.031 180.935 437.035 180.882C437.039 180.832 437.042 180.781 437.045 180.729C437.047 180.678 437.048 180.626 437.049 180.573V180.564C437.045 180.518 437.045 180.469 437.043 180.421Z" fill="#7C7CD6"/>
<path d="M430.263 177.072C432.057 178.108 433.515 180.632 433.509 182.687C433.503 184.749 432.036 185.585 430.242 184.549L365.456 147.334C363.667 146.301 362.21 143.777 362.216 141.715C362.222 139.66 363.688 138.824 365.477 139.857L430.263 177.072Z" fill="white"/>
<path d="M430.263 177.072L365.477 139.857C364.594 139.347 363.791 139.294 363.202 139.617C363.747 139.46 364.422 139.565 365.153 139.987L429.939 177.202C431.733 178.238 433.191 180.762 433.185 182.817C433.182 183.861 432.803 184.589 432.198 184.921C432.989 184.693 433.506 183.907 433.509 182.688C433.515 180.633 432.057 178.108 430.263 177.072Z" fill="white"/>
<path d="M437.044 197.939C437.042 197.887 437.04 197.835 437.037 197.783C437.034 197.731 437.029 197.679 437.024 197.626C437.019 197.573 437.013 197.521 437.007 197.468C437 197.414 436.992 197.36 436.983 197.306C436.983 197.306 436.982 197.3 436.982 197.296L436.981 197.292C436.973 197.242 436.965 197.192 436.955 197.142C436.944 197.086 436.933 197.029 436.921 196.973C436.909 196.917 436.895 196.86 436.881 196.803C436.867 196.746 436.852 196.688 436.836 196.631C436.823 196.584 436.809 196.536 436.794 196.489C436.793 196.486 436.792 196.483 436.791 196.48C436.789 196.473 436.787 196.466 436.785 196.459C436.768 196.403 436.75 196.347 436.731 196.291C436.712 196.236 436.693 196.18 436.673 196.125C436.654 196.072 436.634 196.018 436.613 195.966C436.592 195.913 436.571 195.86 436.549 195.808C436.532 195.766 436.513 195.724 436.495 195.681C436.494 195.678 436.493 195.675 436.491 195.673C436.488 195.666 436.485 195.659 436.482 195.652C436.459 195.599 436.435 195.547 436.41 195.494C436.383 195.437 436.355 195.379 436.327 195.322C436.294 195.257 436.261 195.192 436.226 195.127C436.188 195.056 436.148 194.986 436.108 194.916C436.101 194.904 436.095 194.892 436.088 194.88C436.08 194.866 436.073 194.852 436.065 194.839C435.988 194.707 435.907 194.578 435.822 194.452C435.756 194.353 435.687 194.256 435.617 194.16L435.615 194.157L435.614 194.156C435.566 194.092 435.518 194.028 435.469 193.965C435.428 193.913 435.386 193.861 435.343 193.81C435.302 193.76 435.26 193.711 435.217 193.663C435.175 193.615 435.133 193.568 435.09 193.522C435.082 193.514 435.075 193.506 435.067 193.498C435.064 193.494 435.06 193.491 435.057 193.487C435.023 193.452 434.99 193.416 434.956 193.382C434.911 193.336 434.865 193.291 434.819 193.246C434.772 193.201 434.724 193.156 434.676 193.113C434.628 193.07 434.58 193.028 434.531 192.987C434.508 192.967 434.484 192.949 434.461 192.929C434.455 192.924 434.45 192.92 434.444 192.915C434.425 192.9 434.406 192.884 434.387 192.869C434.34 192.832 434.292 192.796 434.245 192.76C434.198 192.726 434.151 192.692 434.104 192.66C434.058 192.629 434.013 192.599 433.967 192.569C433.921 192.54 433.876 192.512 433.83 192.485C433.819 192.479 433.809 192.473 433.798 192.467L369.012 155.252C368.978 155.232 368.943 155.213 368.91 155.195C368.866 155.171 368.822 155.148 368.778 155.127C368.734 155.105 368.691 155.085 368.648 155.065C368.605 155.046 368.562 155.027 368.519 155.01C368.476 154.992 368.432 154.976 368.389 154.961C368.379 154.958 368.37 154.955 368.36 154.951C368.36 154.951 368.353 154.949 368.35 154.948C368.32 154.938 368.289 154.928 368.26 154.919C368.215 154.905 368.17 154.893 368.126 154.882C368.081 154.871 368.037 154.861 367.993 154.852C367.945 154.843 367.898 154.835 367.851 154.829C367.817 154.824 367.784 154.822 367.75 154.819L367.737 154.818C367.727 154.817 367.716 154.816 367.716 154.816C367.654 154.812 367.603 154.81 367.553 154.81C367.496 154.81 367.439 154.813 367.384 154.818C367.32 154.824 367.257 154.833 367.196 154.845L367.19 154.847C367.187 154.848 367.184 154.849 367.184 154.849C367.108 154.865 367.036 154.884 366.968 154.908C366.876 154.941 366.787 154.982 366.704 155.03L363.168 157.151C363.314 157.066 363.474 157.006 363.646 156.97C363.649 156.969 363.652 156.968 363.655 156.967C363.827 156.932 364.009 156.922 364.202 156.938L364.215 156.939C364.406 156.956 364.607 156.999 364.815 157.069C364.815 157.069 364.822 157.071 364.825 157.073C365.036 157.145 365.254 157.244 365.478 157.373L430.264 194.588C430.485 194.716 430.701 194.867 430.91 195.036C430.916 195.041 430.922 195.046 430.928 195.05C431.134 195.218 431.333 195.405 431.523 195.607C431.526 195.611 431.53 195.614 431.533 195.617C431.726 195.823 431.909 196.044 432.081 196.276C432.251 196.507 432.408 196.749 432.553 196.998C432.56 197.01 432.566 197.022 432.573 197.034C432.714 197.28 432.843 197.533 432.956 197.791C432.957 197.794 432.959 197.797 432.96 197.8C433.075 198.064 433.174 198.331 433.256 198.599C433.257 198.602 433.258 198.605 433.258 198.605C433.34 198.876 433.403 199.145 433.446 199.41V199.413C433.489 199.682 433.511 199.945 433.51 200.202C433.509 200.454 433.486 200.688 433.443 200.902C433.442 200.909 433.441 200.915 433.439 200.921C433.396 201.132 433.334 201.325 433.254 201.496C433.253 201.498 433.252 201.501 433.251 201.503C433.183 201.647 433.097 201.767 433.006 201.881C432.976 201.919 432.948 201.959 432.915 201.993C432.807 202.108 432.691 202.21 432.558 202.287L436.094 200.166C436.226 200.089 436.343 199.987 436.451 199.872C436.484 199.838 436.511 199.798 436.542 199.76C436.581 199.71 436.626 199.668 436.661 199.613C436.705 199.543 436.747 199.469 436.784 199.39C436.785 199.387 436.786 199.385 436.788 199.382C436.788 199.382 436.79 199.377 436.791 199.375C436.816 199.32 436.84 199.264 436.862 199.206C436.882 199.151 436.901 199.094 436.919 199.035C436.935 198.981 436.949 198.926 436.962 198.869C436.967 198.847 436.971 198.823 436.976 198.8C436.977 198.793 436.979 198.787 436.98 198.78C436.985 198.757 436.99 198.734 436.994 198.71C437.003 198.659 437.011 198.608 437.017 198.555C437.023 198.504 437.029 198.452 437.033 198.399C437.037 198.349 437.04 198.298 437.042 198.246C437.044 198.195 437.045 198.143 437.046 198.09V198.081C437.046 198.036 437.046 197.987 437.044 197.939Z" fill="#7C7CD6"/>
<path d="M430.264 194.59C432.058 195.626 433.516 198.15 433.51 200.205C433.504 202.267 432.038 203.103 430.243 202.067L365.457 164.852C363.668 163.819 362.211 161.295 362.217 159.233C362.223 157.178 363.69 156.342 365.478 157.375L430.264 194.59Z" fill="white"/>
<path d="M430.264 194.59L365.478 157.375C364.595 156.865 363.792 156.812 363.203 157.135C363.748 156.978 364.423 157.083 365.153 157.505L429.939 194.72C431.733 195.756 433.191 198.28 433.185 200.335C433.182 201.379 432.803 202.107 432.198 202.439C432.989 202.211 433.506 201.425 433.509 200.206C433.516 198.15 432.058 195.626 430.264 194.59Z" fill="white"/>
<path d="M284.258 224.165L281.386 225.888C282.305 225.268 283.247 224.67 284.258 224.165Z" fill="url(#paint0_linear_78_296)"/>
<path d="M363.565 273.375L362.256 272.548L363.083 272.043C363.405 272.916 363.565 273.375 363.565 273.375Z" fill="url(#paint1_linear_78_296)"/>
<path d="M423.76 471.231C423.76 489.334 419.418 497.996 413.881 501.649C403.91 508.196 389.942 498.547 389.942 498.547L196.795 389.579C196.795 389.579 164.585 368.902 168.283 329.133C169.409 316.934 174.004 309.743 179.748 305.654L183.63 303.379L183.814 303.287C195.898 297.773 210.51 302.369 210.51 302.369C210.51 302.369 210.533 295.362 212.6 286.402C214.783 276.937 219.286 265.289 228.475 257.501L238.515 251.505C239.572 251.069 240.675 250.701 241.8 250.379L241.892 250.333C246.211 249.093 251.128 248.541 256.711 248.817C259.376 248.955 261.926 249.299 264.384 249.851C266.015 250.196 267.624 250.656 269.163 251.161C297.261 260.466 310.815 294.1 313.389 301.222C313.711 302.095 313.849 302.555 313.849 302.555C313.849 302.555 347.231 308.781 363.703 338.464C379.119 366.263 376.179 393.418 376.179 393.418L376.202 393.441C377.535 393.969 418.016 410.948 423.185 460.09C423.437 462.456 423.621 464.892 423.69 467.396C423.737 468.727 423.737 469.991 423.76 471.231Z" fill="#F9BB41"/>
<path d="M413.153 490.914C411.924 493.548 410.594 494.802 409.74 495.355C408.686 496.057 407.407 496.409 405.826 496.409C401.21 496.409 395.865 493.474 394.184 492.344L393.933 492.169L200.711 383.15C198.327 381.544 172.66 363.454 175.771 329.833C176.549 321.378 179.284 315.381 183.875 311.969L187.162 310.037C189.245 309.109 191.678 308.506 194.438 308.256C190.624 311.768 188.341 317.439 187.613 325.066C184.502 358.687 210.169 376.777 212.553 378.383L405.774 487.401L406.05 487.577C407.181 488.355 410.016 489.96 413.153 490.914Z" fill="#EAA211"/>
<path d="M416.239 471.368C416.239 481.48 414.758 487.426 413.153 490.914C410.017 489.96 407.181 488.355 406.052 487.577L405.776 487.401L212.555 378.383C210.171 376.777 184.503 358.687 187.615 325.066C188.343 317.438 190.626 311.768 194.44 308.256C195.444 308.155 196.497 308.105 197.576 308.105C203.447 308.105 208.239 309.535 208.29 309.56L217.975 312.521L218.025 304.266C219.33 304.542 217.999 304.241 218.025 304.266L229.817 307.754L229.892 297.617C229.892 297.567 229.942 291.269 231.774 283.315C233.505 275.814 237.168 265.551 244.745 258.852L248.458 256.644C250.19 256.393 252.046 256.268 253.953 256.268C254.73 256.268 255.534 256.293 256.336 256.343C258.544 256.443 260.702 256.745 262.734 257.196C264.063 257.472 265.368 257.823 266.824 258.3C291.764 266.579 304.084 297.642 306.316 303.789C306.517 304.366 306.617 304.692 306.667 304.768L307.997 309.083L312.463 309.961C312.739 310.011 342.647 316.033 357.124 342.127C371.1 367.318 368.716 392.383 368.691 392.634L368.339 395.946L371.777 399.76L373.433 400.438C373.784 400.589 410.993 416.145 415.686 460.881C415.962 463.265 416.112 465.473 416.163 467.606C416.188 468.434 416.213 469.212 416.213 469.964L416.239 471.368Z" fill="url(#paint2_linear_78_296)"/>
<path d="M238.516 251.503L228.476 257.499C231.348 255.041 234.656 252.996 238.516 251.503Z" fill="url(#paint3_linear_78_296)"/>
<path d="M363.565 273.376L313.849 302.553C313.849 302.553 313.711 302.093 313.389 301.22C310.816 294.098 297.261 260.464 269.163 251.159C267.624 250.654 266.015 250.194 264.384 249.849C261.926 249.298 259.376 248.953 256.711 248.815C251.128 248.539 246.211 249.091 241.892 250.331L241.8 250.377C240.675 250.699 239.572 251.066 238.515 251.503L281.201 226.002L281.385 225.887L284.257 224.164C286.463 222.946 288.875 221.959 291.494 221.2L291.609 221.154C295.928 219.913 300.822 219.362 306.427 219.638C310.838 219.867 314.996 220.695 318.856 221.982C346.954 231.287 360.509 264.921 363.082 272.043L362.255 272.548L363.565 273.376Z" fill="#F9BB41"/>
<path d="M425.873 364.239L376.18 393.416C376.18 393.416 379.12 366.261 363.704 338.462C347.231 308.779 313.85 302.553 313.85 302.553L363.566 273.376C363.566 273.376 363.727 273.399 364.049 273.468C368.184 274.364 398.074 281.693 413.398 309.285C428.813 337.083 425.873 364.239 425.873 364.239Z" fill="#EAA211"/>
<path d="M364.048 273.467C363.726 273.398 363.565 273.375 363.565 273.375L362.256 272.548L363.083 272.043L364.048 273.467Z" fill="url(#paint4_linear_78_296)"/>
<path d="M473.453 442.054C473.453 460.181 469.134 468.819 463.575 472.472L462.518 473.092L413.882 501.648C419.419 497.995 423.761 489.334 423.761 471.23C423.738 469.989 423.738 468.726 423.692 467.393C423.623 464.889 423.439 462.453 423.187 460.087C418.017 410.945 377.536 393.967 376.204 393.438L376.181 393.415L425.874 364.238L425.897 364.261C427.299 364.812 471.685 383.445 473.385 438.238C473.43 439.55 473.453 440.836 473.453 442.054Z" fill="#F9BB41"/>
<path d="M212.601 286.401C210.534 295.361 210.511 302.368 210.511 302.368C210.511 302.368 195.899 297.773 183.815 303.286L212.601 286.401Z" fill="#F9BB41"/>
<path d="M217.974 312.521C217.948 312.496 217.974 306.831 218.024 304.266L218.049 302.384C218.049 302.334 218.099 296.036 219.931 288.108C221.662 280.581 225.325 270.319 232.902 263.62L241.86 258.275C242.462 258.05 243.114 257.824 243.867 257.623L244.545 257.422L244.595 257.397C245.824 257.07 247.104 256.82 248.458 256.644L244.745 258.852C237.168 265.551 233.504 275.814 231.774 283.315C229.942 291.269 229.892 297.567 229.892 297.617L229.817 307.754L217.974 312.521Z" fill="#EAA211"/>
<path d="M215.646 500.19C178.042 526.603 253.412 567.211 286.659 544.733C319.907 522.255 242.126 481.591 215.646 500.19Z" fill="#CACAE0"/>
<path d="M584.826 438.937C547.222 465.35 622.591 505.958 655.839 483.48C689.087 461.002 611.306 420.337 584.826 438.937Z" fill="#CACAE0"/>
<path d="M231.124 508.371C231.124 508.371 247.621 502.729 249.732 508.424C251.843 514.119 234.428 521.122 230.629 520.608C226.831 520.094 224.78 518.923 225.648 515.379C226.517 511.834 230.272 507.077 230.272 507.077L231.124 508.371Z" fill="black"/>
<path d="M250.182 467.357C250.182 467.357 251.171 459.289 259.784 459.656C268.397 460.022 267.455 471.95 264.698 493.553C261.941 515.156 262.1 524.941 259.713 529.672C258.055 532.958 251.876 532.097 251.559 528.413C251.241 524.728 249.685 471.66 250.182 467.357Z" fill="#422B9F"/>
<path d="M251.576 525.392C251.576 525.392 256.827 528.862 261.214 523.362C261.214 523.362 265.678 525 270.917 526.223C275.361 527.261 280.636 527.625 281.349 530.377C282.903 536.375 256.467 537.533 253.22 536.618C249.972 535.702 251.576 525.392 251.576 525.392Z" fill="black"/>
<path d="M245.087 417.686C245.087 417.686 250.181 458.727 249.912 465.933C249.643 473.139 252.856 480.553 262.389 477.495C268.313 475.594 267.056 466.646 267.685 457.46C268.314 448.274 270.737 413.273 270.737 413.273C270.737 413.273 248.588 396.226 245.087 417.686Z" fill="#422B9F"/>
<path d="M225.122 451.703C225.122 451.703 226.111 443.635 234.724 444.002C243.337 444.368 242.395 456.296 239.638 477.899C236.881 499.501 237.04 509.287 234.653 514.018C232.995 517.304 226.816 516.443 226.499 512.759C226.181 509.075 224.625 456.006 225.122 451.703Z" fill="#422B9F"/>
<path d="M220.027 402.032C220.027 402.032 225.121 443.073 224.851 450.279C224.582 457.485 227.795 464.898 237.328 461.841C243.252 459.94 241.996 450.992 242.624 441.806C243.252 432.62 245.676 397.619 245.676 397.619C245.676 397.619 223.528 380.572 220.027 402.032Z" fill="#422B9F"/>
<path d="M234.828 331.436V341.212C239.228 346.206 245.065 344.574 247.561 343.535V331.437H234.828V331.436Z" fill="#FD5C54"/>
<path d="M229.169 311.024C223.805 316.554 224.278 325.713 230.226 331.483C236.174 337.253 245.344 337.447 250.708 331.917C256.072 326.387 255.599 317.227 249.651 311.458C243.703 305.689 234.533 305.494 229.169 311.024Z" fill="#FD5C54"/>
<path d="M240.951 315.013C240.951 315.013 249.375 314.234 251.17 309.417C252.607 305.558 250.49 299.277 245.817 296.359C240.724 293.179 247.331 300.187 238.599 299.361C214.593 297.09 213.039 321.443 223.758 331.963C230.107 338.194 239.409 335.873 243.952 328.07C245.475 325.453 245.979 319.149 240.951 315.013Z" fill="#422B9F"/>
<path d="M219.421 347.726C219.421 347.726 218.128 353.568 228.531 358.795C238.934 364.022 263.863 370.069 270.164 366.645C276.465 363.221 276.014 352.675 263.487 349.68C250.96 346.685 231.524 340.238 225.679 342.231C219.834 344.224 219.421 347.726 219.421 347.726Z" fill="#6E59D3"/>
<path d="M259.354 357.97C259.354 357.97 266.531 338.917 271.029 329.789C275.527 320.66 276.737 319.836 280.574 321.187C284.411 322.539 281.232 333.102 279.866 340.396C278.499 347.69 276.881 364.611 269.921 366.797C262.96 368.983 257.922 362.577 259.354 357.97Z" fill="#6E59D3"/>
<path d="M275.027 322.384C274.92 324.543 280.237 327.278 282.869 324.885C285.5 322.492 291.691 310.104 290.538 307.687C289.386 305.27 282.651 306.243 278.171 315.22C278.171 315.22 279.086 309.345 276.393 310.365C275.094 310.857 275.368 315.508 275.027 322.384Z" fill="#FD5C54"/>
<path d="M217.266 369.166C218.264 393.61 217.921 407.43 219.564 409.975C221.206 412.521 236.52 433.25 271.282 417.604C271.282 417.604 270.789 405.95 269.66 393.761C268.332 379.419 265.48 363.475 265.309 359.147C264.994 351.139 258.468 346.399 258.468 346.399C255.956 345.223 252.4 344.249 248.235 343.232C245.916 342.667 243.41 342.087 240.788 341.452C239.106 341.044 236.821 340.695 234.349 340.635C229.887 340.527 224.813 341.368 221.567 344.533C217.172 348.82 216.801 357.782 217.266 369.166Z" fill="#B7E6FF"/>
<path d="M252.643 347.202C252.643 347.202 247.99 350.964 252.866 361.536C257.742 372.108 273.465 392.376 280.527 393.626C287.588 394.876 293.809 386.349 285.882 376.198C277.954 366.048 266.775 348.891 260.962 346.806C255.149 344.721 252.643 347.202 252.643 347.202Z" fill="#6E59D3"/>
<path d="M277.482 380.104C277.482 380.104 294.971 369.68 304.178 365.346C313.386 361.012 314.846 361.121 317.004 364.57C319.161 368.019 310.091 374.298 304.476 379.149C298.861 384 287.047 396.223 280.242 393.593C273.437 390.963 273.49 382.814 277.482 380.104Z" fill="#6E59D3"/>
<path d="M311.921 362.048C310.491 363.67 312.944 369.123 316.494 368.892C320.043 368.662 332.606 362.834 333.211 360.225C333.817 357.617 327.944 354.179 318.845 358.406C318.845 358.406 323.223 354.383 320.482 353.501C319.158 353.076 316.473 356.884 311.921 362.048Z" fill="#FD5C54"/>
<path d="M240.847 320.351C242.741 319.895 244.876 322.014 245.615 325.085C246.354 328.155 245.417 331.013 243.523 331.469C241.629 331.925 239.494 329.806 238.755 326.736C238.016 323.665 238.953 320.807 240.847 320.351Z" fill="#FD5C54"/>
<path d="M234.35 340.635C234.507 340.837 234.666 341.028 234.828 341.212C239.228 346.206 245.065 344.574 247.561 343.535C247.825 343.425 248.052 343.321 248.236 343.232C245.917 342.667 243.411 342.087 240.789 341.452C239.107 341.044 236.822 340.694 234.35 340.635Z" fill="#FD5C54"/>
<path d="M628.863 247.888C628.863 247.888 634.569 246.584 639.697 253.712C644.825 260.839 639.784 274.79 647.52 284.307C655.256 293.825 652.344 303.864 652.344 303.864C652.344 303.864 644.869 314.511 632.222 307.862C619.575 301.213 612.231 286.784 612.231 286.784C612.231 286.784 615.708 277.223 613.231 269.661C610.753 262.1 628.863 247.888 628.863 247.888Z" fill="#422D96"/>
<path d="M605.345 401.34C605.345 401.34 605.556 391.202 614.664 390.62C623.772 390.038 623.898 400.961 623.638 407.978C623.378 414.995 618.602 451.962 617.878 457.094C617.024 463.151 610.016 465.082 609.452 458.637C609.148 455.166 608.934 451.437 608.44 445.754C607.051 429.758 605.184 407.405 605.345 401.34Z" fill="#FD5C54"/>
<path d="M609.494 457.69C609.494 457.69 597.837 464.141 597.815 467.763C597.793 471.385 620.769 465.296 621.422 463.27C622.074 461.244 617.997 455.327 617.997 455.327C617.997 455.327 616.606 461.229 609.494 457.69Z" fill="#0A1416"/>
<path d="M605.381 400.715C606.376 405.961 609.576 410.345 615.929 409.829C622.283 409.314 623.774 402.696 624.241 387.363C624.285 385.929 624.451 384.17 624.699 382.155C625.26 377.602 626.24 371.744 627.172 365.398C628.127 358.901 629.031 351.892 629.383 345.248C630.166 330.523 627.765 317.51 627.765 317.51L614.189 316.51C614.189 316.51 607.313 335.74 605.851 352.073C604.388 368.405 604.385 395.468 605.381 400.715Z" fill="#FD5C54"/>
<path d="M624.182 402.49C624.182 402.49 623.28 392.39 632.269 390.813C641.258 389.236 642.581 400.079 643.093 407.082C643.605 414.085 642.911 451.353 642.754 456.534C642.569 462.648 635.816 465.336 634.548 458.992C633.865 455.576 633.243 451.892 632.129 446.297C628.993 430.549 624.687 408.536 624.182 402.49Z" fill="#FD5C54"/>
<path d="M634.485 458.045C634.485 458.045 623.606 465.735 623.981 469.338C624.357 472.941 646.527 464.368 646.952 462.283C647.378 460.197 642.677 454.764 642.677 454.764C642.677 454.764 641.942 460.783 634.485 458.045Z" fill="#0A1416"/>
<path d="M624.149 401.865C625.713 406.97 629.375 410.977 635.633 409.768C641.892 408.56 642.649 401.818 641.431 386.526C641.317 385.096 641.29 383.329 641.315 381.299C641.373 376.712 641.705 370.782 641.936 364.372C642.172 357.81 642.302 350.744 641.925 344.101C641.088 329.379 637.275 316.707 637.275 316.707L623.671 317.202C623.671 317.202 618.945 337.07 619.283 353.464C619.619 369.859 622.583 396.759 624.149 401.865Z" fill="#FD5C54"/>
<path d="M612.422 321.733C612.422 321.733 601.857 343.902 596.834 372.133C591.811 400.364 589.156 405.098 589.156 405.098C589.156 405.098 637.246 415.49 664.842 403.02C664.842 403.02 656.24 383.16 654.162 361.165C652.084 339.169 638.805 322.716 638.805 322.716L612.422 321.733Z" fill="#422D96"/>
<path d="M594.914 311.689C595.786 312.921 597.361 316.225 593.728 317.607C587.887 319.83 566.513 311.825 564.536 309.215C562.559 306.604 563.948 305.265 569.902 305.556C575.856 305.847 590.977 306.126 594.914 311.689Z" fill="#7CAFD1"/>
<path d="M566.841 305.469C567.93 306.153 567.449 309.676 565.386 310.142C563.323 310.608 555.177 309.401 554.392 308.015C553.607 306.629 556.378 303.68 562.279 304.558C562.279 304.558 559.105 303.001 560.52 302.036C561.203 301.571 563.375 303.291 566.841 305.469Z" fill="#FD5C54"/>
<path d="M595.057 316.884C600.63 312.795 617.952 299.532 621.965 292.139C625.978 284.746 617.858 279.352 612.55 281.958C607.242 284.563 595.207 302.585 591.055 308.15C586.594 314.13 590.223 320.431 595.057 316.884Z" fill="#7CAFD1"/>
<path d="M629.705 248.239C629.705 248.239 634.089 249.181 636.548 253.553C639.49 258.783 641.764 268.605 632.375 275.325C615.138 287.662 629.705 248.239 629.705 248.239Z" fill="#2A1E6B"/>
<path d="M622.94 278.143C630.884 278.143 637.324 270.956 637.324 262.091C637.324 253.225 630.884 246.039 622.94 246.039C614.996 246.039 608.556 253.225 608.556 262.091C608.556 270.956 614.996 278.143 622.94 278.143Z" fill="#422D96"/>
<path d="M610.215 309.629C611.579 313.13 612.179 316.078 612.435 318.191C612.71 320.458 612.421 321.734 612.421 321.734C614.957 325.82 618.619 327.458 622.224 327.735C624.944 327.944 627.727 327.397 630.208 326.589C631.176 326.274 632.097 325.92 632.951 325.555C636.278 324.133 638.871 323.171 638.862 322.715C638.785 319.165 639.194 314.112 640.33 310.767C643.758 300.662 650.602 292.175 648.145 289.472C644.769 285.759 634.755 284.183 634.755 284.183L625.866 281.482C625.866 281.482 616.775 280.632 614.163 281.956C612.577 282.759 611.94 285.429 610.715 287.605C608.999 290.653 606.971 293.666 606.973 297.437C606.977 304.485 610.045 309.192 610.215 309.629Z" fill="#8CC1ED"/>
<path d="M619.78 274.668V286.104C619.78 287.187 620.127 288.189 620.717 289.004C621.617 290.249 623.082 291.059 624.735 291.059C626.157 291.059 627.44 290.46 628.344 289.5C629.179 288.613 629.691 287.418 629.691 286.103V274.667C629.691 271.93 627.472 269.712 624.736 269.712C623.367 269.712 622.129 270.267 621.232 271.163C620.335 272.061 619.78 273.3 619.78 274.668Z" fill="#FD5C54"/>
<g opacity="0.25">
<path d="M619.78 277.577V283.407C621.833 283.123 628.204 281.794 629.055 276.192C629.922 270.485 622.098 275.871 619.78 277.577Z" fill="black"/>
</g>
<path d="M620.859 279.835C627.421 279.835 632.74 273.275 632.74 265.181C632.74 257.088 627.421 250.527 620.859 250.527C614.298 250.527 608.979 257.088 608.979 265.181C608.979 273.275 614.298 279.835 620.859 279.835Z" fill="#FD5C54"/>
<path d="M630.864 268.698C629.496 271.068 629.7 273.748 631.321 274.684C632.942 275.62 635.365 274.457 636.733 272.087C638.101 269.717 637.897 267.037 636.276 266.101C634.656 265.165 632.233 266.328 630.864 268.698Z" fill="#FD5C54"/>
<path d="M649.006 326.051C650.513 326.137 654.078 326.965 652.894 330.668C650.99 336.621 631.405 348.341 628.132 348.259C624.859 348.177 624.677 346.256 628.617 341.783C632.557 337.31 642.203 325.66 649.006 326.051Z" fill="#7CAFD1"/>
<path d="M626.642 344.122C627.856 343.698 630.311 346.27 629.389 348.173C628.467 350.077 622.444 355.693 620.871 355.443C619.298 355.193 618.72 351.188 623.085 347.122C623.085 347.122 619.889 348.633 620.017 346.925C620.078 346.1 622.778 345.474 626.642 344.122Z" fill="#FD5C54"/>
<path d="M653.158 329.178C653.436 322.272 653.866 300.46 650.588 292.712C647.31 284.965 638.031 287.95 636.758 293.725C635.485 299.5 642.072 320.145 643.834 326.861C645.728 334.078 652.917 335.169 653.158 329.178Z" fill="#7CAFD1"/>
<defs>
<linearGradient id="paint0_linear_78_296" x1="281.386" y1="225.026" x2="284.258" y2="225.026" gradientUnits="userSpaceOnUse">
<stop stop-color="#E2E2E2"/>
<stop offset="1" stop-color="#FDFDFD"/>
</linearGradient>
<linearGradient id="paint1_linear_78_296" x1="362.256" y1="272.709" x2="363.565" y2="272.709" gradientUnits="userSpaceOnUse">
<stop stop-color="#E2E2E2"/>
<stop offset="1" stop-color="#FDFDFD"/>
</linearGradient>
<linearGradient id="paint2_linear_78_296" x1="187.353" y1="373.591" x2="416.239" y2="373.591" gradientUnits="userSpaceOnUse">
<stop stop-color="#E2E2E2"/>
<stop offset="1" stop-color="#FDFDFD"/>
</linearGradient>
<linearGradient id="paint3_linear_78_296" x1="228.476" y1="254.501" x2="238.516" y2="254.501" gradientUnits="userSpaceOnUse">
<stop stop-color="#E2E2E2"/>
<stop offset="1" stop-color="#FDFDFD"/>
</linearGradient>
<linearGradient id="paint4_linear_78_296" x1="362.256" y1="272.755" x2="364.048" y2="272.755" gradientUnits="userSpaceOnUse">
<stop stop-color="#E2E2E2"/>
<stop offset="1" stop-color="#FDFDFD"/>
</linearGradient>
</defs>
</svg>
