<svg width="864" height="664" viewBox="0 0 864 664" fill="none" xmlns="http://www.w3.org/2000/svg">
<path d="M411.373 632.143L409.495 663.528L0.703613 428.649V394.275L411.373 632.143Z" fill="#E2E2ED"/>
<path d="M863.339 402.435L409.495 663.528L411.373 632.143L412.307 632.685L862.895 369.188L863.339 402.435Z" fill="#CACAE0"/>
<path d="M863.427 368.953L862.9 369.266L706.562 460.684L695.59 467.106L680.619 475.858L670.343 481.863L637.347 501.163L627.059 507.179L412.837 632.452L412.768 632.411L411.904 631.907L245.429 535.579L235.141 529.627L215.418 518.214L204.04 511.63L201.073 509.915L190.82 503.974L0.702637 394.275L153.529 303.877L165.643 296.713L218.484 265.456L228.841 259.555L268.867 236.737L279.254 230.819L453.698 131.397L623.599 229.904L635.191 236.627L637.695 238.076L647.896 243.994L683.772 264.795L693.961 270.701L850.688 361.569L863.427 368.953Z" fill="#EEEEFF"/>
<path d="M423.392 394.372L422.308 465.958L238.407 360.294V287.469L423.392 394.372Z" fill="#E2E2ED"/>
<path d="M626.477 348.502L422.308 465.958L423.392 394.372L423.812 394.616L626.517 276.077L626.477 348.502Z" fill="#CACAE0"/>
<path d="M626.517 276.077L626.28 276.218L555.949 317.344L551.013 320.233L544.278 324.17L539.655 326.871L524.811 335.554L520.183 338.26L423.812 394.616L423.781 394.598L423.392 394.371L348.501 351.036L343.873 348.359L335 343.225L329.882 340.263L328.547 339.491L323.934 336.818L238.407 287.469L307.158 246.802L312.608 243.579L336.379 229.517L341.039 226.863L359.045 216.598L363.718 213.935L442.194 169.209L518.627 213.524L523.842 216.548L524.968 217.2L529.557 219.862L545.697 229.22L550.28 231.877L620.786 272.755L626.517 276.077Z" fill="#DBDBF3"/>
<path d="M385.6 97.9009C385.6 97.9009 375.948 116.92 375.111 132.257C374.274 147.593 373.159 164.882 373.159 164.882C373.159 164.882 380.409 172.969 389.332 171.017C398.256 169.064 385.6 97.9009 385.6 97.9009Z" fill="#6666BC"/>
<path d="M473.838 191.664C473.838 191.664 471.569 196.202 463.401 196.882C455.206 197.591 449.987 195.067 449.987 195.067V200.314C449.987 200.314 428.18 203.263 405.918 195.748C383.657 188.262 383.429 168.269 383.429 168.269C383.429 168.269 382.511 107.816 383.429 102.76C384.391 97.4659 388.333 94.5629 392.377 92.9719C397.092 91.1169 402.318 91.0159 407.228 92.2649L441.111 100.889C441.111 100.889 458.836 106.617 466.408 117.621C467.712 119.492 468.734 121.534 469.301 123.746C473.158 138.746 473.838 191.664 473.838 191.664Z" fill="#7C7CD6"/>
<path d="M439.424 98.9009L417.091 112.834L426.07 124.586L452.823 104.524L439.424 98.9009Z" fill="url(#paint0_linear_78_532)"/>
<path d="M409.612 108.679L392.518 111.053L407.179 91.5356L414.531 97.0816L409.612 108.679Z" fill="url(#paint1_linear_78_532)"/>
<path d="M414.531 97.0815L409.612 108.679L412.071 119.218L417.091 112.834L439.424 98.9006L439.488 97.5345L414.531 97.0815Z" fill="#EAA211"/>
<path d="M448.985 91.9152C460.429 80.4713 460.429 61.9172 448.985 50.4734C437.541 39.0296 418.987 39.0297 407.543 50.4735C396.099 61.9173 396.099 80.4713 407.543 91.9152C418.987 103.359 437.541 103.359 448.985 91.9152Z" fill="#F9BB41"/>
<path d="M397.547 53.3876C397.547 53.3876 397.998 63.0026 412.871 67.5096C427.745 72.0166 434.656 66.0076 434.656 66.0076C434.656 66.0076 430.149 72.7686 433.003 76.9746C435.858 81.1816 436.008 84.4866 436.008 84.4866L438.862 83.1346C438.862 83.1346 439.613 71.7166 444.271 72.9186C448.928 74.1206 443.82 84.3366 446.525 85.9896C449.229 87.6426 454.187 85.2386 454.638 85.2386C455.089 85.2386 460.197 79.0786 460.047 64.5056C459.897 49.9326 445.477 37.3126 428.799 37.1626C412.12 37.0126 397.547 53.3876 397.547 53.3876Z" fill="#6666BC"/>
<path d="M449.988 195.067C449.988 195.067 446.917 198.851 448.281 203.131C449.645 207.412 448.96 209.124 448.96 209.124C448.96 209.124 450.501 210.151 452.384 209.124C454.268 208.097 454.781 205.186 454.781 205.186C454.781 205.186 454.267 211.008 456.493 212.035C458.719 213.062 471.39 207.925 472.76 205.871C474.13 203.816 472.76 192.001 472.76 192.001L449.988 195.067Z" fill="#F9BB41"/>
<path d="M473.838 191.664C473.838 191.664 471.57 196.202 463.402 196.882C455.207 197.591 449.988 195.067 449.988 195.067V196.003L448.287 138.457C448.128 133.065 450.767 127.974 455.265 124.996L466.407 117.62C467.711 119.491 468.733 121.533 469.3 123.745C473.158 138.746 473.838 191.664 473.838 191.664Z" fill="#6666BC"/>
<path d="M309.947 190.832C309.947 190.832 298.779 212.838 297.811 230.583C296.843 248.328 295.553 268.331 295.553 268.331C295.553 268.331 303.941 277.687 314.266 275.429C324.59 273.171 309.947 190.832 309.947 190.832Z" fill="#6666BC"/>
<path d="M412.04 299.319C412.04 299.319 409.416 304.569 399.965 305.356C390.483 306.176 384.445 303.256 384.445 303.256V309.326C384.445 309.326 359.213 312.738 333.455 304.043C307.698 295.381 307.436 272.249 307.436 272.249C307.436 272.249 306.374 202.303 307.436 196.454C308.549 190.329 313.108 186.97 317.788 185.129C323.243 182.982 329.29 182.865 334.971 184.311L374.176 194.289C374.176 194.289 394.683 200.917 403.444 213.648C404.953 215.813 406.135 218.176 406.791 220.735C411.254 238.092 412.04 299.319 412.04 299.319Z" fill="#7C7CD6"/>
<path d="M372.223 191.99L346.383 208.11L356.772 221.708L387.725 198.496L372.223 191.99Z" fill="url(#paint2_linear_78_532)"/>
<path d="M337.73 203.303L317.951 206.05L334.915 183.468L343.42 189.885L337.73 203.303Z" fill="url(#paint3_linear_78_532)"/>
<path d="M343.419 189.885L337.729 203.303L340.575 215.497L346.383 208.11L372.223 191.99L372.297 190.41L343.419 189.885Z" fill="#EAA211"/>
<path d="M392.233 167.832C396.598 149.623 385.375 131.323 367.166 126.958C348.957 122.593 330.657 133.816 326.292 152.025C321.927 170.234 333.15 188.534 351.359 192.899C369.568 197.264 387.868 186.041 392.233 167.832Z" fill="#F9BB41"/>
<path d="M323.77 139.331C323.77 139.331 324.291 150.456 341.501 155.671C358.71 160.886 366.706 153.933 366.706 153.933C366.706 153.933 361.491 161.755 364.794 166.623C368.097 171.49 368.271 175.315 368.271 175.315L371.574 173.75C371.574 173.75 372.443 160.539 377.832 161.93C383.221 163.321 377.311 175.141 380.439 177.053C383.568 178.965 389.304 176.184 389.826 176.184C390.348 176.184 396.258 169.057 396.084 152.195C395.91 135.334 379.226 120.732 359.929 120.558C340.632 120.383 323.77 139.331 323.77 139.331Z" fill="#6666BC"/>
<path d="M384.446 303.256C384.446 303.256 380.893 307.633 382.471 312.586C384.049 317.539 383.257 319.52 383.257 319.52C383.257 319.52 385.04 320.709 387.219 319.52C389.398 318.331 389.993 314.963 389.993 314.963C389.993 314.963 389.399 321.699 391.974 322.888C394.55 324.077 409.21 318.133 410.795 315.756C412.38 313.379 410.795 299.709 410.795 299.709L384.446 303.256Z" fill="#F9BB41"/>
<path d="M412.04 299.319C412.04 299.319 409.416 304.569 399.965 305.356C390.483 306.176 384.445 303.256 384.445 303.256V304.339L382.478 237.757C382.294 231.518 385.347 225.627 390.552 222.182L403.444 213.648C404.953 215.813 406.135 218.176 406.791 220.735C411.254 238.092 412.04 299.319 412.04 299.319Z" fill="#6666BC"/>
<path d="M441.239 218.72C441.239 218.72 431.587 237.739 430.75 253.076C429.913 268.413 428.798 285.701 428.798 285.701C428.798 285.701 436.048 293.788 444.971 291.836C453.895 289.884 441.239 218.72 441.239 218.72Z" fill="#6666BC"/>
<path d="M529.477 312.484C529.477 312.484 527.209 317.022 519.041 317.702C510.846 318.411 505.627 315.887 505.627 315.887V321.134C505.627 321.134 483.819 324.083 461.557 316.568C439.296 309.082 439.069 289.089 439.069 289.089C439.069 289.089 438.151 228.636 439.069 223.58C440.031 218.286 443.972 215.383 448.016 213.792C452.731 211.937 457.957 211.836 462.867 213.085L496.751 221.709C496.751 221.709 514.475 227.437 522.047 238.441C523.351 240.312 524.373 242.354 524.94 244.566C528.797 259.566 529.477 312.484 529.477 312.484Z" fill="#7C7CD6"/>
<path d="M495.063 219.721L472.73 233.654L481.709 245.406L508.462 225.344L495.063 219.721Z" fill="url(#paint4_linear_78_532)"/>
<path d="M465.251 229.499L448.157 231.873L462.818 212.355L470.169 217.902L465.251 229.499Z" fill="url(#paint5_linear_78_532)"/>
<path d="M470.169 217.902L465.251 229.499L467.71 240.037L472.73 233.654L495.063 219.721L495.127 218.355L470.169 217.902Z" fill="#EAA211"/>
<path d="M512.433 198.673C516.105 182.911 506.305 167.157 490.543 163.484C474.781 159.812 459.027 169.613 455.355 185.374C451.682 201.136 461.483 216.89 477.245 220.563C493.006 224.235 508.761 214.434 512.433 198.673Z" fill="#F9BB41"/>
<path d="M453.186 174.208C453.186 174.208 453.637 183.823 468.51 188.33C483.384 192.837 490.295 186.828 490.295 186.828C490.295 186.828 485.788 193.589 488.642 197.795C491.496 202.002 491.647 205.307 491.647 205.307L494.501 203.955C494.501 203.955 495.252 192.537 499.91 193.739C504.567 194.941 499.459 205.157 502.164 206.81C504.868 208.463 509.826 206.059 510.277 206.059C510.728 206.059 515.836 199.899 515.686 185.326C515.536 170.753 501.116 158.133 484.438 157.983C467.759 157.832 453.186 174.208 453.186 174.208Z" fill="#6666BC"/>
<path d="M505.627 315.887C505.627 315.887 502.556 319.67 503.92 323.951C505.284 328.232 504.599 329.944 504.599 329.944C504.599 329.944 506.14 330.971 508.023 329.944C509.907 328.917 510.42 326.006 510.42 326.006C510.42 326.006 509.906 331.828 512.132 332.855C514.358 333.882 527.029 328.746 528.399 326.691C529.769 324.636 528.399 312.821 528.399 312.821L505.627 315.887Z" fill="#F9BB41"/>
<path d="M529.477 312.484C529.477 312.484 527.209 317.022 519.041 317.702C510.846 318.411 505.627 315.887 505.627 315.887V316.823L503.927 259.277C503.768 253.885 506.407 248.794 510.905 245.816L522.047 238.44C523.351 240.311 524.373 242.353 524.94 244.565C528.797 259.566 529.477 312.484 529.477 312.484Z" fill="#6666BC"/>
<path opacity="0.34" d="M423.392 225.52L423.366 392.306L238.407 286.642V118.616L423.392 225.52Z" fill="#B7E4FF"/>
<g opacity="0.34">
<path d="M626.477 274.849L423.366 392.306L423.392 225.52L423.812 225.763L626.517 107.224L626.477 274.849Z" fill="#78ABCE"/>
</g>
<path opacity="0.34" d="M626.517 107.224L626.28 107.365L555.949 148.491L551.013 151.38L544.278 155.318L539.655 158.019L524.811 166.701L520.183 169.408L423.812 225.763L423.781 225.745L423.392 225.518L348.501 182.184L343.873 179.506L335 174.372L329.882 171.41L328.547 170.638L323.934 167.966L238.407 118.616L307.158 77.9489L312.608 74.726L336.379 60.6639L341.039 58.0099L359.045 47.7449L363.718 45.0829L442.194 0.355957L518.627 44.671L523.842 47.6949L524.968 48.3469L529.557 51.0099L545.697 60.3669L550.28 63.0239L620.786 103.903L626.517 107.224Z" fill="#B7E4FF"/>
<path d="M659.254 433.922C704.376 465.616 613.938 514.342 574.043 487.37C534.149 460.398 627.48 411.604 659.254 433.922Z" fill="#CACAE0"/>
<path d="M227.196 388.741C272.318 420.435 181.88 469.161 141.986 442.189C102.091 415.217 195.423 366.423 227.196 388.741Z" fill="#CACAE0"/>
<path d="M627.797 401.171C628.521 408.809 627.279 412.687 622.906 414.055C616.794 415.967 612.689 412.38 610.552 407.459C610.254 406.772 609.881 405.665 609.453 404.222C608.778 401.949 607.97 398.845 607.108 395.25C606.406 392.325 605.671 389.074 604.943 385.679C603.068 376.93 601.251 367.228 600.244 359.695C598.061 343.367 600.54 323.003 600.54 323.003L614.065 320.978C614.065 320.978 625.01 332.66 627.503 347.262C630.213 363.134 624.547 382.323 626.076 390.203C626.911 394.505 627.51 398.135 627.797 401.171Z" fill="#422B9D"/>
<path d="M591.374 322.101C591.374 322.101 585.28 341.689 584.496 358.143C583.713 374.597 584.844 401.759 586.063 406.983C587.282 412.207 590.677 416.473 597.032 415.689C603.387 414.905 604.606 408.202 604.432 392.793C604.341 384.767 607.644 366.41 607.827 350.308C607.995 335.496 605.041 322.536 605.041 322.536L591.374 322.101Z" fill="#422B9D"/>
<path d="M585.714 405.591C585.714 405.591 585.801 395.405 594.942 394.709C604.083 394.013 604.344 404.982 604.17 412.034C603.996 419.086 599.654 456.276 598.99 461.44C598.206 467.534 591.192 469.56 590.545 463.094C590.197 459.612 589.936 455.868 589.37 450.166C587.777 434.114 585.627 411.685 585.714 405.591Z" fill="#422B9D"/>
<path d="M611.241 409.479C611.241 409.479 605.888 400.813 613.252 395.353C620.617 389.893 626.682 399.037 630.292 405.097C633.902 411.157 650.042 444.942 652.231 449.666C654.815 455.241 649.958 460.692 645.966 455.565C643.816 452.804 641.6 449.775 638.083 445.251C628.185 432.518 614.414 414.683 611.241 409.479Z" fill="#422B9D"/>
<path d="M645.005 280.314C640.185 285.467 624.514 302.65 616.533 305.821C608.552 308.992 604.948 300.943 608.233 295.879C611.518 290.814 630.493 278.732 636.637 275.198C643.241 271.401 649.187 275.844 645.005 280.314Z" fill="#8CC1ED"/>
<path d="M639.937 277.544C640.506 278.975 642.457 282.162 645.662 279.822C650.815 276.06 655.857 253.312 654.723 250.168C653.588 247.024 651.669 247.466 648.606 252.724C645.543 257.983 637.367 271.08 639.937 277.544Z" fill="#8CC1ED"/>
<path d="M650.234 250.058C650.214 251.37 653.496 252.919 655.043 251.413C656.59 249.907 660.089 242.263 659.34 240.82C658.591 239.377 654.525 240.107 651.993 245.646C651.993 245.646 652.427 242.063 650.814 242.737C650.036 243.063 650.299 245.879 650.234 250.058Z" fill="#FD5C54"/>
<path d="M612.166 270.072C609.615 278.738 601.992 284.128 595.142 282.111C588.291 280.094 584.806 271.434 587.357 262.768C589.909 254.102 597.531 248.712 604.382 250.729C611.232 252.746 614.718 261.406 612.166 270.072Z" fill="#FD5C54"/>
<path d="M603.722 293.677H601.051C599.048 293.677 597.424 292.053 597.424 290.05V276.584C597.424 274.581 599.048 272.957 601.051 272.957H603.722C605.725 272.957 607.349 274.581 607.349 276.584V290.05C607.349 292.053 605.725 293.677 603.722 293.677Z" fill="#FD5C54"/>
<path d="M614.488 323.102C601.168 327.803 591.417 322.144 591.417 322.144C591.417 322.144 590.985 320.728 590.385 318.55C589.782 316.363 589.007 313.408 588.327 310.35C587 304.377 586.035 298.009 587.413 296.2C589.286 293.741 593.836 291.361 596.617 290.066C597.971 289.435 598.905 289.061 598.905 289.061C598.905 289.061 603.496 288.214 608.438 288.526C612.316 288.771 616.408 289.728 618.667 292.37C623.803 298.378 614.488 323.102 614.488 323.102Z" fill="#8CC1ED"/>
<path d="M555.317 290.35C560.845 294.735 578.572 308.215 586.934 310.174C595.295 312.133 598.417 302.684 594.421 298.16C590.425 293.636 569.437 286.643 562.839 284.055C555.747 281.274 550.521 286.546 555.317 290.35Z" fill="#8CC1ED"/>
<path d="M561.835 288.343C561.483 289.843 560.024 293.282 556.509 291.441C550.857 288.48 542.514 266.726 543.172 263.449C543.83 260.172 545.794 260.326 549.599 265.075C553.405 269.822 563.423 281.569 561.835 288.343Z" fill="#8CC1ED"/>
<path d="M590.441 461.333C590.441 461.333 577.793 463.659 576.661 466.967C575.529 470.275 598.426 471.755 599.645 470.101C600.864 468.447 598.949 461.781 598.949 461.781C598.949 461.781 595.863 466.755 590.441 461.333Z" fill="black"/>
<path d="M644.939 454.133C644.939 454.133 635.474 462.84 636.279 466.243C637.084 469.646 657.249 458.699 657.399 456.65C657.549 454.601 652.377 449.98 652.377 449.98C652.377 449.98 652.417 455.833 644.939 454.133Z" fill="black"/>
<path d="M611.516 280.713C610.162 281.211 608.615 281.341 606.87 281.01C591.722 278.137 596.423 270.824 596.423 270.824C596.423 270.824 578.329 267.378 580.404 255.763C582.145 246.012 589.806 251.149 589.806 251.149C589.806 251.149 598.077 241.05 610.178 246.535C610.353 246.614 610.525 246.699 610.695 246.789C620.916 252.215 621.745 276.955 611.516 280.713Z" fill="#664FC6"/>
<path d="M601.284 266.368C599.345 265.356 596.609 266.764 595.174 269.514C593.739 272.263 594.148 275.313 596.088 276.325C598.028 277.337 600.763 275.929 602.198 273.18C603.633 270.429 603.224 267.38 601.284 266.368Z" fill="#FD5C54"/>
<path d="M611.515 280.713C606.707 276.634 602.867 266.286 603.474 257.504C603.925 250.996 607.628 248.086 610.695 246.789C620.915 252.215 621.744 276.955 611.515 280.713Z" fill="#422B9D"/>
<path d="M606.173 257.765C605.999 252.803 606.957 244.271 619.58 244.967C632.204 245.663 625.674 264.468 640.735 266.122C659.207 268.151 662.761 288.235 653.358 298.595C643.956 308.955 626.022 307.997 622.975 291.369C619.929 274.741 606.865 277.456 606.173 257.765Z" fill="#664FC6"/>
<path d="M608.437 288.527C604.771 293.385 598.229 290.805 596.616 290.067C597.97 289.436 598.904 289.062 598.904 289.062C598.904 289.062 603.496 288.215 608.437 288.527Z" fill="#FD5C54"/>
<g opacity="0.35">
<path d="M590.764 309.217L590.384 318.551C589.781 316.364 589.006 313.409 588.326 310.351L590.764 309.217Z" fill="black"/>
</g>
<g opacity="0.35">
<path d="M613.399 374.598C609.357 383.38 607.746 390.647 607.108 395.25C606.406 392.325 605.671 389.074 604.943 385.679C604.964 385.574 604.987 385.47 605.01 385.368C605.01 385.368 607.218 380.779 612.093 369.287C616.927 357.893 614.143 347.782 614.096 347.612C614.201 347.805 620.392 359.403 613.399 374.598Z" fill="black"/>
</g>
<path d="M547.212 261.072C547.232 262.384 543.95 263.933 542.403 262.427C540.856 260.921 537.357 253.277 538.106 251.834C538.855 250.391 542.921 251.121 545.453 256.66C545.453 256.66 545.019 253.077 546.632 253.751C547.411 254.077 547.148 256.894 547.212 261.072Z" fill="#FD5C54"/>
<path d="M152.616 409.813C152.616 409.813 149.894 418.478 149.017 423.253C148.14 428.028 150.771 434.558 153.013 435.142C155.254 435.727 160.712 429.782 160.712 424.52C160.712 419.258 161.324 412.07 161.324 412.07C161.324 412.07 156.806 401.822 152.616 409.813Z" fill="#0A1416"/>
<path d="M181.425 355.755C181.425 355.755 184.099 345.311 174.936 342.119C165.773 338.927 162.53 350.078 160.796 357.339C159.061 364.6 153.414 403.824 152.693 409.287C151.841 415.734 158.468 419.71 160.883 413.27C162.184 409.802 163.467 406.043 165.593 400.363C171.576 384.375 179.861 362.012 181.425 355.755Z" fill="#4A229C"/>
<path d="M217.348 353.31C217.348 353.31 217.124 342.532 207.44 341.913C197.757 341.295 197.623 352.907 197.899 360.367C198.175 367.828 203.253 407.129 204.023 412.586C204.931 419.025 212.381 421.078 212.981 414.227C213.304 410.537 213.532 406.572 214.057 400.53C215.534 383.523 217.519 359.758 217.348 353.31Z" fill="#4A229C"/>
<path d="M212.937 414.149C212.937 414.149 225.33 421.008 225.353 424.859C225.376 428.71 200.949 422.236 200.255 420.082C199.562 417.928 203.897 411.638 203.897 411.638C203.897 411.638 205.375 417.912 212.937 414.149Z" fill="#0A1416"/>
<path d="M199.016 267.485C199.016 267.485 199.938 289.177 196.276 306.223C192.615 323.269 184.09 350.749 181.426 355.763C178.762 360.776 174.132 364.219 167.843 361.694C161.554 359.169 162.125 351.98 166.483 336.263C168.753 328.077 166.066 307.441 170.246 290.919C174.091 275.721 184.915 264.223 184.915 264.223L199.016 267.485Z" fill="#4A229C"/>
<path d="M217.31 352.646C216.252 358.223 212.85 362.884 206.096 362.336C199.341 361.789 197.755 354.753 197.259 338.451C197.213 336.927 197.035 335.056 196.772 332.914C196.175 328.073 195.134 321.846 194.143 315.098C193.128 308.191 192.167 300.739 191.792 293.676C190.96 278.021 193.512 264.186 193.512 264.186L207.946 263.123C207.946 263.123 215.256 283.567 216.81 300.931C218.366 318.296 218.369 347.068 217.31 352.646Z" fill="#4A229C"/>
<path d="M186.094 194.214C182.083 195.755 179.585 199.253 178.676 210.591C177.766 221.929 174.407 228.228 174.407 228.228C174.407 228.228 181.196 231.517 193.653 227.948C206.11 224.379 206.95 222.489 206.95 222.489C206.95 222.489 211.754 184.354 186.094 194.214Z" fill="#422D96"/>
<path d="M231.133 245.941C230.979 247.374 231.202 250.864 234.877 250.327C240.785 249.463 254.893 232.838 255.328 229.741C255.762 226.643 253.98 226.171 249.149 229.185C244.316 232.198 231.829 239.468 231.133 245.941Z" fill="#8CC1ED"/>
<path d="M251.661 227.689C251.071 228.767 253.112 231.482 255.05 230.911C256.988 230.34 263.223 225.542 263.233 224.02C263.243 222.499 259.559 221.327 255.044 224.806C255.044 224.806 256.968 222.03 255.339 221.883C254.552 221.813 253.539 224.258 251.661 227.689Z" fill="#FD5C54"/>
<path d="M235.679 250.13C234.795 250.688 233.547 250.764 232.036 250.097C229.172 248.832 223.422 246.188 217.604 243.109C215.554 242.024 213.495 240.886 211.553 239.735C207.377 237.26 203.731 234.728 201.841 232.549C196.576 226.477 203.041 219.775 208.53 221.113C213.916 222.427 228.399 236.258 233.68 240.872C233.78 240.96 233.878 241.045 233.971 241.126C237.81 244.443 237.858 248.753 235.679 250.13Z" fill="#8CC1ED"/>
<g opacity="0.25">
<path d="M217.604 243.109C215.554 242.024 213.495 240.886 211.553 239.735L213.03 231.365C213.03 231.365 218.76 236.886 217.604 243.109Z" fill="black"/>
</g>
<path d="M206.25 208.386C206.25 215.711 200.929 221.649 194.366 221.649C187.802 221.649 182.482 215.711 182.482 208.386C182.482 201.062 187.803 195.124 194.366 195.124C200.929 195.123 206.25 201.061 206.25 208.386Z" fill="#422D96"/>
<path d="M212.708 247.704C212.172 248.735 212.252 248.468 211.579 249.908C211.178 250.765 210.825 251.596 210.514 252.396C209.211 255.74 208.638 258.557 208.393 260.575C208.131 262.741 208.247 263.99 208.247 263.99C205.824 267.893 202.485 269.427 199.041 269.692C196.443 269.892 193.784 269.37 191.414 268.598C190.49 268.297 189.609 267.958 188.793 267.61C185.614 266.251 183.791 265.442 183.791 265.442C183.827 265.006 183.474 263.871 183.483 263.436C183.556 260.045 182.829 256.679 181.744 253.483C178.47 243.83 171.93 235.721 174.278 233.139C177.503 229.592 187.07 228.087 187.07 228.087L195.562 225.507C195.562 225.507 200.399 222.605 205.237 221.314C210.074 220.024 211.687 224.969 214.482 233.246C216.791 240.084 215.252 242.805 212.708 247.704Z" fill="#8CC1ED"/>
<path d="M196.977 218.779V228.227C196.977 229.122 196.69 229.949 196.203 230.623C195.459 231.652 194.249 232.321 192.883 232.321C191.708 232.321 190.648 231.826 189.902 231.033C189.212 230.3 188.789 229.313 188.789 228.226V218.778C188.789 216.517 190.622 214.684 192.883 214.684C194.014 214.684 195.037 215.142 195.778 215.883C196.518 216.625 196.977 217.648 196.977 218.779Z" fill="#FD5C54"/>
<g opacity="0.25">
<path d="M197.842 300.025L196.772 332.913C196.175 328.072 195.134 321.845 194.143 315.097L197.842 300.025Z" fill="black"/>
</g>
<g opacity="0.25">
<path d="M210.514 252.396C209.211 255.74 208.638 258.557 208.393 260.575C206.998 262.17 205.595 263.739 204.753 264.581C203.607 265.727 201.219 267.821 199.041 269.692C196.443 269.892 193.784 269.37 191.414 268.598L183.576 256.305L184.114 235.235C184.114 235.235 188.032 241.987 189.059 244.372C190.491 247.697 193.574 258.132 193.574 258.132L209.108 250.373L210.514 252.396Z" fill="black"/>
</g>
<path d="M187.696 268.371C187.502 269.799 187.627 273.294 191.315 272.86C197.245 272.162 211.814 255.94 212.335 252.855C212.856 249.77 211.088 249.249 206.174 252.126C201.259 255.003 188.573 261.92 187.696 268.371Z" fill="#8CC1ED"/>
<path d="M208.728 250.701C208.108 251.761 210.072 254.533 212.025 254.017C213.978 253.501 220.345 248.879 220.398 247.358C220.451 245.838 216.801 244.563 212.19 247.914C212.19 247.914 214.191 245.193 212.566 245.001C211.782 244.908 210.701 247.325 208.728 250.701Z" fill="#FD5C54"/>
<path d="M187.402 270.948C183.843 265.385 172.973 247.603 171.942 239.633C170.911 231.663 180.003 229.652 183.837 233.801C187.671 237.95 192.191 258.153 193.975 264.542C195.893 271.408 190.489 275.773 187.402 270.948Z" fill="#8CC1ED"/>
<g opacity="0.25">
<path d="M196.977 221.182V225.998C195.28 225.764 190.017 224.666 189.313 220.038C188.597 215.322 195.061 219.773 196.977 221.182Z" fill="black"/>
</g>
<path d="M196.085 223.048C201.506 223.048 205.901 217.627 205.901 210.94C205.901 204.253 201.506 198.832 196.085 198.832C190.663 198.832 186.269 204.253 186.269 210.94C186.269 217.627 190.663 223.048 196.085 223.048Z" fill="#FD5C54"/>
<path d="M187.818 213.845C188.949 215.803 188.78 218.017 187.441 218.79C186.102 219.563 184.1 218.602 182.97 216.644C181.839 214.686 182.008 212.472 183.347 211.699C184.686 210.926 186.688 211.886 187.818 213.845Z" fill="#FD5C54"/>
<path d="M186.234 211.92C186.234 211.92 189.243 210.17 189.593 204.921C189.593 204.921 188.333 208.63 194.632 209.05C200.931 209.47 203.03 206.95 206.25 208.42C206.25 208.42 203.451 195.403 193.443 197.642C183.434 199.882 186.234 211.92 186.234 211.92Z" fill="#422D96"/>
<defs>
<linearGradient id="paint0_linear_78_532" x1="417.091" y1="111.743" x2="452.823" y2="111.743" gradientUnits="userSpaceOnUse">
<stop stop-color="#E2E2E2"/>
<stop offset="1" stop-color="#FDFDFD"/>
</linearGradient>
<linearGradient id="paint1_linear_78_532" x1="392.518" y1="101.294" x2="414.53" y2="101.294" gradientUnits="userSpaceOnUse">
<stop stop-color="#E2E2E2"/>
<stop offset="1" stop-color="#FDFDFD"/>
</linearGradient>
<linearGradient id="paint2_linear_78_532" x1="346.383" y1="206.849" x2="387.725" y2="206.849" gradientUnits="userSpaceOnUse">
<stop stop-color="#E2E2E2"/>
<stop offset="1" stop-color="#FDFDFD"/>
</linearGradient>
<linearGradient id="paint3_linear_78_532" x1="317.951" y1="194.759" x2="343.42" y2="194.759" gradientUnits="userSpaceOnUse">
<stop stop-color="#E2E2E2"/>
<stop offset="1" stop-color="#FDFDFD"/>
</linearGradient>
<linearGradient id="paint4_linear_78_532" x1="472.73" y1="232.563" x2="508.462" y2="232.563" gradientUnits="userSpaceOnUse">
<stop stop-color="#E2E2E2"/>
<stop offset="1" stop-color="#FDFDFD"/>
</linearGradient>
<linearGradient id="paint5_linear_78_532" x1="448.157" y1="222.114" x2="470.169" y2="222.114" gradientUnits="userSpaceOnUse">
<stop stop-color="#E2E2E2"/>
<stop offset="1" stop-color="#FDFDFD"/>
</linearGradient>
</defs>
</svg>
