<svg width="640" height="512" viewBox="0 0 640 512" fill="none" xmlns="http://www.w3.org/2000/svg">
<path d="M72 88C72 73.1479 77.9 58.9041 88.402 48.402C98.9041 37.9 113.148 32 128 32C142.852 32 157.096 37.9 167.598 48.402C178.1 58.9041 184 73.1479 184 88C184 102.852 178.1 117.096 167.598 127.598C157.096 138.1 142.852 144 128 144C113.148 144 98.9041 138.1 88.402 127.598C77.9 117.096 72 102.852 72 88ZM64 245.7C54 256.9 48 271.8 48 288C48 304.2 54 319.1 64 330.3V245.6V245.7ZM208.4 196.4C178.7 222.7 160 261.2 160 304C160 338.3 172 369.8 192 394.5V416C192 433.7 177.7 448 160 448H96C78.3 448 64 433.7 64 416V389.2C26.2 371.2 0 332.7 0 288C0 226.1 50.1 176 112 176H144C168 176 190.2 183.5 208.4 196.3V196.4ZM448 416V394.5C468 369.8 480 338.3 480 304C480 261.2 461.3 222.7 431.6 196.3C449.8 183.5 472 176 496 176H528C589.9 176 640 226.1 640 288C640 332.7 613.8 371.2 576 389.2V416C576 433.7 561.7 448 544 448H480C462.3 448 448 433.7 448 416ZM456 88C456 73.1479 461.9 58.9041 472.402 48.402C482.904 37.9 497.148 32 512 32C526.852 32 541.096 37.9 551.598 48.402C562.1 58.9041 568 73.1479 568 88C568 102.852 562.1 117.096 551.598 127.598C541.096 138.1 526.852 144 512 144C497.148 144 482.904 138.1 472.402 127.598C461.9 117.096 456 102.852 456 88ZM576 245.7V330.4C586 319.1 592 304.3 592 288.1C592 271.9 586 257 576 245.8V245.7ZM320 32C336.974 32 353.252 38.7428 365.255 50.7452C377.257 62.7475 384 79.0261 384 96C384 112.974 377.257 129.253 365.255 141.255C353.252 153.257 336.974 160 320 160C303.026 160 286.748 153.257 274.745 141.255C262.743 129.253 256 112.974 256 96C256 79.0261 262.743 62.7475 274.745 50.7452C286.748 38.7428 303.026 32 320 32ZM240 304C240 320.2 246 335 256 346.3V261.6C246 272.9 240 287.7 240 303.9V304ZM384 261.7V346.4C394 335.1 400 320.3 400 304.1C400 287.9 394 273 384 261.8V261.7ZM448 304C448 348.7 421.8 387.2 384 405.2V448C384 465.7 369.7 480 352 480H288C270.3 480 256 465.7 256 448V405.2C218.2 387.2 192 348.7 192 304C192 242.1 242.1 192 304 192H336C397.9 192 448 242.1 448 304Z" fill="white"/>
</svg>
