<svg width="512" height="512" viewBox="0 0 512 512" fill="none" xmlns="http://www.w3.org/2000/svg">
<g clip-path="url(#clip0_85_51)">
<path d="M78.6 4.99981C69.1 -2.40019 55.6 -1.50019 47 6.99981L7.00002 46.9998C-1.49998 55.4998 -2.39998 68.9998 4.90002 78.5998L84.9 182.6C89.4 188.5 96.5 192 103.9 192H158L267 301C252.3 330 257 366.4 281.3 390.6L393.3 502.6C405.8 515.1 426.1 515.1 438.6 502.6L502.6 438.6C515.1 426.1 515.1 405.8 502.6 393.3L390.6 281.3C366.4 257.1 330 252.3 301 267L192 158V103.9C192 96.3998 188.5 89.3998 182.6 84.8998L78.6 4.99981ZM19.9 396.1C7.20002 408.8 1.76076e-05 426.1 1.76076e-05 444.1C1.76076e-05 481.6 30.4 512 67.9 512C85.9 512 103.2 504.8 115.9 492.1L233.7 374.3C225.9 353.4 224.7 330.7 230.1 309.2L168.4 247.5L19.9 396.1ZM512 144C512 133.5 510.9 123.3 508.8 113.5C506.4 102.3 492.7 99.3998 484.6 107.5L420.7 171.4C417.7 174.4 413.6 176.1 409.4 176.1L352 176C343.2 176 336 168.8 336 160V102.6C336 98.3998 337.7 94.2998 340.7 91.2998L404.6 27.3998C412.7 19.2998 409.8 5.59981 398.6 3.19981C388.7 1.09981 378.5 -0.000185892 368 -0.000185892C288.5 -0.000185892 224 64.4998 224 144V144.8L309.3 230.1C345.3 221 385.1 230.6 413.3 258.8L429 274.5C478 251.5 512 201.7 512 144ZM56 432C56 425.635 58.5286 419.53 63.0295 415.029C67.5303 410.528 73.6348 408 80 408C86.3652 408 92.4697 410.528 96.9706 415.029C101.471 419.53 104 425.635 104 432C104 438.365 101.471 444.469 96.9706 448.97C92.4697 453.471 86.3652 456 80 456C73.6348 456 67.5303 453.471 63.0295 448.97C58.5286 444.469 56 438.365 56 432Z" fill="white"/>
</g>
<defs>
<clipPath id="clip0_85_51">
<rect width="512" height="512" fill="white"/>
</clipPath>
</defs>
</svg>
