<svg width="640" height="512" viewBox="0 0 640 512" fill="none" xmlns="http://www.w3.org/2000/svg">
<path d="M323.4 85.2L226.6 163.6C210.5 176.6 207.4 200 219.6 216.7C232.5 234.5 257.6 238 274.9 224.5L374.2 147.3C381.2 141.9 391.2 143.1 396.7 150.1C402.2 157.1 400.9 167.1 393.9 172.6L373 188.8L512 316.8V128H511.3L507.4 125.5L434.8 79C419.5 69.2 401.6 64 383.4 64C361.6 64 340.4 71.5 323.4 85.2ZM346.2 209.6L294.5 249.8C263 274.4 217.3 268 193.7 235.6C171.5 205.1 177.1 162.5 206.4 138.8L289.6 71.5C278 66.6 265.5 64.1 252.8 64.1C234 64 215.7 69.6 200 80L128 128V352H156.2L247.6 435.4C267.2 453.3 297.5 451.9 315.4 432.3C320.9 426.2 324.6 419.1 326.5 411.7L343.5 427.3C363 445.2 393.4 443.9 411.3 424.4C415.8 419.5 419.1 413.8 421.2 407.9C440.6 420.9 467 418.2 483.3 400.4C501.2 380.9 499.9 350.5 480.4 332.6L346.2 209.6ZM16 128C7.2 128 0 135.2 0 144V352C0 369.7 14.3 384 32 384H64C81.7 384 96 369.7 96 352V128H16ZM48 320C52.2435 320 56.3131 321.686 59.3137 324.686C62.3143 327.687 64 331.757 64 336C64 340.243 62.3143 344.313 59.3137 347.314C56.3131 350.314 52.2435 352 48 352C43.7565 352 39.6869 350.314 36.6863 347.314C33.6857 344.313 32 340.243 32 336C32 331.757 33.6857 327.687 36.6863 324.686C39.6869 321.686 43.7565 320 48 320ZM544 128V352C544 369.7 558.3 384 576 384H608C625.7 384 640 369.7 640 352V144C640 135.2 632.8 128 624 128H544ZM576 336C576 331.757 577.686 327.687 580.686 324.686C583.687 321.686 587.757 320 592 320C596.243 320 600.313 321.686 603.314 324.686C606.314 327.687 608 331.757 608 336C608 340.243 606.314 344.313 603.314 347.314C600.313 350.314 596.243 352 592 352C587.757 352 583.687 350.314 580.686 347.314C577.686 344.313 576 340.243 576 336Z" fill="white"/>
</svg>
